<svg xmlns="http://www.w3.org/2000/svg" viewBox="0 0 7.64 14"><defs><style>.cls-1{fill:#4c4c4c;}</style></defs><title>battery</title><g id="Layer_2" data-name="Layer 2"><g id="specctr"><rect class="cls-1" x="1.27" y="10.82" width="5.09" height="0.64"/><rect class="cls-1" x="1.27" y="12.09" width="5.09" height="0.64"/><rect class="cls-1" x="1.27" y="9.55" width="5.09" height="0.64"/><path class="cls-1" d="M4.45,0H3.18c-.63,0-.63,1-.65,1H5.09S5.09,0,4.45,0Z"/><path class="cls-1" d="M0,2.61V12.66A1.36,1.36,0,0,0,1.39,14H6.25a1.35,1.35,0,0,0,1.39-1.34v-10A1.35,1.35,0,0,0,6.25,1.27H1.39A1.35,1.35,0,0,0,0,2.61Zm6.29-.7s.71,0,.71.67V12.69c0,.67-.71.67-.71.67H1.34a.68.68,0,0,1-.7-.67V2.58a.66.66,0,0,1,.7-.67Z"/><rect class="cls-1" x="1.27" y="8.27" width="5.09" height="0.64"/></g></g></svg>