<svg xmlns="http://www.w3.org/2000/svg" width="27.502" height="23.796" viewBox="0 0 27.502 23.796">
  <g id="Group_37" data-name="Group 37" transform="translate(0)">
    <path id="Path_32" data-name="Path 32" d="M459.793,30.954c-.423-.143-.829-.333-1.247-.486a.4.4,0,0,1-.274-.321q-.52-2.106-1.055-4.209A1.449,1.449,0,0,0,455.7,24.77c-1.3,0-2.6-.006-3.893.008-.246,0-.3-.072-.291-.3.019-.321.008-.644.005-.966a.993.993,0,0,0-1.048-1.037h-7.807c0-.039-.006-.058,0-.073.04-.09.083-.178.123-.267a4.763,4.763,0,0,0,.425-2.872,5.077,5.077,0,0,0-9.872-.4c-.057.214-.1.431-.15.647v1.074a5.55,5.55,0,0,0,.755,2.267c.1.191.211.374.308.565.994,1.976,2.12,3.878,3.259,5.771a1.169,1.169,0,0,1,.173.634q-.006,2.777,0,5.557c0,.107,0,.215.005.322a1.049,1.049,0,0,0,1.1,1.018q.726.006,1.45,0a.307.307,0,0,1,.334.238,2.737,2.737,0,0,0,2.343,2h.7a2.5,2.5,0,0,0,.991-.282,3,3,0,0,0,1.372-1.687.312.312,0,0,1,.338-.266q2.909.006,5.82,0a.325.325,0,0,1,.351.25,2.756,2.756,0,0,0,2.355,1.986h.7a6,6,0,0,0,.624-.116,2.946,2.946,0,0,0,1.71-1.815.39.39,0,0,1,.448-.31c.437.016.876,0,1.314,0a.951.951,0,0,0,1.062-.772V31.757A1.357,1.357,0,0,0,459.793,30.954Zm-23.382-5.617c-.613-1.07-1.174-2.169-1.743-3.263a4.04,4.04,0,0,1-.316-3.439,3.808,3.808,0,0,1,3.134-2.5,4.2,4.2,0,0,1,3.459.859,3.818,3.818,0,0,1,1.062,4.61c-.67,1.492-1.478,2.916-2.293,4.335-.477.828-.962,1.65-1.482,2.543C437.6,27.394,437,26.369,436.412,25.337Zm2.309,4.142a1.173,1.173,0,0,1,.1-.19c.664-1.13,1.334-2.258,1.988-3.395a.369.369,0,0,1,.379-.211q3.289.006,6.576,0c.358,0,.588-.209.558-.5-.026-.262-.216-.413-.53-.414q-1.959,0-3.919,0h-2.431c.237-.45.455-.848.657-1.254.075-.153.2-.127.318-.127q3.006,0,6.013,0c.644,0,1.288.009,1.932-.005.206,0,.255.06.252.258-.013.778.029,1.558-.02,2.335a3.983,3.983,0,0,1-3.315,3.744,5.445,5.445,0,0,1-.961.061q-3.69,0-7.381,0C438.679,29.782,438.634,29.718,438.721,29.479Zm4.491,8.56a1.828,1.828,0,1,1,.211-3.65,1.828,1.828,0,0,1-.211,3.65Zm11.9,0a1.828,1.828,0,1,1,.213-3.65,1.828,1.828,0,0,1-.213,3.65Zm4.674-2.488c0,.152-.046.2-.2.2-.483-.008-.967-.011-1.45,0-.173,0-.238-.052-.291-.22a2.738,2.738,0,0,0-5.3-.014.263.263,0,0,1-.309.233q-3.008-.008-6.015,0c-.2,0-.25-.08-.3-.246a2.736,2.736,0,0,0-5.293.01c-.053.184-.123.24-.308.235-.474-.013-.949-.01-1.423,0-.165,0-.213-.052-.211-.215q.008-2.3,0-4.592c0-.216.1-.22.261-.22,1.28,0,2.56,0,3.84,0h3.571a5.147,5.147,0,0,0,5.141-4.478l.006-.054c.05-.506.05-.506.572-.506h3.679c.4,0,.469.055.563.426.331,1.306.656,2.615.987,3.921.041.161.032.23-.169.228-1.048-.01-2.094,0-3.142-.005-.459,0-.633-.17-.638-.631-.005-.689,0-1.378,0-2.067a.455.455,0,1,0-.908-.042c-.011.752-.038,1.506.009,2.255a1.536,1.536,0,0,0,1.563,1.4q1.8,0,3.6,0a.953.953,0,0,1,.367.056c.547.219,1.094.438,1.643.652a.215.215,0,0,1,.158.237Q459.777,33.832,459.784,35.551Z" transform="translate(-433.194 -15.158)" fill="#fff"/>
    <path id="Path_33" data-name="Path 33" d="M452.033,31.845c-.152,0-.3.006-.455,0a.461.461,0,0,1-.451-.44.444.444,0,0,1,.4-.463,8.237,8.237,0,0,1,1.042,0,.453.453,0,0,1-.054.9c-.16.008-.321,0-.481,0Z" transform="translate(-431.879 -14.002)" fill="#fff"/>
    <path id="Path_34" data-name="Path 34" d="M443.249,27.582q-1.544,0-3.088,0c-.355,0-.567-.177-.56-.466s.215-.447.554-.447q3.115,0,6.23,0a.473.473,0,0,1,.524.324.437.437,0,0,1-.184.517.588.588,0,0,1-.362.075q-1.557,0-3.114,0Z" transform="translate(-432.724 -14.314)" fill="#fff"/>
    <path id="Path_35" data-name="Path 35" d="M441.74,34.824a.9.9,0,0,1,.9-.9.92.92,0,0,1,.933.907.933.933,0,0,1-.922.922A.908.908,0,0,1,441.74,34.824Z" transform="translate(-432.567 -13.783)" fill="#fff"/>
    <path id="Path_36" data-name="Path 36" d="M453.781,33.922a.921.921,0,0,1,.9.917.938.938,0,0,1-.935.911.91.91,0,0,1-.9-.938A.9.9,0,0,1,453.781,33.922Z" transform="translate(-431.753 -13.782)" fill="#fff"/>
    <path id="Path_37" data-name="Path 37" d="M438.124,17.3a2.8,2.8,0,0,0-2.787,2.72,2.745,2.745,0,1,0,2.787-2.72Zm-.062,4.57A1.756,1.756,0,0,1,436.251,20a1.83,1.83,0,0,1,3.66.061A1.764,1.764,0,0,1,438.062,21.868Z" transform="translate(-433.037 -15.002)" fill="#fff"/>
  </g>
</svg>
