<svg xmlns="http://www.w3.org/2000/svg" viewBox="0 0 22.65 22.65"><defs><style>.cls-1{fill:#f2f3f6;}.cls-2{fill:#4c4c4c;}</style></defs><title>cross with circle</title><g id="Layer_2" data-name="Layer 2"><g id="specctr"><circle class="cls-1" cx="11.32" cy="11.32" r="11.32"/><path class="cls-2" d="M6.77,17.14a1,1,0,0,1-.71-.29,1,1,0,0,1,0-1.41l9-9a1,1,0,0,1,1.42,1.41l-9,9A1,1,0,0,1,6.77,17.14Z"/><path class="cls-2" d="M15.78,17.14a1,1,0,0,1-.71-.29l-9-9A1,1,0,0,1,7.48,6.43l9,9a1,1,0,0,1,0,1.41A1,1,0,0,1,15.78,17.14Z"/></g></g></svg>