<svg xmlns="http://www.w3.org/2000/svg" width="33.485" height="43.523" viewBox="0 0 33.485 43.523"><defs><style>.a{fill:#00ab2e;}.b{fill:#fff;}</style></defs><path class="a" d="M851.2,647.495a16.7,16.7,0,1,0-27.9,18.265c1.937,2.6,4,5.1,6.019,7.637,2.418,3.045,4.844,6.082,7.335,9.207a4.606,4.606,0,0,0,.362-.346c4.375-5.509,8.815-10.967,13.1-16.545A16.39,16.39,0,0,0,851.2,647.495Z" transform="translate(-819.973 -639.08)"/><g transform="translate(4.518 4.365)"><path class="b" d="M840.856,666.522a3.316,3.316,0,0,1,2.981-1.719,1.8,1.8,0,0,0,2-2,3.31,3.31,0,0,1,1.716-2.974,1.8,1.8,0,0,0,.732-2.731,3.316,3.316,0,0,1,0-3.439,1.789,1.789,0,0,0-.732-2.725,3.323,3.323,0,0,1-1.716-2.985,1.8,1.8,0,0,0-2-2,3.321,3.321,0,0,1-2.981-1.721,1.792,1.792,0,0,0-2.727-.731,3.317,3.317,0,0,1-3.439,0,1.794,1.794,0,0,0-2.728.731,3.315,3.315,0,0,1-2.98,1.721,1.8,1.8,0,0,0-2,2,3.336,3.336,0,0,1-1.719,2.985,1.788,1.788,0,0,0-.731,2.725,3.307,3.307,0,0,1,0,3.439,1.792,1.792,0,0,0,.731,2.731,3.314,3.314,0,0,1,1.719,2.974,1.8,1.8,0,0,0,2,2,3.316,3.316,0,0,1,2.981,1.719,1.79,1.79,0,0,0,2.727.729,3.345,3.345,0,0,1,3.439,0A1.79,1.79,0,0,0,840.856,666.522Zm-4.443-3.952a7.2,7.2,0,1,1,7.193-7.2A7.2,7.2,0,0,1,836.413,662.57Z" transform="translate(-824.182 -643.147)"/><path class="b" d="M837.413,653.267l-1.506-3.049-1.507,3.049-3.37.493,2.436,2.376-.574,3.36,3.016-1.584,3.016,1.584-.574-3.36,2.436-2.376Z" transform="translate(-823.68 -642.628)"/></g></svg>