<svg xmlns="http://www.w3.org/2000/svg" viewBox="0 0 31 31"><defs><style>.cls-1{fill:#5acaf8;}.cls-2{fill:none;stroke:#5acaf8;stroke-miterlimit:10;}</style></defs><title>deviceinfo_1</title><g id="Layer_2" data-name="Layer 2"><g id="specctr"><path class="cls-1" d="M16.86,8.13H14.14a.29.29,0,0,0-.28.28.28.28,0,0,0,.28.27h2.72a.28.28,0,0,0,.28-.27A.29.29,0,0,0,16.86,8.13Z"/><path class="cls-1" d="M18.77,8.13H18.5a.28.28,0,0,0-.27.28.27.27,0,0,0,.27.27h.27a.28.28,0,0,0,.28-.27A.29.29,0,0,0,18.77,8.13Z"/><path class="cls-1" d="M15.84,21.23h-.68a.76.76,0,0,0-.75.75v.13a.76.76,0,0,0,.75.76h.68a.76.76,0,0,0,.75-.76V22A.76.76,0,0,0,15.84,21.23Zm.21.88a.21.21,0,0,1-.21.21h-.68a.21.21,0,0,1-.21-.21V22a.21.21,0,0,1,.21-.2h.68a.21.21,0,0,1,.21.2Z"/><path class="cls-1" d="M19.15,7.31h-7.3a1,1,0,0,0-1,1V22.7a1,1,0,0,0,1,1h7.3a1,1,0,0,0,1-1V8.3A1,1,0,0,0,19.15,7.31Zm.44,15.39a.44.44,0,0,1-.44.44h-7.3a.44.44,0,0,1-.44-.44V8.3a.44.44,0,0,1,.44-.44h7.3a.44.44,0,0,1,.44.44V22.7Z"/><path class="cls-1" d="M19.87,9H11.13a.27.27,0,0,0-.27.27V20.68a.28.28,0,0,0,.27.28h8.74a.28.28,0,0,0,.27-.28V9.22A.27.27,0,0,0,19.87,9Zm-.28,11.46H11.41V9.5h8.18Z"/><circle class="cls-2" cx="15.5" cy="15.5" r="15"/></g></g></svg>