<svg xmlns="http://www.w3.org/2000/svg" viewBox="0 0 15.46 15.98"><defs><style>.cls-1{fill:#a54feb;}</style></defs><title>download</title><g id="Layer_2" data-name="Layer 2"><g id="specctr"><path class="cls-1" d="M13.31,10.18v3.65H2.15V10.18H0v4.73A1.07,1.07,0,0,0,1.07,16H14.38a1.07,1.07,0,0,0,1.08-1.07V10.18Z"/><path class="cls-1" d="M7.53,9.82,4.46,6.11s-.47-.44,0-.44H6.23V.26S6.16,0,6.56,0H9c.29,0,.28.22.28.22V5.56h1.6c.62,0,.15.46.15.46s-2.61,3.47-3,3.83A.34.34,0,0,1,7.53,9.82Z"/></g></g></svg>