<svg xmlns="http://www.w3.org/2000/svg" viewBox="0 0 55.58 44.18"><defs><style>.cls-1{fill:#3498db;}</style></defs><title>km</title><g id="Layer_2" data-name="Layer 2"><g id="specctr"><path class="cls-1" d="M47.24,8.34a2.19,2.19,0,0,0-2.76-.26C41.23,10.3,24.94,21.43,23.19,23.19A6.51,6.51,0,0,0,32.4,32.4c1.75-1.75,12.88-18,15.1-21.3A2.17,2.17,0,0,0,47.24,8.34Zm-17.91,21a2.17,2.17,0,0,1-3.07-3.07c.68-.68,5.3-4,11-7.93C33.3,24,30,28.65,29.33,29.33Z"/><path class="cls-1" d="M10,37.89,7.33,39.2A23.32,23.32,0,0,1,5.87,19.47l3.07,1.47a2.08,2.08,0,0,0,.94.21A2.17,2.17,0,0,0,10.82,17l-3-1.45A23.47,23.47,0,0,1,25.62,4.44V7.71a2.17,2.17,0,0,0,4.34,0V4.44a23.14,23.14,0,0,1,7.47,2,2.17,2.17,0,0,0,1.79-4A27.77,27.77,0,0,0,4.71,43.22,2.18,2.18,0,0,0,7.47,44l4.45-2.17A2.17,2.17,0,1,0,10,37.89Z"/><path class="cls-1" d="M53.13,16.37a2.17,2.17,0,1,0-4,1.78,23.39,23.39,0,0,1-.94,21.06l-2.8-1.33a2.17,2.17,0,0,0-1.86,3.92L48.14,44a2,2,0,0,0,.93.21,2.16,2.16,0,0,0,1.8-1,27.72,27.72,0,0,0,2.26-26.85Z"/></g></g></svg>