<svg xmlns="http://www.w3.org/2000/svg" viewBox="0 0 13.18 10.47"><defs><style>.cls-1{fill:#b7b7b7;}</style></defs><title>km_small</title><g id="Layer_2" data-name="Layer 2"><g id="specctr"><path class="cls-1" d="M11.2,2a.5.5,0,0,0-.65-.06C9.77,2.44,5.91,5.08,5.5,5.5A1.54,1.54,0,0,0,6.59,8.13a1.55,1.55,0,0,0,1.09-.45c.42-.41,3.06-4.28,3.58-5A.51.51,0,0,0,11.2,2ZM7,7a.52.52,0,0,1-.73-.73c.17-.15,1.26-.94,2.61-1.88C7.89,5.69,7.11,6.79,7,7Z"/><path class="cls-1" d="M2.37,9l-.63.31A5.45,5.45,0,0,1,1,6.59a5.65,5.65,0,0,1,.36-2L2.12,5a.44.44,0,0,0,.22,0,.51.51,0,0,0,.22-1l-.71-.35A5.57,5.57,0,0,1,6.07,1.05v.78a.52.52,0,0,0,1,0V1.05a5.4,5.4,0,0,1,1.77.47.51.51,0,0,0,.68-.26A.51.51,0,0,0,9.3.58,6.67,6.67,0,0,0,6.59,0,6.58,6.58,0,0,0,1.12,10.25a.51.51,0,0,0,.42.22.46.46,0,0,0,.23-.05l1.06-.51A.52.52,0,0,0,2.37,9Z"/><path class="cls-1" d="M12.6,3.88a.52.52,0,0,0-.68-.26.51.51,0,0,0-.26.68,5.56,5.56,0,0,1-.22,5L10.77,9a.52.52,0,0,0-.68.24.51.51,0,0,0,.24.69l1.08.51a.44.44,0,0,0,.22.05.53.53,0,0,0,.43-.22,6.57,6.57,0,0,0,.54-6.37Z"/></g></g></svg>