<svg xmlns="http://www.w3.org/2000/svg" xmlns:xlink="http://www.w3.org/1999/xlink" viewBox="0 0 11.67 15.56"><defs><style>.cls-1{fill:#b7b7b7;}.cls-2{fill:#efefef;}.cls-3{fill:#fff;}.cls-4{opacity:0.1;isolation:isolate;}.cls-5{fill:url(#linear-gradient);}</style><linearGradient id="linear-gradient" x1="327.11" y1="-896.93" x2="327.52" y2="-896.73" gradientTransform="translate(-6978.35 19140.92) scale(21.33)" gradientUnits="userSpaceOnUse"><stop offset="0" stop-color="#fff" stop-opacity="0.2"/><stop offset="1" stop-color="#fff" stop-opacity="0"/></linearGradient></defs><title>location</title><g id="Layer_2" data-name="Layer 2"><g id="specctr"><path class="cls-1" d="M5.84,0A5.85,5.85,0,0,0,0,5.84c0,4.3,5.38,9.42,5.61,9.63a.35.35,0,0,0,.23.09.33.33,0,0,0,.22-.09c.23-.21,5.61-5.33,5.61-9.63A5.84,5.84,0,0,0,5.84,0Z"/><path class="cls-2" d="M5.84,14.78c-1-1-5.19-5.39-5.19-8.94A5.19,5.19,0,1,1,11,5.84C11,9.39,6.85,13.77,5.84,14.78Z"/><circle class="cls-1" cx="5.84" cy="5.84" r="3.24"/><circle class="cls-3" cx="5.84" cy="5.84" r="2.59"/><path class="cls-4" d="M4.21,7.13A2.59,2.59,0,0,1,8.28,5,2.59,2.59,0,1,0,4.36,8,2.6,2.6,0,0,1,4.21,7.13Z"/><path class="cls-5" d="M4.86,2.59A4.87,4.87,0,0,0,0,7.46c0,3.58,4.49,7.85,4.68,8a.26.26,0,0,0,.18.07.26.26,0,0,0,.19-.07c.19-.18,4.68-4.45,4.68-8A4.88,4.88,0,0,0,4.86,2.59Z"/></g></g></svg>