<svg xmlns="http://www.w3.org/2000/svg" width="181.385" height="54.182" viewBox="0 0 181.385 54.182"><defs><style>.a{fill:#656565;}</style></defs><g transform="translate(-50 -16.858)"><g transform="translate(50 21.064)"><path class="a" d="M68.278,62.686c-1.42-1.468-2.785-2.9-4.174-4.309-2.986-3.03-6.132-5.916-8.947-9.1a17.622,17.622,0,1,1,30.75-13.57,17.25,17.25,0,0,1-5.19,14.59C76.785,54.289,72.8,58.228,68.84,62.187,68.718,62.308,68.583,62.416,68.278,62.686Zm.053-9.895A14.989,14.989,0,1,0,53.385,37.773,15,15,0,0,0,68.331,52.792Z" transform="translate(-50.71 -20.015)"/><path class="a" d="M80.477,35.875H77.949v1.689h2.5c.028,6.03-5.6,12.21-12.213,12.286V47.344H66.473v2.493c-5.792.035-12.009-5.29-12.263-12.184h2.519V35.912H54.27c-.076-5.745,5.217-12.017,12.15-12.3v2.52h1.759V23.709C73.729,23.476,80.28,28.879,80.477,35.875ZM73.169,43c.943.119.994-.469.988-1.178-.014-1.781,0-3.562.043-5.343a1.917,1.917,0,0,1,.291-.918c.362-.589.415-2.385-.071-2.67a1.191,1.191,0,0,1-.559-1.147,2.494,2.494,0,0,0-2.1-2.554,21.008,21.008,0,0,0-8.634-.128c-1.8.36-2.2.925-2.349,2.765-.022.274-.017.69-.18.793-1.118.709-.793,1.856-.493,2.621a6.608,6.608,0,0,1,.347,2.3c.053,1.377.124,2.755.123,4.133,0,.883.164,1.509,1.254,1.3.23.7-.232,1.781.986,1.825,1.3.048.973-1.055,1.112-1.785h7.134c.1.774-.171,1.813,1.069,1.782C73.286,44.763,73.093,43.8,73.169,43Z" transform="translate(-49.681 -18.957)"/><path class="a" d="M60.528,30.073H70.3v5.062h-9.77Z" transform="translate(-47.822 -17.055)"/><path class="a" d="M68.765,28.735v.99H61.528v-.99Z" transform="translate(-47.527 -17.449)"/><path class="a" d="M61.821,35.975c.608.106,1.012.4.977,1.082a.928.928,0,0,1-1.081.959A.938.938,0,0,1,60.761,37C60.77,36.359,61.186,36.035,61.821,35.975Z" transform="translate(-47.753 -15.319)"/><path class="a" d="M67.281,38.02a.957.957,0,0,1-.946-1.059,1.017,1.017,0,0,1,2.033.04A.977.977,0,0,1,67.281,38.02Z" transform="translate(-46.113 -15.314)"/></g><g transform="translate(93.672 16.858)"><path class="a" d="M782.914,712.675a.936.936,0,0,0-.825-.359h-1.841a14.541,14.541,0,0,0-1.112-2.332,12.439,12.439,0,0,0-1.507-2.069,8.184,8.184,0,0,0-1.758-1.482,3.571,3.571,0,0,0-1.889-.574,2.18,2.18,0,0,0-.981.2,2,2,0,0,0-.681.55,2.325,2.325,0,0,0-.407.789,3.211,3.211,0,0,0-.13.92v.24a1.234,1.234,0,0,0,.024.24,9.508,9.508,0,0,1,1.279.49,11.272,11.272,0,0,1,1.411.779,9.721,9.721,0,0,1,1.327,1.029,6.792,6.792,0,0,1,1.052,1.22h-16.67a14.466,14.466,0,0,0-1.112-2.332,12.489,12.489,0,0,0-1.507-2.069,8.205,8.205,0,0,0-1.758-1.483,3.571,3.571,0,0,0-1.889-.574,2.177,2.177,0,0,0-.98.2,2.009,2.009,0,0,0-.682.55,2.348,2.348,0,0,0-.406.789,3.238,3.238,0,0,0-.13.92v.24a1.244,1.244,0,0,0,.023.24,9.488,9.488,0,0,1,1.28.49,11.2,11.2,0,0,1,1.41.779,9.644,9.644,0,0,1,1.327,1.029,6.759,6.759,0,0,1,1.052,1.219H735.956a2.081,2.081,0,0,0-.192.646,4.493,4.493,0,0,0-.072.714,2.022,2.022,0,0,0,.239,1.088.918.918,0,0,0,.837.371h1.722a2.444,2.444,0,0,0-.538.729,2.311,2.311,0,0,0-.2,1.017,2.455,2.455,0,0,0,.634,1.721,3.312,3.312,0,0,0,1.71.957,3.107,3.107,0,0,0-1.555,1.256,3.622,3.622,0,0,0-.526,1.948,3.74,3.74,0,0,0,.538,1.985,4.712,4.712,0,0,0,1.531,1.519,7.777,7.777,0,0,0,2.415.968,13.949,13.949,0,0,0,3.192.335,12.077,12.077,0,0,0,4.041-.6,7.577,7.577,0,0,0,2.727-1.6,6.026,6.026,0,0,0,1.531-2.319,8.01,8.01,0,0,0,.478-2.75,4.255,4.255,0,0,0-.5-2.069,3.393,3.393,0,0,0-1.507-1.423V715.14h4.3v10.52q0,1.075.526,1.4a3.074,3.074,0,0,0,1.579.325,8.565,8.565,0,0,0,1.052-.071,4.118,4.118,0,0,0,.766-.143V715.138h8.991v1.818h-.79a7.394,7.394,0,0,0-2.511.395,5.382,5.382,0,0,0-1.853,1.088,4.514,4.514,0,0,0-1.136,1.623,5.24,5.24,0,0,0-.382,2.009,4.976,4.976,0,0,0,1.77,4.065,7.861,7.861,0,0,0,5.118,1.459,9.319,9.319,0,0,0,1.961-.191,5.541,5.541,0,0,0,1.494-.527,2.848,2.848,0,0,0,.944-.788,1.657,1.657,0,0,0,.334-1,1.922,1.922,0,0,0-.37-1.169,1.887,1.887,0,0,0-.969-.693,5.89,5.89,0,0,1-1.47.884,4.774,4.774,0,0,1-1.853.335,3.636,3.636,0,0,1-2.1-.574,2,2,0,0,1-.837-1.77,1.9,1.9,0,0,1,.682-1.59,2.992,2.992,0,0,1,1.9-.538h2.678q1.316,0,1.316-1.2v-3.637H776.8v10.52q0,1.075.526,1.4a3.079,3.079,0,0,0,1.579.325,8.625,8.625,0,0,0,1.052-.071,4.117,4.117,0,0,0,.766-.143V715.138h2.152a2.291,2.291,0,0,0,.2-.657,4.143,4.143,0,0,0,.084-.753A1.837,1.837,0,0,0,782.914,712.675ZM748.047,724.2a7.806,7.806,0,0,1-2.212.287,5.732,5.732,0,0,1-2.857-.55,1.634,1.634,0,0,1-.92-1.435,1.428,1.428,0,0,1,.406-1.039,1.591,1.591,0,0,1,1.2-.419h.957a1.891,1.891,0,0,0,.311-.621,2.9,2.9,0,0,0,.12-.861,2.981,2.981,0,0,0-.12-.884,2.231,2.231,0,0,0-.311-.646h-1.435a1.4,1.4,0,0,1-1.016-.383,1.337,1.337,0,0,1-.394-1,1.494,1.494,0,0,1,1.028-1.507h6.074v1.316a3.631,3.631,0,0,0-1.948,1.183,3.225,3.225,0,0,0-.729,2.143,3.53,3.53,0,0,0,.275,1.423,3.4,3.4,0,0,0,.753,1.1,3.855,3.855,0,0,0,1.112.753,4.794,4.794,0,0,0,1.351.382,5.462,5.462,0,0,1-1.64.758Zm2.929-2.918a2.144,2.144,0,0,1-1.088-.526,1.25,1.25,0,0,1-.395-.933.917.917,0,0,1,.227-.693.785.785,0,0,1,.563-.215.747.747,0,0,1,.6.286,1.325,1.325,0,0,1,.24.861,4.639,4.639,0,0,1-.144,1.223Z" transform="translate(-735.689 -705.858)"/><g transform="translate(2.311 20.22)"><g transform="translate(0 0)"><path class="a" d="M749.393,765.563h-4.031a1.049,1.049,0,0,1-1.049-1.049V747.176H740.3a1.049,1.049,0,0,1-1.049-1.049v-3.093a1.049,1.049,0,0,1,1.049-1.049h14.164a1.049,1.049,0,0,1,1.049,1.049v3.094a1.049,1.049,0,0,1-1.049,1.049h-4.018v17.338A1.049,1.049,0,0,1,749.393,765.563Z" transform="translate(-739.247 -739.606)"/><path class="a" d="M770.558,756.092h.065a5.574,5.574,0,0,1,5.191-2.846h.606a.489.489,0,0,1,.488.489v4.231a.494.494,0,0,1-.666.455,5.316,5.316,0,0,0-1.742-.235c-3.159,0-3.94,2.1-3.94,4.847v5.985a.489.489,0,0,1-.488.489h-4.714a.489.489,0,0,1-.489-.489V753.952a.489.489,0,0,1,.489-.488h4.714a.488.488,0,0,1,.488.488Z" transform="translate(-748.231 -743.552)"/><path class="a" d="M803.022,769.343h-4.539a.576.576,0,0,1-.576-.576V767.56h-.065a5.633,5.633,0,0,1-4.847,2.314c-4.753,0-8.1-3.971-8.1-8.568s3.284-8.537,8.037-8.537a6.545,6.545,0,0,1,4.974,2.1v-.987a.576.576,0,0,1,.576-.576h4.539a.576.576,0,0,1,.576.576v14.89A.576.576,0,0,1,803.022,769.343Zm-12.245-8.006a3.659,3.659,0,1,0,3.659-3.659,3.659,3.659,0,0,0-3.659,3.659Z" transform="translate(-755.521 -743.387)"/><path class="a" d="M830.469,757.244a.711.711,0,0,1-1.012.649,4.287,4.287,0,0,0-1.927-.495,3.852,3.852,0,0,0-3.909,3.909,3.809,3.809,0,0,0,4,3.94,4.384,4.384,0,0,0,1.848-.431.709.709,0,0,1,1,.655v3.037a.71.71,0,0,1-.418.655,9.046,9.046,0,0,1-3.585.714,8.459,8.459,0,0,1-8.725-8.38c0-5.16,3.94-8.725,8.975-8.725a7.865,7.865,0,0,1,3.362.737.706.706,0,0,1,.39.642Z" transform="translate(-767.208 -743.388)"/><path class="a" d="M849.332,753.179l4.9-4.8a.507.507,0,0,1,.353-.144h6.287a.505.505,0,0,1,.343.877l-6.7,6.18a.505.505,0,0,0-.017.727l7.319,7.4a.506.506,0,0,1-.36.861h-6.547a.5.5,0,0,1-.365-.157l-5.2-5.463a.505.505,0,0,0-.871.348v4.767a.505.505,0,0,1-.505.505h-4.681a.505.505,0,0,1-.505-.505V738.827a.506.506,0,0,1,.505-.505h4.681a.505.505,0,0,1,.505.505v13.992a.505.505,0,0,0,.859.36Z" transform="translate(-776.16 -738.322)"/><path class="a" d="M881.645,741.513a3.2,3.2,0,0,1-3.939,3.938,3.192,3.192,0,1,1,3.938-3.938Zm-1.108,23.069h-3.93a.881.881,0,0,1-.88-.881V749.242a.7.7,0,0,1,.705-.7h4.5a.489.489,0,0,1,.489.489V763.7a.881.881,0,0,1-.883.877Z" transform="translate(-787.702 -738.625)"/><path class="a" d="M896.148,755.365h.065a5.551,5.551,0,0,1,5.13-2.6c4.315,0,6.035,2.721,6.035,6.661V769a.34.34,0,0,1-.34.34h-5.01a.34.34,0,0,1-.34-.34v-7.476c0-1.532.25-4.221-2.564-4.221-2.314,0-2.971,1.72-2.971,3.721V769a.341.341,0,0,1-.341.34H890.8a.341.341,0,0,1-.34-.34V753.641a.34.34,0,0,1,.34-.34h5.013a.341.341,0,0,1,.341.34Z" transform="translate(-793.141 -743.387)"/><path class="a" d="M939.3,767.775c0,6.818-3.377,9.569-9.286,9.569-3.535,0-8.219-1.753-9.046-5.609a.425.425,0,0,1,.411-.519h5.6a.429.429,0,0,1,.384.268,2.038,2.038,0,0,0,.965.951,3.761,3.761,0,0,0,1.624.375c3.065,0,3.659-2,3.659-4.6v-.753a6.674,6.674,0,0,1-5.1,2.189c-4.691,0-7.911-3.565-7.911-8.193,0-4.691,3.312-8.693,8.224-8.693a5.478,5.478,0,0,1,4.722,2.22h.065v-1.268a.42.42,0,0,1,.42-.42h4.851a.42.42,0,0,1,.42.42Zm-12.822-6.567a3.659,3.659,0,1,0,3.659-3.659A3.658,3.658,0,0,0,926.481,761.207Z" transform="translate(-803.901 -743.382)"/></g></g></g></g></svg>