<svg xmlns="http://www.w3.org/2000/svg" viewBox="0 0 31 31"><defs><style>.cls-1{fill:#5acaf8;}.cls-2{fill:none;stroke:#5acaf8;stroke-miterlimit:10;}</style></defs><title>message1</title><g id="Layer_2" data-name="Layer 2"><g id="specctr"><path class="cls-1" d="M21.53,9.42H9.47a2,2,0,0,0-2,2v8.24a2,2,0,0,0,2,2H21.53a2,2,0,0,0,1.95-2V11.38A2,2,0,0,0,21.53,9.42Zm1.07,10.2a1.06,1.06,0,0,1-1.07,1.06H9.47a1.05,1.05,0,0,1-1.06-1.06V11.38a1.06,1.06,0,0,1,1.06-1.06H21.53a1.06,1.06,0,0,1,1.06,1.06v8.24Z"/><path class="cls-1" d="M17.59,15.4l3.9-3.5a.45.45,0,0,0-.6-.67l-5.38,4.83-1-.93h0l-.07-.07L10.1,11.23a.44.44,0,0,0-.63,0,.46.46,0,0,0,0,.64l4,3.53L9.52,19.11a.45.45,0,0,0,0,.63.43.43,0,0,0,.32.14.51.51,0,0,0,.31-.11l4-3.74,1.08,1a.5.5,0,0,0,.3.11.42.42,0,0,0,.3-.12l1.11-1,4,3.77a.47.47,0,0,0,.31.12.43.43,0,0,0,.32-.14.44.44,0,0,0,0-.63Z"/><circle class="cls-2" cx="15.5" cy="15.5" r="15"/></g></g></svg>