<svg height="45.716" viewBox="0 0 153.041 45.716" width="153.041" xmlns="http://www.w3.org/2000/svg"><g fill="#fff"><path d="m65.533 56.019c-1.2-1.238-2.35-2.446-3.522-3.635-2.519-2.556-5.174-4.992-7.549-7.675a14.868 14.868 0 1 1 25.945-11.45 14.554 14.554 0 0 1 -4.379 12.31c-3.318 3.364-6.679 6.687-10.021 10.028-.107.103-.216.193-.474.422zm.045-8.348a12.647 12.647 0 1 0 -12.611-12.671 12.655 12.655 0 0 0 12.611 12.67z" transform="translate(-50.71 -16.467)"/><path d="m76.372 33.959h-2.132v1.425h2.105a10.885 10.885 0 0 1 -10.3 10.366v-2.115h-1.488v2.1c-4.887.029-10.133-4.463-10.347-10.28h2.125v-1.466h-2.075c-.064-4.847 4.4-10.139 10.252-10.378v2.126h1.488v-2.043c4.679-.194 10.206 4.361 10.372 10.265zm-6.165 6.01c.8.1.839-.4.833-.994-.012-1.5 0-3.005.036-4.508a1.617 1.617 0 0 1 .246-.774c.306-.5.351-2.013-.06-2.253a1 1 0 0 1 -.472-.968 2.1 2.1 0 0 0 -1.769-2.155 17.725 17.725 0 0 0 -7.285-.108c-1.515.3-1.855.781-1.982 2.333-.019.232-.014.582-.152.669-.943.6-.669 1.566-.416 2.211a5.576 5.576 0 0 1 .293 1.939c.045 1.162.1 2.325.1 3.487 0 .745.139 1.273 1.058 1.093.194.594-.2 1.5.832 1.54 1.1.04.821-.89.938-1.506h6.023c.084.653-.144 1.53.9 1.5.975-.017.812-.828.877-1.506z" transform="translate(-50.389 -16.136)"/><path d="m60.528 30.073h8.244v4.271h-8.244z" transform="translate(-49.807 -15.542)"/><path d="m67.635 28.735v.835h-6.107v-.835z" transform="translate(-49.715 -15.665)"/><path d="m61.655 35.975c.513.09.854.34.824.913a.783.783 0 0 1 -.912.809.792.792 0 0 1 -.807-.857c.009-.54.359-.815.895-.865z" transform="translate(-49.786 -14.999)"/><path d="m67.133 37.7a.807.807 0 0 1 -.8-.893.858.858 0 0 1 1.716.034.824.824 0 0 1 -.916.859z" transform="translate(-49.273 -14.997)"/><path d="m775.534 711.609a.79.79 0 0 0 -.7-.3h-1.553a12.265 12.265 0 0 0 -.939-1.968 10.494 10.494 0 0 0 -1.271-1.746 6.908 6.908 0 0 0 -1.483-1.251 3.013 3.013 0 0 0 -1.594-.484 1.839 1.839 0 0 0 -.827.172 1.687 1.687 0 0 0 -.575.464 1.961 1.961 0 0 0 -.343.666 2.712 2.712 0 0 0 -.109.776v.2a1.051 1.051 0 0 0 .02.2 8.018 8.018 0 0 1 1.079.414 9.511 9.511 0 0 1 1.191.657 8.2 8.2 0 0 1 1.12.868 5.728 5.728 0 0 1 .888 1.029h-14.062a12.206 12.206 0 0 0 -.938-1.968 10.538 10.538 0 0 0 -1.271-1.746 6.921 6.921 0 0 0 -1.483-1.251 3.014 3.014 0 0 0 -1.594-.484 1.838 1.838 0 0 0 -.827.172 1.7 1.7 0 0 0 -.575.464 1.98 1.98 0 0 0 -.343.666 2.731 2.731 0 0 0 -.11.776v.2a1.056 1.056 0 0 0 .02.2 8 8 0 0 1 1.08.414 9.458 9.458 0 0 1 1.19.657 8.134 8.134 0 0 1 1.12.868 5.7 5.7 0 0 1 .888 1.029h-17.619a1.756 1.756 0 0 0 -.162.545 3.787 3.787 0 0 0 -.06.6 1.706 1.706 0 0 0 .2.918.774.774 0 0 0 .706.313h1.453a2.061 2.061 0 0 0 -.454.615 1.95 1.95 0 0 0 -.172.858 2.072 2.072 0 0 0 .535 1.453 2.8 2.8 0 0 0 1.443.807 2.622 2.622 0 0 0 -1.312 1.06 3.057 3.057 0 0 0 -.444 1.644 3.155 3.155 0 0 0 .454 1.674 3.976 3.976 0 0 0 1.291 1.282 6.561 6.561 0 0 0 2.038.817 11.774 11.774 0 0 0 2.694.283 10.19 10.19 0 0 0 3.41-.5 6.393 6.393 0 0 0 2.3-1.352 5.083 5.083 0 0 0 1.291-1.957 6.755 6.755 0 0 0 .4-2.32 3.59 3.59 0 0 0 -.424-1.746 2.864 2.864 0 0 0 -1.271-1.2v-1.412h3.632v8.876q0 .907.444 1.18a2.594 2.594 0 0 0 1.332.274 7.243 7.243 0 0 0 .888-.06 3.474 3.474 0 0 0 .646-.121v-10.146h7.586v1.534h-.658a6.238 6.238 0 0 0 -2.118.333 4.54 4.54 0 0 0 -1.564.918 3.807 3.807 0 0 0 -.959 1.37 4.421 4.421 0 0 0 -.323 1.7 4.2 4.2 0 0 0 1.493 3.43 6.632 6.632 0 0 0 4.318 1.231 7.863 7.863 0 0 0 1.655-.161 4.675 4.675 0 0 0 1.26-.444 2.4 2.4 0 0 0 .8-.665 1.4 1.4 0 0 0 .282-.848 1.622 1.622 0 0 0 -.312-.986 1.592 1.592 0 0 0 -.818-.585 4.97 4.97 0 0 1 -1.24.746 4.028 4.028 0 0 1 -1.564.283 3.068 3.068 0 0 1 -1.776-.484 1.685 1.685 0 0 1 -.706-1.494 1.605 1.605 0 0 1 .575-1.341 2.525 2.525 0 0 1 1.6-.454h2.26q1.111 0 1.11-1.009v-3.068h2.705v8.876q0 .907.444 1.18a2.6 2.6 0 0 0 1.332.274 7.279 7.279 0 0 0 .888-.06 3.473 3.473 0 0 0 .646-.121v-10.155h1.812a1.932 1.932 0 0 0 .172-.555 3.5 3.5 0 0 0 .071-.636 1.55 1.55 0 0 0 -.209-.888zm-29.418 9.723a6.586 6.586 0 0 1 -1.866.242 4.836 4.836 0 0 1 -2.411-.464 1.378 1.378 0 0 1 -.776-1.211 1.2 1.2 0 0 1 .343-.877 1.342 1.342 0 0 1 1.009-.353h.807a1.6 1.6 0 0 0 .263-.524 2.445 2.445 0 0 0 .1-.727 2.515 2.515 0 0 0 -.1-.746 1.883 1.883 0 0 0 -.262-.545h-1.211a1.179 1.179 0 0 1 -.857-.323 1.128 1.128 0 0 1 -.333-.848 1.26 1.26 0 0 1 .867-1.271h5.125v1.11a3.064 3.064 0 0 0 -1.644 1 2.722 2.722 0 0 0 -.615 1.808 2.978 2.978 0 0 0 .232 1.2 2.871 2.871 0 0 0 .636.931 3.253 3.253 0 0 0 .938.636 4.048 4.048 0 0 0 1.14.323 4.61 4.61 0 0 1 -1.384.64zm2.472-2.462a1.808 1.808 0 0 1 -.918-.444 1.054 1.054 0 0 1 -.333-.787.774.774 0 0 1 .192-.585.662.662 0 0 1 .475-.181.63.63 0 0 1 .5.242 1.118 1.118 0 0 1 .2.727 3.909 3.909 0 0 1 -.122 1.032z" transform="translate(-698.841 -705.858)"/><path d="m747.808 761.878h-3.4a.885.885 0 0 1 -.885-.885v-14.628h-3.389a.885.885 0 0 1 -.885-.885v-2.61a.885.885 0 0 1 .885-.885h11.95a.885.885 0 0 1 .885.885v2.611a.885.885 0 0 1 -.885.885h-3.39v14.629a.885.885 0 0 1 -.886.883z" transform="translate(-700.449 -722.918)"/><path d="m769.669 755.646h.055a4.7 4.7 0 0 1 4.38-2.4h.511a.412.412 0 0 1 .412.413v3.57a.416.416 0 0 1 -.562.384 4.486 4.486 0 0 0 -1.469-.2c-2.665 0-3.325 1.768-3.325 4.09v5.049a.413.413 0 0 1 -.412.413h-3.977a.413.413 0 0 1 -.413-.413v-12.712a.413.413 0 0 1 .413-.412h3.977a.412.412 0 0 1 .412.412z" transform="translate(-712.033 -728.005)"/><path d="m800.189 766.753h-3.83a.486.486 0 0 1 -.486-.486v-1.018h-.055a4.752 4.752 0 0 1 -4.09 1.952 7.229 7.229 0 0 1 -.053-14.432 5.522 5.522 0 0 1 4.2 1.77v-.833a.486.486 0 0 1 .486-.486h3.83a.486.486 0 0 1 .486.486v12.564a.486.486 0 0 1 -.488.483zm-10.332-6.753a3.087 3.087 0 1 0 3.087-3.088 3.087 3.087 0 0 0 -3.087 3.088z" transform="translate(-721.313 -727.792)"/><path d="m828.48 756.545a.6.6 0 0 1 -.854.548 3.616 3.616 0 0 0 -1.626-.418 3.25 3.25 0 0 0 -3.3 3.3 3.214 3.214 0 0 0 3.377 3.324 3.7 3.7 0 0 0 1.559-.363.6.6 0 0 1 .842.553v2.562a.6.6 0 0 1 -.352.552 7.632 7.632 0 0 1 -3.025.6 7.137 7.137 0 0 1 -7.362-7.071 7.253 7.253 0 0 1 7.573-7.362 6.636 6.636 0 0 1 2.836.622.6.6 0 0 1 .329.541z" transform="translate(-736.307 -727.795)"/><path d="m848.309 750.857 4.138-4.05a.427.427 0 0 1 .3-.122h5.3a.426.426 0 0 1 .289.74l-5.654 5.214a.426.426 0 0 0 -.014.613l6.175 6.242a.427.427 0 0 1 -.3.727h-5.524a.424.424 0 0 1 -.308-.133l-4.39-4.61a.426.426 0 0 0 -.735.294v4.022a.426.426 0 0 1 -.426.426h-3.949a.426.426 0 0 1 -.426-.426v-21.046a.427.427 0 0 1 .426-.426h3.949a.426.426 0 0 1 .426.426v11.805a.426.426 0 0 0 .725.3z" transform="translate(-747.773 -721.262)"/><path d="m880.665 741.15a2.7 2.7 0 0 1 -3.324 3.323 2.693 2.693 0 1 1 3.322-3.323zm-.935 19.464h-3.316a.743.743 0 0 1 -.743-.743v-12.2a.592.592 0 0 1 .6-.593h3.8a.413.413 0 0 1 .413.413v12.383a.743.743 0 0 1 -.745.74z" transform="translate(-762.604 -721.653)"/><path d="m895.258 754.959h.055a4.684 4.684 0 0 1 4.328-2.192c3.641 0 5.092 2.3 5.092 5.62v8.077a.287.287 0 0 1 -.287.287h-4.228a.287.287 0 0 1 -.287-.287v-6.308c0-1.293.211-3.561-2.164-3.561-1.953 0-2.507 1.451-2.507 3.139v6.732a.288.288 0 0 1 -.288.287h-4.231a.288.288 0 0 1 -.287-.287v-12.966a.287.287 0 0 1 .287-.287h4.23a.288.288 0 0 1 .288.287z" transform="translate(-769.549 -727.792)"/><path d="m936.38 765.427c0 5.753-2.849 8.074-7.835 8.074-2.983 0-6.934-1.479-7.632-4.733a.359.359 0 0 1 .347-.438h4.722a.362.362 0 0 1 .324.226 1.72 1.72 0 0 0 .814.8 3.174 3.174 0 0 0 1.37.317c2.586 0 3.087-1.689 3.087-3.879v-.636a5.631 5.631 0 0 1 -4.3 1.847 6.579 6.579 0 0 1 -6.677-6.905c0-3.958 2.794-7.335 6.939-7.335a4.622 4.622 0 0 1 3.984 1.873h.055v-1.07a.354.354 0 0 1 .354-.354h4.093a.354.354 0 0 1 .354.354zm-10.818-5.541a3.087 3.087 0 1 0 3.087-3.087 3.087 3.087 0 0 0 -3.087 3.087z" transform="translate(-783.339 -727.786)"/></g></svg>