<svg xmlns="http://www.w3.org/2000/svg" width="15.588" height="18.785" viewBox="0 0 15.588 18.785"><defs><style>.a{fill:#499e43;}</style></defs><g transform="translate(2.495 8.349)"><rect class="a" width="7.486" height="0.696"/></g><g transform="translate(2.495 10.436)"><path class="a" d="M1343.224,236.538v.7h6.071l.624-.7Z" transform="translate(-1343.224 -236.538)"/></g><g transform="translate(2.495 12.524)"><path class="a" d="M1343.224,238.483v.7h4.2l.624-.7Z" transform="translate(-1343.224 -238.483)"/></g><g transform="translate(2.495 14.611)"><rect class="a" width="3.119" height="0.696"/></g><path class="a" d="M1356.3,234.255l-.882-.984a.58.58,0,0,0-.882,0l-6.778,7.561v1.986c1.5,0,1.122,0,1.751,0,.326-.363,1.763-1.965,3.239-3.613v5.008a.662.662,0,0,1-.624.7h-9.981a.663.663,0,0,1-.625-.7V231.685a.663.663,0,0,1,.625-.7h1.247v1.392h7.486v-1.392h1.247a.662.662,0,0,1,.624.7v2.585l.625-.7v-1.884a1.326,1.326,0,0,0-1.248-1.391h-1.356a1.978,1.978,0,0,0-1.245-1.311.913.913,0,0,1-.591-.659,1.827,1.827,0,0,0-3.6,0,.913.913,0,0,1-.591.659,1.979,1.979,0,0,0-1.245,1.311h-1.354a1.326,1.326,0,0,0-1.248,1.391v12.525a1.326,1.326,0,0,0,1.248,1.391h9.981a1.326,1.326,0,0,0,1.248-1.391v-5.7l2.928-3.266A.754.754,0,0,0,1356.3,234.255Zm-12.286-3.277a1.387,1.387,0,0,1,.9-1.327,1.574,1.574,0,0,0,1.019-1.136,1.218,1.218,0,0,1,2.4,0,1.572,1.572,0,0,0,1.018,1.136,1.385,1.385,0,0,1,.9,1.337v.7h-6.238Zm5.235,11.142h-.452l-.415-.464v-.538l.42-.469.882.984Zm.876-.978-.882-.983,3.97-4.429.882.984Zm4.411-4.919-.882-.984.441-.493.882.984Zm.882-.984-.882-.984.441-.492.882.984Z" transform="translate(-1340.899 -226.815)"/><g transform="translate(5.78 1.565)"><ellipse class="a" cx="0.468" cy="0.522" rx="0.468" ry="0.522"/></g></svg>