<svg xmlns="http://www.w3.org/2000/svg" width="16.591" height="17.15" viewBox="0 0 16.591 17.15">
  <g id="Group_34" data-name="Group 34" transform="translate(0 0)">
    <path id="Path_29" data-name="Path 29" d="M1406.547,175.183V179.1h-11.984v-3.918h-2.3v5.069a1.151,1.151,0,0,0,1.154,1.151H1407.7a1.152,1.152,0,0,0,1.154-1.151v-5.069Z" transform="translate(-1392.26 -164.253)" fill="#9e0811"/>
    <path id="Path_30" data-name="Path 30" d="M1400.032,175.541l-3.3-3.984s-.5-.474.042-.474h1.859v-5.8s-.074-.282.351-.282h2.616c.307,0,.3.238.3.238v5.725h1.715c.66,0,.163.5.163.5s-2.806,3.724-3.2,4.115A.366.366,0,0,1,1400.032,175.541Z" transform="translate(-1391.947 -165)" fill="#9e0811"/>
  </g>
</svg>
