<svg xmlns="http://www.w3.org/2000/svg" width="26.089" height="23.339" viewBox="0 0 26.089 23.339">
  <g id="Group_964" data-name="Group 964" transform="translate(1098 -2750.75)">
    <g id="Group_963" data-name="Group 963" transform="translate(-25 -1)">
      <path id="Path_452" data-name="Path 452" d="M17.5,24A6.5,6.5,0,1,1,24,17.5,6.508,6.508,0,0,1,17.5,24Zm0-12A5.5,5.5,0,1,0,23,17.5,5.507,5.507,0,0,0,17.5,12Z" transform="translate(-1074 2741)" fill="#999" stroke="#999" stroke-width="0.5"/>
      <path id="Path_453" data-name="Path 453" d="M15.379,20.121a.5.5,0,0,1-.354-.853l4.242-4.242a.5.5,0,0,1,.707.707l-4.242,4.242a.5.5,0,0,1-.353.146Z" transform="translate(-1074 2741)" fill="#999" stroke="#999" stroke-width="0.5"/>
      <path id="Path_454" data-name="Path 454" d="M19.621,20.121a.5.5,0,0,1-.354-.146l-4.242-4.242a.5.5,0,1,1,.707-.707l4.242,4.242a.5.5,0,0,1-.353.853Z" transform="translate(-1074 2741)" fill="#999" stroke="#999" stroke-width="0.5"/>
    </g>
    <g id="gps" transform="translate(-1098 2748)" opacity="0.5">
      <path id="Path_230" data-name="Path 230" d="M23.21,18.006H9.038a1.3,1.3,0,0,1,0-2.606c1.053-.1,1.154-1.529,0-1.529a2.832,2.832,0,0,0,0,5.663H23.21a1.352,1.352,0,0,1,0,2.7H6.07a3.085,3.085,0,1,0,0,1.529H23.21a2.881,2.881,0,0,0,0-5.762ZM3.083,24.56A1.557,1.557,0,1,1,4.637,23,1.557,1.557,0,0,1,3.083,24.56Z" transform="translate(0 0)" fill="#515151"/>
    </g>
  </g>
</svg>
