<svg xmlns="http://www.w3.org/2000/svg" width="26.587" height="21.176" viewBox="0 0 26.587 21.176"><defs><style>.a{fill:#fff;stroke:#fff;stroke-width:0.5px;}</style></defs><g transform="translate(2649.947 -5471.998)"><g transform="translate(-2649.697 5472.305)"><path class="a" d="M34.071,19.128a1.1,1.1,0,0,0-1.1-1.1H17.114A4.4,4.4,0,0,0,9,20.4,4.973,4.973,0,0,0,10.355,23.8V35.219a1.1,1.1,0,0,0,1.1,1.1H32.97a1.1,1.1,0,0,0,1.1-1.1v-4.7a4.973,4.973,0,0,0,1.016-3.007A4.384,4.384,0,0,0,34.071,24.7Zm-.678,0v4.916a4.4,4.4,0,0,0-4.4-.6V18.7H32.97A.424.424,0,0,1,33.394,19.128ZM28.312,18.7v5.1a4.439,4.439,0,0,0-1.355,1.365V18.7Zm5.082,12.542v4.4H18.486V29.884h8.4a4.952,4.952,0,0,0,1,1.284l2.567,2.353a.339.339,0,0,0,.458,0ZM18.147,29.206a.339.339,0,0,0-.339.339v6.1H16.453v-6.1a.339.339,0,0,0-.339-.339H11.033V27.851H26.291a4.962,4.962,0,0,0,.288,1.355Zm-7.114,6.437V29.884h4.743v5.759ZM26.279,18.7v8.469H11.033V24.443l2.142,1.964a.339.339,0,0,0,.458,0L16.2,24.054A4.971,4.971,0,0,0,17.808,20.4a4.38,4.38,0,0,0-.339-1.694ZM13.4,16.672A3.731,3.731,0,0,1,17.131,20.4a4.292,4.292,0,0,1-1.388,3.156L13.4,25.7l-2.338-2.143c-.045-.041-.088-.083-.131-.126l0,0A4.293,4.293,0,0,1,9.678,20.4,3.731,3.731,0,0,1,13.4,16.672Zm19.99,19.9c0,.234-.19-.932-.423-.932H11.456c-.234,0-.423,1.165-.423.932V36.32H33.394Zm-.372-5.906-2.338,2.143-2.338-2.143a4.292,4.292,0,0,1-1.389-3.156,3.726,3.726,0,0,1,7.453,0A4.292,4.292,0,0,1,33.021,30.669Z" transform="translate(-9 -15.994)"/></g><path class="a" d="M309.524,40.182a.3.3,0,0,0,.2-.373.288.288,0,0,0-.357-.209,1.5,1.5,0,0,1-.422.06,1.627,1.627,0,1,1,1.557-1.625,1.676,1.676,0,0,1-.223.839.31.31,0,0,0,.1.415.283.283,0,0,0,.4-.1,2.3,2.3,0,0,0,.307-1.152,2.138,2.138,0,1,0-2.136,2.23A2.051,2.051,0,0,0,309.524,40.182Zm0,0" transform="translate(-2954.279 5438.666)"/><path class="a" d="M2.689,4.375A.305.305,0,0,0,2.888,4a.285.285,0,0,0-.354-.209,1.478,1.478,0,0,1-.419.061A1.584,1.584,0,0,1,.572,2.23,1.592,1.592,0,0,1,2.119.6,1.584,1.584,0,0,1,3.662,2.226a1.689,1.689,0,0,1-.222.839.311.311,0,0,0,.1.415.28.28,0,0,0,.395-.1,2.319,2.319,0,0,0,.305-1.152A2.174,2.174,0,0,0,2.119,0,2.185,2.185,0,0,0,0,2.23,2.174,2.174,0,0,0,2.115,4.458,2.021,2.021,0,0,0,2.689,4.375Zm0,0" transform="matrix(-1, 0.017, -0.017, -1, -2643.198, 5478.894)"/><path class="a" d="M309.312,39.736a.272.272,0,0,0,.185-.335.266.266,0,0,0-.329-.188,1.415,1.415,0,0,1-.389.054,1.46,1.46,0,1,1,1.435-1.46,1.475,1.475,0,0,1-.206.754.274.274,0,0,0,.09.373.265.265,0,0,0,.367-.092,2.026,2.026,0,0,0,.283-1.035,1.97,1.97,0,1,0-1.97,2A1.938,1.938,0,0,0,309.312,39.736Zm0,0" transform="translate(-2936.728 5446.12)"/><path class="a" d="M2.481,3.936A.273.273,0,0,0,2.665,3.6a.264.264,0,0,0-.327-.188,1.4,1.4,0,0,1-.386.054A1.444,1.444,0,0,1,.528,2.005,1.448,1.448,0,0,1,1.954.542,1.444,1.444,0,0,1,3.378,2a1.489,1.489,0,0,1-.2.755.276.276,0,0,0,.089.374.262.262,0,0,0,.364-.092A2.045,2.045,0,0,0,3.908,2,1.981,1.981,0,0,0,1.954,0,1.987,1.987,0,0,0,0,2.005,1.981,1.981,0,0,0,1.952,4.011,1.908,1.908,0,0,0,2.481,3.936Zm0,0" transform="matrix(-1, 0.017, -0.017, -1, -2625.981, 5485.899)"/></g></svg>