<svg xmlns="http://www.w3.org/2000/svg" width="16" height="17" viewBox="0 0 16 17"><defs><style>.a{opacity:0.5;}.b{fill-rule:evenodd;}</style></defs><g class="a"><path class="b" d="M74.913,84.35l.113-1.843L74.1,81.488l-1.693.146L69,85.368l2.482,2.716Zm6.748,2.11a6.155,6.155,0,0,1-4.468,1.964V90A7.594,7.594,0,0,0,82.7,87.575,8.491,8.491,0,0,0,85,81.73H83.511A6.929,6.929,0,0,1,81.66,86.459ZM79.2,84.107a3.134,3.134,0,0,1-2.3,1.019v1.552A4.56,4.56,0,0,0,80.216,85.2a5.21,5.21,0,0,0,1.377-3.565H80.148A3.626,3.626,0,0,1,79.2,84.107Zm-2.437-5.529.948,1.019,1.67-.146,3.43-3.735L80.329,73,76.9,76.735Zm-3.114,1.6,2.6,2.789,1.918-2.037-2.6-2.789Z" transform="translate(-69 -73)"/></g></svg>