<svg xmlns="http://www.w3.org/2000/svg" width="13" height="17" viewBox="0 0 13 17"><defs><style>.a{opacity:0.5;}</style></defs><g class="a"><g transform="translate(4.549 2.842)"><g transform="translate(0)"><path d="M200.893,86.323a1.955,1.955,0,1,0,1.956,1.955A1.958,1.958,0,0,0,200.893,86.323Zm0,2.8a.849.849,0,1,1,.849-.849A.849.849,0,0,1,200.893,89.127Z" transform="translate(-198.938 -86.323)"/></g></g><g transform="translate(2.445 1.789)"><g transform="translate(0)"><path d="M135.949,53.278a.553.553,0,0,0-.783-.783,4.185,4.185,0,0,0,0,5.911.553.553,0,1,0,.783-.783A3.077,3.077,0,0,1,135.949,53.278Z" transform="translate(-133.945 -52.334)"/></g></g><g transform="translate(8.396 1.79)"><path d="M315.877,52.5a.553.553,0,1,0-.783.783,3.065,3.065,0,0,1,0,4.346.553.553,0,1,0,.783.783,4.172,4.172,0,0,0,0-5.911Z" transform="translate(-314.933 -52.336)"/></g><g transform="translate(0 0)"><path d="M60.717,4.918A5.583,5.583,0,0,1,62.367.946a.553.553,0,0,0-.783-.783,6.71,6.71,0,0,0,0,9.508.553.553,0,0,0,.783-.783A5.583,5.583,0,0,1,60.717,4.918Z" transform="translate(-59.61 -0.002)"/></g><g transform="translate(10.089 0)"><g transform="translate(0)"><path d="M368.209.162a.553.553,0,1,0-.783.783,5.623,5.623,0,0,1,0,7.943.553.553,0,1,0,.783.782A6.731,6.731,0,0,0,368.209.162Z" transform="translate(-367.265 0)"/></g></g><g transform="translate(4.233 8.976)"><g transform="translate(0 0)"><rect width="1.107" height="8.192" transform="matrix(0.714, -0.7, 0.7, 0.714, 0, 0.775)"/></g></g><g transform="translate(2.246 8.975)"><g transform="translate(0 0)"><rect width="8.206" height="1.107" transform="matrix(0.701, -0.713, 0.713, 0.701, 0, 5.848)"/></g></g><g transform="translate(6.252 5.175)"><g transform="translate(0)"><path d="M259.971,177.251l-3.856-10.718a.553.553,0,0,0-1.042.375l3.856,10.718a.553.553,0,1,0,1.042-.375Z" transform="translate(-255.041 -166.167)"/></g></g><g transform="translate(1.794 5.175)"><g transform="translate(0)"><path d="M116.685,166.2a.554.554,0,0,0-.709.332L112.1,177.247a.553.553,0,1,0,1.041.376l3.874-10.718A.553.553,0,0,0,116.685,166.2Z" transform="translate(-112.069 -166.164)"/></g></g></g></svg>