<svg xmlns="http://www.w3.org/2000/svg" width="19.144" height="24.432" viewBox="0 0 19.144 24.432">
  <g id="start-point" transform="translate(1030.858 -3375.248)">
    <path id="Path_45" data-name="Path 45" d="M836.2,643.452a8.676,8.676,0,1,0-14.492,9.487c1.006,1.349,2.08,2.648,3.126,3.966,1.256,1.581,2.516,3.159,3.81,4.782a2.392,2.392,0,0,0,.188-.179c2.273-2.862,4.579-5.7,6.8-8.594a8.514,8.514,0,0,0,.564-9.463Z" transform="translate(-1849.993 2736.917)" fill="none" stroke="#878787" stroke-linecap="round" stroke-linejoin="round" stroke-width="1.5"/>
    <path id="Path_46" data-name="Path 46" d="M829.67,650.84a1.092,1.092,0,0,1,.981-.566.593.593,0,0,0,.659-.66,1.09,1.09,0,0,1,.566-.979.591.591,0,0,0,.241-.9,1.092,1.092,0,0,1,0-1.132.589.589,0,0,0-.241-.9,1.094,1.094,0,0,1-.565-.983.592.592,0,0,0-.659-.657,1.094,1.094,0,0,1-.981-.567.59.59,0,0,0-.9-.241,1.093,1.093,0,0,1-1.133,0,.59.59,0,0,0-.9.241,1.092,1.092,0,0,1-.981.567.591.591,0,0,0-.658.657,1.1,1.1,0,0,1-.566.983.589.589,0,0,0-.241.9,1.089,1.089,0,0,1,0,1.132.59.59,0,0,0,.241.9,1.091,1.091,0,0,1,.566.979.592.592,0,0,0,.658.66,1.092,1.092,0,0,1,.981.566.589.589,0,0,0,.9.24,1.1,1.1,0,0,1,1.133,0,.59.59,0,0,0,.9-.24Zm-1.463-1.3a2.369,2.369,0,1,1,2.369-2.37,2.369,2.369,0,0,1-2.369,2.37Z" transform="translate(-1849.52 2737.448)" fill="#878787"/>
  </g>
</svg>
