<svg xmlns="http://www.w3.org/2000/svg" width="36.716" height="47.4" viewBox="0 0 36.716 47.4">
  <g id="Start-point-selected" transform="translate(-3295.292 -10075.991)">
    <g id="Yesterday-no-shift" transform="translate(3296 10076.496)">
      <path id="Path_45" data-name="Path 45" d="M853.1,648.009A17.725,17.725,0,1,0,823.5,667.391c2.056,2.756,4.249,5.409,6.387,8.1,2.566,3.231,5.141,6.454,7.783,9.77a4.882,4.882,0,0,0,.384-.366c4.643-5.847,9.355-11.638,13.9-17.557a17.392,17.392,0,0,0,1.153-19.332Z" transform="translate(-819.993 -639.083)" fill="#e38820" stroke="#fff" stroke-width="1"/>
    </g>
    <path id="Exclusion_1" data-name="Exclusion 1" d="M12,24A12,12,0,0,1,3.515,3.515,12,12,0,1,1,20.485,20.485,11.922,11.922,0,0,1,12,24Zm.117-6.782h0l5.469,2.873L16.545,14l4.416-4.306L14.845,8.8,12.114,3.273,9.383,8.8l-6.11.895L7.689,14l-1.041,6.09,5.469-2.873Z" transform="translate(3302 10082)" fill="#fff"/>
  </g>
</svg>
