<svg xmlns="http://www.w3.org/2000/svg" viewBox="0 0 30 30"><defs><style>.cls-1{fill:#5acaf8;}.cls-2{fill:#fff;}</style></defs><title>statistics_blue</title><g id="Layer_2" data-name="Layer 2"><g id="specctr"><circle class="cls-1" cx="15" cy="15" r="15"/><path class="cls-2" d="M22.29,21.76h-14v-14a.53.53,0,0,0-1,0V22.29a.52.52,0,0,0,.52.52H22.29a.52.52,0,0,0,.52-.52A.53.53,0,0,0,22.29,21.76Z"/><path class="cls-2" d="M9.28,20.16A.51.51,0,0,0,9.65,20L14,15.64l.33.82a.52.52,0,0,0,.38.31.57.57,0,0,0,.48-.14L20,11.86l-.09.68a.5.5,0,0,0,.44.59h.07a.53.53,0,0,0,.52-.45l.33-2.28v0l0-.16L21.1,10,21,9.91l-.26-.06-2.29.33a.54.54,0,0,0-.45.6.53.53,0,0,0,.6.44l.67-.1L15,15.33l-.34-.82a.5.5,0,0,0-.38-.31.49.49,0,0,0-.47.14L8.91,19.27a.52.52,0,0,0,.37.89Z"/></g></g></svg>