<svg xmlns="http://www.w3.org/2000/svg" width="36.716" height="47.4" viewBox="0 0 36.716 47.4">
  <g id="Station" transform="translate(-3286.292 -10005.991)">
    <g id="Yesterday-no-shift" transform="translate(3287 10006.496)">
      <path id="Path_45" data-name="Path 45" d="M853.1,648.009A17.725,17.725,0,1,0,823.5,667.391c2.056,2.756,4.249,5.409,6.387,8.1,2.566,3.231,5.141,6.454,7.783,9.77a4.882,4.882,0,0,0,.384-.366c4.643-5.847,9.355-11.638,13.9-17.557a17.392,17.392,0,0,0,1.153-19.332Z" transform="translate(-819.993 -639.083)" fill="#e38820" stroke="#fff" stroke-width="1"/>
    </g>
    <g id="Group_582" data-name="Group 582" transform="translate(3292.121 10010.779)">
      <path id="Path_450" data-name="Path 450" d="M323.734,229.861c1.781-1.687,3.254-3.542,5.482-4.506.606-.262,1.17-.622,1.752-.94,1.172-.639,1.172-.64,1.877.717l-4.11,2.259,2.831,1.552c1.319.723,2.617,1.491,3.971,2.142a1.971,1.971,0,0,0,1.512.118c2.311-1.185,4.568-2.473,7-3.811l-4.172-2.285.849-1.2a20.091,20.091,0,0,1,8.214,6.032c-.826.462-1.663.975-2.539,1.406a1.186,1.186,0,0,0-.778,1.3c.065,1.016,0,2.041.029,3.06a.929.929,0,0,1-.546.969c-2.778,1.509-5.539,3.049-8.322,4.55a1,1,0,0,1-.816-.015c-2.761-1.487-5.5-3.011-8.259-4.5a.984.984,0,0,1-.609-1.017c.038-1.045-.032-2.094.028-3.136a1.146,1.146,0,0,0-.749-1.234C325.512,230.887,324.682,230.389,323.734,229.861Zm11.823,9.388v-7.126c-.772.753-1.459,1.352-2.057,2.029a1.049,1.049,0,0,1-1.606.235c-.993-.641-2.068-1.155-3.246-1.8,0,.859.026,1.563-.009,2.264a.861.861,0,0,0,.541.893c1.5.808,2.989,1.64,4.482,2.462C334.253,238.535,334.846,238.859,335.557,239.249Zm1.623.031c2.261-1.25,4.441-2.451,6.613-3.666a.6.6,0,0,0,.285-.4c.027-.8.014-1.608.014-2.566-1.247.68-2.378,1.251-3.459,1.9a.782.782,0,0,1-1.16-.176c-.691-.727-1.436-1.4-2.293-2.23Z" transform="translate(-323.734 -214.783)" fill="#fff"/>
      <path id="Path_451" data-name="Path 451" d="M351.478,211c-.689-1.943-2.065-3.365-3.274-4.9a5.046,5.046,0,0,1-.972-5.159,4.545,4.545,0,0,1,6.065-2.532,4.637,4.637,0,0,1,2.291,6.3,8.8,8.8,0,0,1-1.063,1.672A16.514,16.514,0,0,0,351.478,211Zm1.632-8.506a1.609,1.609,0,0,0-1.655-1.7,1.664,1.664,0,0,0-1.7,1.6,1.7,1.7,0,0,0,1.638,1.753A1.66,1.66,0,0,0,353.111,202.5Z" transform="translate(-338.726 -198.031)" fill="#fff"/>
    </g>
  </g>
</svg>
