<svg xmlns="http://www.w3.org/2000/svg" viewBox="0 0 16 16"><defs><style>.cls-1{fill:#d1d1d1;}</style></defs><title>statistics</title><g id="Layer_2" data-name="Layer 2"><g id="specctr"><g id="layer_copy" data-name="layer copy"><path class="cls-1" d="M15.71,16H.29A.29.29,0,0,1,0,15.71V.29a.29.29,0,0,1,.58,0V15.42H15.71a.29.29,0,1,1,0,.58Z"/><path class="cls-1" d="M14.34,3.11v0h0v0h0V3h0V3h0V3h0v0h0l0,0,0,0H14l-2.37.34a.3.3,0,0,0-.24.33.29.29,0,0,0,.33.25l1.5-.22-5.3,5.3-.5-1.24a.28.28,0,0,0-.21-.17A.29.29,0,0,0,7,7.49L1.74,12.7a.3.3,0,0,0,0,.41A.29.29,0,0,0,2,13.2a.27.27,0,0,0,.2-.09l4.91-4.9.5,1.23a.31.31,0,0,0,.21.18A.34.34,0,0,0,8,9.54l5.61-5.61-.22,1.5a.29.29,0,0,0,.25.33h0A.28.28,0,0,0,14,5.52l.35-2.37h0v0Z"/></g></g></g></svg>