<svg xmlns="http://www.w3.org/2000/svg" viewBox="0 0 60.65 61.69"><defs><style>.cls-1{fill:#926fef;}</style></defs><title>trips made_dashboard</title><g id="Layer_2" data-name="Layer 2"><g id="specctr"><path class="cls-1" d="M21.09,29.8a11.63,11.63,0,0,0-8.77-4.09A11.61,11.61,0,0,0,3.56,29.8a15,15,0,0,0,0,19.43l8.76,9.9,8.77-9.9A15,15,0,0,0,21.09,29.8ZM19.55,47.86,12.33,56,5.1,47.86a12.92,12.92,0,0,1,0-16.7,9.61,9.61,0,0,1,7.22-3.4,9.61,9.61,0,0,1,7.23,3.4A12.92,12.92,0,0,1,19.55,47.86Z"/><path class="cls-1" d="M49.6,25.2l6.65-7.49a11.32,11.32,0,0,0,0-14.62,8.7,8.7,0,0,0-13.3,0,11.32,11.32,0,0,0,0,14.62ZM44.49,4.46a6.64,6.64,0,0,1,10.22,0,9.17,9.17,0,0,1,0,11.88L49.6,22.1l-5.11-5.76A9.17,9.17,0,0,1,44.49,4.46Z"/><path class="cls-1" d="M53.57,56.06a1,1,0,0,0-1.23.77,3.57,3.57,0,0,1-.68,1.43,1,1,0,0,0,.17,1.45,1,1,0,0,0,.63.22,1,1,0,0,0,.81-.39,5.8,5.8,0,0,0,1.08-2.25A1,1,0,0,0,53.57,56.06Z"/><path class="cls-1" d="M32.38,31.88a4,4,0,0,1-1.29-.24,1,1,0,1,0-.73,1.92,5.51,5.51,0,0,0,2,.37h.37a1,1,0,1,0,0-2.05Z"/><path class="cls-1" d="M29.94,25.37a1.08,1.08,0,0,0,.54-.15A3.45,3.45,0,0,1,32,24.7a1,1,0,1,0-.22-2,5.49,5.49,0,0,0-2.36.81,1,1,0,0,0,.55,1.9Z"/><path class="cls-1" d="M18.05,59.64H16a1,1,0,1,0,0,2h2.05a1,1,0,1,0,0-2Z"/><path class="cls-1" d="M36.49,41.13h-.27a1,1,0,0,0,.05,2h2a1,1,0,1,0,0-2.06Z"/><path class="cls-1" d="M36,24.68H38a1,1,0,1,0,0-2.06H36a1,1,0,0,0,0,2.06Z"/><path class="cls-1" d="M48.61,41.13a1,1,0,0,0,0,2.06h2a1,1,0,1,0,0-2.06Z"/><path class="cls-1" d="M52.28,32.9a1,1,0,0,0-1-1H49.19a1,1,0,0,0,0,2.05h2.06A1,1,0,0,0,52.28,32.9Z"/><path class="cls-1" d="M42.44,43.19h2.05a1,1,0,1,0,0-2.06H42.44a1,1,0,1,0,0,2.06Z"/><path class="cls-1" d="M44.2,24.68a1,1,0,0,0,0-2.06H42.14a1,1,0,1,0,0,2.06Z"/><path class="cls-1" d="M36.86,31.88a1,1,0,1,0,0,2.05h2a1,1,0,1,0,0-2.05Z"/><path class="cls-1" d="M46.11,32.9a1,1,0,0,0-1-1H43a1,1,0,1,0,0,2.05h2A1,1,0,0,0,46.11,32.9Z"/><path class="cls-1" d="M60.58,36.64a1,1,0,0,0-2,.32,2.69,2.69,0,0,1,0,.57,3.49,3.49,0,0,1-.14,1,1,1,0,0,0,.7,1.27.92.92,0,0,0,.29,0,1,1,0,0,0,1-.73,5.77,5.77,0,0,0,.23-1.59A5.46,5.46,0,0,0,60.58,36.64Z"/><path class="cls-1" d="M42.73,59.64H40.67a1,1,0,0,0,0,2h2.06a1,1,0,1,0,0-2Z"/><path class="cls-1" d="M36.56,59.64H34.5a1,1,0,0,0,0,2h2.06a1,1,0,1,0,0-2Z"/><path class="cls-1" d="M47.87,51.41a1,1,0,0,0-1-1H44.79a1,1,0,1,0,0,2.06h2.05A1,1,0,0,0,47.87,51.41Z"/><path class="cls-1" d="M41.7,51.41a1,1,0,0,0-1-1H38.62a1,1,0,1,0,0,2.06h2.05A1,1,0,0,0,41.7,51.41Z"/><path class="cls-1" d="M48.83,59.64h-2a1,1,0,1,0,0,2h2l0-1v1a1,1,0,0,0,1-1A1.05,1.05,0,0,0,48.83,59.64Z"/><path class="cls-1" d="M52.46,54.21A1,1,0,0,0,53.1,54a1,1,0,0,0,.17-1.45A5.76,5.76,0,0,0,51.34,51a1,1,0,0,0-.92,1.84,3.55,3.55,0,0,1,1.23,1A1.07,1.07,0,0,0,52.46,54.21Z"/><path class="cls-1" d="M56.39,40.85a3.52,3.52,0,0,1-1.39.28h-.23a1,1,0,0,0,0,2.06H55a5.62,5.62,0,0,0,2.18-.44,1,1,0,0,0-.79-1.9Z"/><path class="cls-1" d="M28.3,30.7A1,1,0,0,0,29,29.4a3.85,3.85,0,0,1-.17-1.12c0-.15,0-.31,0-.46a1,1,0,0,0-2-.26c0,.23,0,.47,0,.72A5.54,5.54,0,0,0,27,30a1,1,0,0,0,1,.71A1.25,1.25,0,0,0,28.3,30.7Z"/><path class="cls-1" d="M24.22,59.64h-2a1,1,0,1,0,0,2h2a1,1,0,1,0,0-2Z"/><path class="cls-1" d="M34.56,52a1,1,0,0,0,.43-2,3.59,3.59,0,0,1-1.26-1,1,1,0,1,0-1.57,1.32,5.65,5.65,0,0,0,2,1.51A1.06,1.06,0,0,0,34.56,52Z"/><path class="cls-1" d="M57.83,32.63a5.76,5.76,0,0,0-2.39-.74,1,1,0,0,0-.16,2,3.55,3.55,0,0,1,1.52.47,1,1,0,0,0,.51.14A1,1,0,0,0,58.2,34,1,1,0,0,0,57.83,32.63Z"/><path class="cls-1" d="M30.39,59.64H28.33a1,1,0,0,0,0,2h2.06a1,1,0,1,0,0-2Z"/><path class="cls-1" d="M33,46.1a3.63,3.63,0,0,1,.64-1.45,1,1,0,0,0-.22-1.44,1,1,0,0,0-1.44.22,5.73,5.73,0,0,0-1,2.29,1,1,0,0,0,.82,1.2l.19,0A1,1,0,0,0,33,46.1Z"/><path class="cls-1" d="M49.85,15.42A5.66,5.66,0,1,0,44.2,9.77,5.66,5.66,0,0,0,49.85,15.42Zm0-9.25a3.6,3.6,0,1,1-3.59,3.6A3.6,3.6,0,0,1,49.85,6.17Z"/><path class="cls-1" d="M12.32,31.88A6.17,6.17,0,1,0,18.49,38,6.17,6.17,0,0,0,12.32,31.88Zm0,10.28A4.12,4.12,0,1,1,16.44,38,4.12,4.12,0,0,1,12.32,42.16Z"/></g></g></svg>