<svg xmlns="http://www.w3.org/2000/svg" viewBox="0 0 30 30"><defs><style>.cls-1{fill:#5acaf8;}.cls-2{fill:#fff;}</style></defs><title>trips_blue</title><g id="Layer_2" data-name="Layer 2"><g id="specctr"><circle class="cls-1" cx="15" cy="15" r="15"/><path class="cls-2" d="M10.92,12.7c-.63-.74-1.27-1.43-1.84-2.17A2.38,2.38,0,0,1,8.79,8a2.36,2.36,0,0,1,4.49,1.2,2.17,2.17,0,0,1-.34,1,10,10,0,0,1-.61.84C11.88,11.56,11.41,12.1,10.92,12.7Zm0-4.81A1.16,1.16,0,0,0,9.76,9a1.17,1.17,0,0,0,2.34,0A1.15,1.15,0,0,0,11,7.89Z"/><path class="cls-2" d="M19,23.31c-.63-.74-1.28-1.42-1.84-2.17a2.39,2.39,0,0,1,2.39-3.83,2.38,2.38,0,0,1,1.82,2.08,2.15,2.15,0,0,1-.33,1.35,6.08,6.08,0,0,1-.55.78C20,22.11,19.55,22.68,19,23.31Zm-1.15-3.65a1.15,1.15,0,0,0,1.17,1.17,1.17,1.17,0,1,0,0-2.34A1.16,1.16,0,0,0,17.88,19.66Z"/><path class="cls-2" d="M17.29,12.54a.32.32,0,0,1,.37-.33c.24,0,.48.06.72.1a.32.32,0,0,1,.29.37.34.34,0,0,1-.41.27l-.65-.09C17.41,12.83,17.29,12.72,17.29,12.54Z"/><path class="cls-2" d="M11,21c0,.31-.27.49-.48.34a5.34,5.34,0,0,1-.65-.61.28.28,0,0,1,0-.41.31.31,0,0,1,.44,0c.19.16.37.33.55.5A.68.68,0,0,1,11,21Z"/><path class="cls-2" d="M15.92,12.06l.59,0a.33.33,0,1,1,0,.65c-.25,0-.5,0-.75-.05a.31.31,0,0,1-.3-.34.32.32,0,0,1,.34-.3Z"/><path class="cls-2" d="M14.42,17.47c-.23,0-.36-.11-.39-.27a.31.31,0,0,1,.23-.36c.26-.07.53-.12.79-.17a.33.33,0,0,1,.35.25.3.3,0,0,1-.2.37C14.93,17.37,14.64,17.42,14.42,17.47Z"/><path class="cls-2" d="M12.22,17.54a.28.28,0,0,1,.21-.28c.25-.07.5-.14.76-.19a.32.32,0,0,1,.39.24.33.33,0,0,1-.25.39c-.24.07-.48.13-.73.18A.32.32,0,0,1,12.22,17.54Z"/><path class="cls-2" d="M11.79,17.9a.3.3,0,0,1-.2.3l-.66.29a.32.32,0,0,1-.43-.14.3.3,0,0,1,.12-.42,7.51,7.51,0,0,1,.77-.34A.31.31,0,0,1,11.79,17.9Z"/><path class="cls-2" d="M15.87,23.17,15.13,23a.33.33,0,0,1-.23-.36.31.31,0,0,1,.34-.27,7.39,7.39,0,0,1,.82.14.31.31,0,0,1,.22.36C16.25,23.07,16.11,23.17,15.87,23.17Z"/><path class="cls-2" d="M19.12,12.92c0-.26.18-.43.37-.38a7.52,7.52,0,0,1,.8.27.31.31,0,0,1,.16.42.33.33,0,0,1-.42.17l-.66-.22A.33.33,0,0,1,19.12,12.92Z"/><path class="cls-2" d="M20.76,15.35c-.08.1-.12.21-.2.26a5.52,5.52,0,0,1-.66.4.32.32,0,0,1-.44-.14.33.33,0,0,1,.15-.44c.2-.11.39-.25.6-.35a.47.47,0,0,1,.33,0C20.63,15.11,20.68,15.24,20.76,15.35Z"/><path class="cls-2" d="M12.33,22.27l-.1,0a7.13,7.13,0,0,1-.69-.29.31.31,0,0,1-.17-.44.32.32,0,0,1,.44-.14l.66.27a.33.33,0,0,1,.2.36A.34.34,0,0,1,12.33,22.27Z"/><path class="cls-2" d="M18,16.69a.36.36,0,0,1-.33-.28.3.3,0,0,1,.19-.36l.8-.23A.3.3,0,0,1,19,16a.32.32,0,0,1-.12.4C18.6,16.52,18.3,16.6,18,16.69Z"/><path class="cls-2" d="M16.24,17.09a.33.33,0,0,1-.38-.26.31.31,0,0,1,.22-.36,7.25,7.25,0,0,1,.78-.17.3.3,0,0,1,.36.24.31.31,0,0,1-.24.39Z"/><path class="cls-2" d="M14.06,22.8c-.22-.06-.52-.13-.8-.23a.32.32,0,0,1,.16-.6,8.37,8.37,0,0,1,.86.23.3.3,0,0,1,.17.36C14.42,22.7,14.29,22.8,14.06,22.8Z"/><path class="cls-2" d="M21.45,14.1c0,.19-.06.34-.1.48a.31.31,0,0,1-.38.21.29.29,0,0,1-.24-.34,1.27,1.27,0,0,0,0-.64.29.29,0,0,1,.2-.35.31.31,0,0,1,.4.15C21.37,13.78,21.4,14,21.45,14.1Z"/><path class="cls-2" d="M9.42,19.47a1.33,1.33,0,0,1,.22-.72.33.33,0,0,1,.47-.13.35.35,0,0,1,.1.47,1.23,1.23,0,0,0-.14.42c0,.28-.15.42-.36.4S9.41,19.74,9.42,19.47Z"/><path class="cls-2" d="M14.26,12.66h-.38a.32.32,0,0,1,0-.63h.77a.31.31,0,0,1,.31.32.3.3,0,0,1-.32.31Z"/><path class="cls-2" d="M17.31,23.36l-.28,0a.33.33,0,0,1,.07-.65l.32,0c.24,0,.36.16.35.36S17.61,23.38,17.31,23.36Z"/><path class="cls-2" d="M12.59,12.68h-.26a.31.31,0,0,1-.24-.33.32.32,0,0,1,.28-.31h.43a.32.32,0,0,1,0,.63H12.6Z"/></g></g></svg>