<svg xmlns="http://www.w3.org/2000/svg" width="37.001" height="14" viewBox="0 0 37.001 14"><defs><style>.a{fill:#5be171;}.b{fill:none;}.c,.d{stroke:none;}.d{fill:#989898;}</style></defs><path class="a" d="M3,0H30a3,3,0,0,1,3,3v8a3,3,0,0,1-3,3H3a3,3,0,0,1-3-3V3A3,3,0,0,1,3,0Z"/><g class="b"><path class="c" d="M2,14a2,2,0,0,1-2-2V2A2,2,0,0,1,2,0H33.868a2,2,0,0,1,2,2V4.181A.945.945,0,0,1,37,5.106V8.137a.945.945,0,0,1-1.133.925V12a2,2,0,0,1-2,2Z"/><path class="d" d="M 33.86790084838867 13.4995002746582 C 34.69488906860352 13.4995002746582 35.36769866943359 12.82668972015381 35.36769866943359 11.99970054626465 L 35.36769866943359 9.062029838562012 L 35.36769866943359 8.450030326843262 L 35.96741104125977 8.572070121765137 C 35.99652099609375 8.578000068664551 36.02656173706055 8.581000328063965 36.05670166015625 8.581000328063965 C 36.30158233642578 8.581000328063965 36.50080108642578 8.381779670715332 36.50080108642578 8.136899948120117 L 36.50080108642578 5.105700016021729 C 36.50080108642578 4.861320018768311 36.30158233642578 4.662499904632568 36.05670166015625 4.662499904632568 C 36.02648162841797 4.662499904632568 35.99637985229492 4.665500164031982 35.96725082397461 4.671420097351074 L 35.36769866943359 4.793230056762695 L 35.36769866943359 4.181430339813232 L 35.36769866943359 1.999800086021423 C 35.36769866943359 1.172810196876526 34.69488906860352 0.5000001192092896 33.86790084838867 0.5000001192092896 L 1.999800562858582 0.5000001192092896 C 1.172810554504395 0.5000001192092896 0.500000536441803 1.172810196876526 0.500000536441803 1.999800086021423 L 0.500000536441803 11.99970054626465 C 0.500000536441803 12.82668972015381 1.172810554504395 13.4995002746582 1.999800562858582 13.4995002746582 L 33.86790084838867 13.4995002746582 M 33.86790084838867 13.9995002746582 L 1.999800562858582 13.9995002746582 C 0.8955005407333374 13.9995002746582 5.432128773463774e-07 13.10400009155273 5.432128773463774e-07 11.99970054626465 L 5.432128773463774e-07 1.999800086021423 C 5.432128773463774e-07 0.895500123500824 0.8955005407333374 1.373290956507844e-07 1.999800562858582 1.373290956507844e-07 L 33.86790084838867 1.373290956507844e-07 C 34.97220230102539 1.373290956507844e-07 35.86769866943359 0.895500123500824 35.86769866943359 1.999800086021423 L 35.86769866943359 4.181430339813232 C 35.92877960205078 4.169020175933838 35.99198150634766 4.162499904632568 36.05670166015625 4.162499904632568 C 36.57780075073242 4.162499904632568 37.00080108642578 4.58459997177124 37.00080108642578 5.105700016021729 L 37.00080108642578 8.136899948120117 C 37.00080108642578 8.657999992370605 36.57780075073242 9.081000328063965 36.05670166015625 9.081000328063965 C 35.99198150634766 9.081000328063965 35.92877960205078 9.074460029602051 35.86769866943359 9.062029838562012 L 35.86769866943359 11.99970054626465 C 35.86769866943359 13.10400009155273 34.97220230102539 13.9995002746582 33.86790084838867 13.9995002746582 Z"/></g></svg>