<svg xmlns="http://www.w3.org/2000/svg" width="8.4" height="10.812" viewBox="0 0 8.4 10.812"><defs><style>.a{fill:#f73c1e;}</style></defs><path class="a" d="M244.519,196.305a1.678,1.678,0,0,1-.5-.7,8.175,8.175,0,0,1-.523-3.178v-.012a3.069,3.069,0,0,0-1.773-2.782v-.732a1.194,1.194,0,0,0-1.181-1.2h-.1a1.194,1.194,0,0,0-1.181,1.2v.732a3.071,3.071,0,0,0-1.773,2.794,8.175,8.175,0,0,1-.523,3.178,1.669,1.669,0,0,1-.5.7.31.31,0,0,0-.166.351.318.318,0,0,0,.312.247h2.279a1.6,1.6,0,1,0,3.2,0h2.279a.319.319,0,0,0,.313-.247A.311.311,0,0,0,244.519,196.305Zm-4.633-7.4a.564.564,0,0,1,.558-.57h.1a.565.565,0,0,1,.559.57v.526a2.947,2.947,0,0,0-1.215,0v-.526Zm.608,8.973a.99.99,0,0,1-.979-.975h1.958A.989.989,0,0,1,240.494,197.878Zm.978-7.059c.054-.085,1.006,1.515,1.006,0,0-1.339-3.3-.816-1.985-.816a2.408,2.408,0,0,1,2.381,2.43v.011a8.15,8.15,0,0,0,.628,3.533c.055.109.109.206.164.291l-.792-5.228Z" transform="translate(-236.293 -187.701)"/></svg>