<svg xmlns="http://www.w3.org/2000/svg" width="26.865" height="34.445" viewBox="0 0 26.865 34.445">
  <g id="Group_588" data-name="Group 588" transform="translate(0.606 0.53)">
    <path id="Path_45" data-name="Path 45" d="M843.779,645.495a12.733,12.733,0,1,0-21.268,13.923c1.477,1.98,3.052,3.886,4.588,5.821,1.843,2.321,3.693,4.636,5.591,7.018a3.509,3.509,0,0,0,.276-.263c3.335-4.2,6.72-8.36,9.985-12.612A12.494,12.494,0,0,0,843.779,645.495Z" transform="translate(-819.973 -639.081)" fill="#4897d4" stroke="#fff" stroke-width="1"/>
    <g id="Group_45" data-name="Group 45" transform="translate(3.444 3.327)">
      <path id="Path_46" data-name="Path 46" d="M836.893,660.966a2.528,2.528,0,0,1,2.272-1.311,1.372,1.372,0,0,0,1.525-1.528A2.523,2.523,0,0,1,842,655.86a1.369,1.369,0,0,0,.558-2.081,2.527,2.527,0,0,1,0-2.621A1.364,1.364,0,0,0,842,649.08a2.533,2.533,0,0,1-1.308-2.275,1.37,1.37,0,0,0-1.525-1.522,2.532,2.532,0,0,1-2.272-1.312,1.366,1.366,0,0,0-2.079-.557,2.528,2.528,0,0,1-2.622,0,1.367,1.367,0,0,0-2.08.557,2.527,2.527,0,0,1-2.271,1.312,1.369,1.369,0,0,0-1.523,1.522,2.543,2.543,0,0,1-1.311,2.275,1.363,1.363,0,0,0-.557,2.077,2.521,2.521,0,0,1,0,2.621,1.366,1.366,0,0,0,.557,2.081,2.527,2.527,0,0,1,1.311,2.267,1.371,1.371,0,0,0,1.523,1.528,2.528,2.528,0,0,1,2.272,1.311,1.364,1.364,0,0,0,2.079.556,2.55,2.55,0,0,1,2.622,0A1.365,1.365,0,0,0,836.893,660.966Zm-3.387-3.013a5.485,5.485,0,1,1,5.483-5.486A5.485,5.485,0,0,1,833.505,657.953Z" transform="translate(-824.182 -643.147)" fill="#fff"/>
      <path id="Path_47" data-name="Path 47" d="M835.9,652.542l-1.148-2.324-1.149,2.324-2.569.376,1.857,1.811-.438,2.561,2.3-1.208,2.3,1.208-.438-2.561,1.857-1.811Z" transform="translate(-825.427 -644.432)" fill="#fff"/>
    </g>
  </g>
</svg>
