<svg xmlns="http://www.w3.org/2000/svg" width="13.183" height="13.182" viewBox="0 0 13.183 13.182">
  <g id="close" transform="translate(0 -0.016)">
    <g id="Group_584" data-name="Group 584" transform="translate(0 0.016)">
      <path id="Path_465" data-name="Path 465" d="M8.043,6.607l4.929-4.929a.722.722,0,0,0,0-1.02L12.54.226a.723.723,0,0,0-1.02,0L6.591,5.155,1.662.226a.722.722,0,0,0-1.019,0L.211.658a.721.721,0,0,0,0,1.02L5.14,6.607.211,11.535a.723.723,0,0,0,0,1.02l.432.432a.722.722,0,0,0,1.019,0L6.591,8.058l4.929,4.929a.715.715,0,0,0,.51.21h0a.715.715,0,0,0,.51-.21l.432-.432a.723.723,0,0,0,0-1.02Z" transform="translate(0 -0.016)" fill="#fff"/>
    </g>
  </g>
</svg>
