<svg xmlns="http://www.w3.org/2000/svg" width="23.919" height="20.175" viewBox="0 0 23.919 20.175">
  <g id="Group_80" data-name="Group 80" transform="translate(-312.197 -14.887)">
    <path id="Path_64" data-name="Path 64" d="M312.2,34.691V15.258a.567.567,0,0,1,.61-.37c.093,0,.187,0,.28,0h22.346c.539,0,.683.142.683.675V34.385c0,.532-.144.676-.683.676q-11.3,0-22.6,0A.6.6,0,0,1,312.2,34.691Zm22.969-.578V20.981H313.149V31.588h.316l18.125,0c.1,0,.2,0,.3,0a.468.468,0,0,1,.47.454.473.473,0,0,1-.458.467,2.549,2.549,0,0,1-.3.008H313.144v1.588Zm-22.023-14.1H335.17V15.837H313.143Z" fill="#fff"/>
    <path id="Path_65" data-name="Path 65" d="M330.11,30.4c-.53,0-1.059,0-1.588,0-.4,0-.562-.165-.583-.564a3.745,3.745,0,0,0-2.769-3.5,3.8,3.8,0,0,0-4.177,1.553,3.577,3.577,0,0,0-.617,1.882c-.022.5-.16.631-.658.631q-1.53,0-3.059,0c-.455,0-.613-.168-.6-.628a8.023,8.023,0,0,1,5.968-7.563,8.139,8.139,0,0,1,8.559,2.857,7.821,7.821,0,0,1,1.672,4.757c.007.394-.166.575-.56.577-.53,0-1.059,0-1.588,0Zm-1.7-6.14a7.13,7.13,0,0,0-8.471-.007c.533.55,1.066,1.1,1.608,1.651a.237.237,0,0,0,.216,0,4.711,4.711,0,0,1,4.783,0,.194.194,0,0,0,.279-.041c.21-.22.432-.426.645-.643C327.783,24.9,328.094,24.579,328.407,24.257Zm-9.253.606a7.1,7.1,0,0,0-2.148,4.588h2.45A4.654,4.654,0,0,1,320.84,26.6Zm12.157,4.59a7.1,7.1,0,0,0-2.143-4.581l-1.7,1.733a4.658,4.658,0,0,1,1.388,2.848Z" fill="#fff"/>
    <path id="Path_66" data-name="Path 66" d="M325.341,29.325c-.373,0-.746,0-1.119,0a.469.469,0,1,1-.016-.932q1.131-.012,2.262,0a.468.468,0,1,1-.008.93c-.373,0-.746,0-1.119,0Z" fill="#fff"/>
    <path id="Path_67" data-name="Path 67" d="M333.831,31.6a.445.445,0,0,1,.469.466.465.465,0,0,1-.468.453.47.47,0,0,1-.46-.439A.46.46,0,0,1,333.831,31.6Z" fill="#fff"/>
    <path id="Path_68" data-name="Path 68" d="M330.651,16.466H333.5c.446,0,.605.16.606.6q0,.876,0,1.752c0,.391-.177.578-.567.579q-2.9,0-5.791,0c-.406,0-.582-.179-.585-.585-.005-.592-.006-1.184,0-1.775,0-.409.177-.573.591-.574Zm2.513.95H328.1c0,.27.013.526,0,.78-.014.209.045.278.267.276,1.516-.01,3.032-.005,4.548-.005h.256Z" fill="#fff"/>
    <path id="Path_69" data-name="Path 69" d="M321.657,18.394h-3.081a1.291,1.291,0,0,1-.233-.013.444.444,0,0,1-.364-.426.435.435,0,0,1,.32-.458,1.238,1.238,0,0,1,.322-.036q3.057,0,6.116,0a1.116,1.116,0,0,1,.231.021.453.453,0,0,1,.38.483.448.448,0,0,1-.446.424c-.327.013-.654.006-.981.006h-2.264Z" fill="#fff"/>
    <path id="Path_70" data-name="Path 70" d="M316.961,17.92a.472.472,0,0,1-.477.47.46.46,0,0,1-.453-.465.465.465,0,0,1,.93,0Z" fill="#fff"/>
  </g>
</svg>
