<svg xmlns="http://www.w3.org/2000/svg" viewBox="0 0 7.37 13"><defs><style>.cls-1{fill:#d1d1d1;}</style></defs><title>device info</title><g id="Layer_2" data-name="Layer 2"><g id="specctr"><path class="cls-1" d="M4.77.65H2.6a.22.22,0,0,0-.22.22.21.21,0,0,0,.22.21H4.77A.21.21,0,0,0,5,.87.21.21,0,0,0,4.77.65Z"/><path class="cls-1" d="M6.28.65H6.07a.22.22,0,0,0-.22.22.21.21,0,0,0,.22.21h.21A.21.21,0,0,0,6.5.87.22.22,0,0,0,6.28.65Z"/><path class="cls-1" d="M4,11.05H3.41a.59.59,0,0,0-.59.6v.1a.59.59,0,0,0,.59.6H4a.6.6,0,0,0,.6-.6v-.1A.6.6,0,0,0,4,11.05Zm.17.7a.18.18,0,0,1-.17.17H3.41a.17.17,0,0,1-.16-.17v-.1a.17.17,0,0,1,.16-.17H4a.18.18,0,0,1,.17.17Z"/><path class="cls-1" d="M6.58,0H.78A.78.78,0,0,0,0,.78V12.22A.78.78,0,0,0,.78,13h5.8a.78.78,0,0,0,.79-.78V.78A.78.78,0,0,0,6.58,0Zm.35,12.22a.35.35,0,0,1-.35.35H.78a.35.35,0,0,1-.35-.35V.78A.35.35,0,0,1,.78.43h5.8a.35.35,0,0,1,.35.35V12.22Z"/><path class="cls-1" d="M7.15,1.3H.22A.22.22,0,0,0,0,1.52v9.1a.21.21,0,0,0,.22.21H7.15a.21.21,0,0,0,.22-.21V1.52A.22.22,0,0,0,7.15,1.3Zm-.22,9.1H.43V1.73h6.5Z"/></g></g></svg>