<svg xmlns="http://www.w3.org/2000/svg" viewBox="0 0 30 30"><defs><style>.cls-1{fill:#5acaf8;}.cls-2{fill:#fff;}</style></defs><title>deviceinfo_blue</title><g id="Layer_2" data-name="Layer 2"><g id="specctr"><circle class="cls-1" cx="15" cy="15" r="15"/><path class="cls-2" d="M16.36,7.63H13.64a.29.29,0,0,0-.28.28.28.28,0,0,0,.28.27h2.72a.28.28,0,0,0,.28-.27A.29.29,0,0,0,16.36,7.63Z"/><path class="cls-2" d="M18.27,7.63H18a.28.28,0,0,0-.27.28.27.27,0,0,0,.27.27h.27a.28.28,0,0,0,.28-.27A.29.29,0,0,0,18.27,7.63Z"/><path class="cls-2" d="M15.34,20.73h-.68a.76.76,0,0,0-.75.75v.13a.76.76,0,0,0,.75.76h.68a.76.76,0,0,0,.75-.76v-.13A.76.76,0,0,0,15.34,20.73Zm.21.88a.21.21,0,0,1-.21.21h-.68a.21.21,0,0,1-.21-.21v-.13a.21.21,0,0,1,.21-.2h.68a.21.21,0,0,1,.21.2Z"/><path class="cls-2" d="M18.65,6.81h-7.3a1,1,0,0,0-1,1V22.2a1,1,0,0,0,1,1h7.3a1,1,0,0,0,1-1V7.8A1,1,0,0,0,18.65,6.81Zm.44,15.39a.44.44,0,0,1-.44.44h-7.3a.44.44,0,0,1-.44-.44V7.8a.44.44,0,0,1,.44-.44h7.3a.44.44,0,0,1,.44.44V22.2Z"/><path class="cls-2" d="M19.37,8.45H10.63a.27.27,0,0,0-.27.27V20.18a.28.28,0,0,0,.27.28h8.74a.28.28,0,0,0,.27-.28V8.72A.27.27,0,0,0,19.37,8.45Zm-.28,11.46H10.91V9h8.18Z"/></g></g></svg>