<svg xmlns="http://www.w3.org/2000/svg" width="23.174" height="26.583" viewBox="0 0 23.174 26.583"><defs><style>.a{fill:#fff;}</style></defs><g transform="translate(0 0)"><path class="a" d="M613.9,514.606h18.439c0-.551,0-1.061,0-1.571,0-1.3-.016-2.608.009-3.912a1.153,1.153,0,0,1,1.213-1.278c.682.017,1.1.483,1.14,1.275,0,.049,0,.1,0,.148,0,2.091.007,4.183,0,6.274-.005,1.075-.412,1.479-1.468,1.479q-10.113,0-20.225,0c-1.033,0-1.46-.4-1.466-1.406q-.019-3.174,0-6.348c0-.919.41-1.4,1.139-1.422.76-.019,1.208.486,1.216,1.427.014,1.5,0,3,0,4.5C613.9,514.038,613.9,514.3,613.9,514.606Z" transform="translate(-611.53 -490.44)"/><path class="a" d="M653,403.682v-5.319q0-3.286,0-6.571c0-1.218.361-1.771,1.162-1.784.82-.013,1.2.564,1.2,1.822q0,5.464,0,10.928v.934c1.039-1.033,1.957-1.943,2.872-2.856a1.194,1.194,0,0,1,1.53-.315,1.143,1.143,0,0,1,.294,1.827q-2.513,2.6-5.1,5.135a1.11,1.11,0,0,1-1.651-.077q-2.489-2.471-4.944-4.976a1.164,1.164,0,0,1-.032-1.714,1.145,1.145,0,0,1,1.709.051C651,401.685,651.935,402.627,653,403.682Z" transform="translate(-642.594 -390.007)"/></g></svg>