<svg xmlns="http://www.w3.org/2000/svg" viewBox="0 0 16.99 23"><defs><style>.cls-1{fill:#303c42;}.cls-2{fill:#e57373;}.cls-3{fill:#fff;}.cls-4{opacity:0.1;isolation:isolate;}</style></defs><title>drop</title><g id="Layer_2" data-name="Layer 2"><g id="specctr"><path class="cls-1" d="M9,0A8,8,0,0,0,1,8c0,5.9,7.38,12.91,7.69,13.2a.47.47,0,0,0,.31.12.42.42,0,0,0,.3-.12C9.62,20.91,17,13.9,17,8A8,8,0,0,0,9,0Z"/><path class="cls-2" d="M9,20.26C7.6,18.86,1.89,12.86,1.89,8A7.11,7.11,0,1,1,16.1,8C16.1,12.86,10.39,18.86,9,20.26Z"/><circle class="cls-1" cx="9" cy="8" r="4.44"/><circle class="cls-3" cx="9" cy="8" r="3.55"/><path class="cls-4" d="M6.78,9.77a3.55,3.55,0,0,1,3.55-3.55,3.48,3.48,0,0,1,2,.63A3.55,3.55,0,1,0,7,10.92,3.6,3.6,0,0,1,6.78,9.77Z"/><path class="cls-1" d="M.84,19.67a1,1,0,0,1,.66-1.75,1,1,0,0,1,.66.26l.65.57V13.67a1,1,0,1,1,2,0v5l.45-.43A1,1,0,0,1,6,17.92a1,1,0,0,1,.73.32A1,1,0,0,1,7,19a1,1,0,0,1-.31.7L3.83,22.32Z"/><path class="cls-3" d="M3.81,13.17a.5.5,0,0,1,.5.5v6.1s0,0,0,0l1.31-1.24A.49.49,0,0,1,6,18.42a.48.48,0,0,1,.36.16.5.5,0,0,1,0,.71L3.82,21.64,1.17,19.3a.5.5,0,0,1,0-.71.48.48,0,0,1,.37-.17.46.46,0,0,1,.33.13l1.5,1.32a.3.3,0,0,1,0-.1v-6.1a.5.5,0,0,1,.5-.5m0,7.1h0m0-8.1a1.5,1.5,0,0,0-1.5,1.5v4a1.54,1.54,0,0,0-.81-.24,1.49,1.49,0,0,0-1.12.51A1.48,1.48,0,0,0,0,19a1.55,1.55,0,0,0,.51,1l2.65,2.34.69.61.66-.63L7,20a1.5,1.5,0,0,0-1-2.59,1.43,1.43,0,0,0-.64.15v-3.9a1.5,1.5,0,0,0-1.5-1.5Z"/></g></g></svg>