<svg xmlns="http://www.w3.org/2000/svg" width="21.557" height="23.951" viewBox="0 0 21.557 23.951"><defs><style>.a{fill:#fff;stroke:#fff;stroke-width:0.5px;}</style></defs><path class="a" d="M30.248,7.849,28.856,9.241a.391.391,0,0,1-.553,0l-.66-.66a.391.391,0,0,1,.553-.553l.383.383L29.7,7.3a.391.391,0,0,1,.553.553Zm0,4.479a.391.391,0,0,0-.553,0l-1.116,1.116-.383-.383a.391.391,0,0,0-.553.553l.66.66a.391.391,0,0,0,.553,0l1.392-1.392A.391.391,0,0,0,30.248,12.328Zm9.4,10.731a.391.391,0,0,1-.391.391h-12.8A1.956,1.956,0,0,1,24.5,21.5V3.908a1.956,1.956,0,0,1,1.954-1.954h4.69V1.71a1.71,1.71,0,0,1,3.42,0v.244h4.69a1.956,1.956,0,0,1,1.954,1.954V8.094a.391.391,0,1,1-.782,0V3.908a1.174,1.174,0,0,0-1.173-1.173h-12.8a1.174,1.174,0,0,0-1.173,1.173V21.5a1.174,1.174,0,0,0,1.173,1.173h12.8A.391.391,0,0,1,39.645,23.06ZM31.926,1.954h1.856V1.71a.928.928,0,1,0-1.856,0Zm5.423,1.857a.391.391,0,1,0-.782,0,.783.783,0,0,1-.782.782H29.923a.783.783,0,0,1-.782-.782.391.391,0,1,0-.782,0,1.565,1.565,0,0,0,1.563,1.563h5.863A1.565,1.565,0,0,0,37.349,3.811ZM30.363,17.93v.879a1.174,1.174,0,0,1-1.173,1.173h-.879a1.174,1.174,0,0,1-1.173-1.173V17.93a1.174,1.174,0,0,1,1.173-1.173h.879A1.174,1.174,0,0,1,30.363,17.93Zm-.782,0a.391.391,0,0,0-.391-.391h-.879a.391.391,0,0,0-.391.391v.879a.391.391,0,0,0,.391.391h.879a.391.391,0,0,0,.391-.391Zm7.328.244H35.59a.391.391,0,1,0,0,.782h1.319a.391.391,0,1,0,0-.782ZM45.557,10.7v9.283a1.565,1.565,0,0,1-1.563,1.563H34.711a1.565,1.565,0,0,1-1.563-1.563V10.7a1.565,1.565,0,0,1,1.563-1.563h9.283A1.565,1.565,0,0,1,45.557,10.7Zm-.782,0a.783.783,0,0,0-.782-.782H37.984v2.367a.391.391,0,0,0,.391.391h2a.391.391,0,0,0,.391-.391V11.041a.391.391,0,1,1,.782,0v1.243a1.174,1.174,0,0,1-1.173,1.173h-2A1.174,1.174,0,0,1,37.2,12.285V9.918H34.711a.783.783,0,0,0-.782.782v9.283a.783.783,0,0,0,.782.782h9.283a.783.783,0,0,0,.782-.782Z" transform="translate(-24.25 0.25)"/></svg>