<svg xmlns="http://www.w3.org/2000/svg" width="278" height="184" viewBox="0 0 278 184"><defs><style>.a{fill:#f5f5f5;}.b{fill:#e6e6e6;}.c{fill:#ebebeb;}.d{fill:#455a64;}.e{fill:#e0e0e0;}.f{opacity:0.5;mix-blend-mode:multiply;isolation:isolate;}.g{fill:#f0f0f0;}.h{fill:#f28f8f;}.i{fill:#ffaeb0;}.j{opacity:0.2;}.k{fill:#fc0000;}</style></defs><g transform="translate(-25.54 -142.49)"><g transform="translate(25.54 181.583)"><path class="a" d="M66.253,334.514c54.283,28.3,142.293,28.3,196.575,0s54.283-74.171,0-102.465-142.293-28.3-196.576,0S11.97,306.22,66.253,334.514Z" transform="translate(-25.54 -210.829)"/></g><g transform="translate(34.749 173.893)"><path class="b" d="M224.98,318.518,96.9,244.481a.986.986,0,0,1,0-1.867l75.045-43.393a3.566,3.566,0,0,1,3.23,0l128.093,74.043a.986.986,0,0,1,0,1.867l-75.058,43.387A3.568,3.568,0,0,1,224.98,318.518Z" transform="translate(-61.437 -198.834)"/><ellipse class="c" cx="33.835" cy="16.126" rx="33.835" ry="16.126" transform="translate(0 67.316)"/></g><g transform="translate(29.9 162.294)"><path class="c" d="M88.666,133.967l2.387.918v-5.259c0-4.168,3.325-5.168,6.935-3.084h0a14.45,14.45,0,0,1,6.537,11.322v.763a3.5,3.5,0,0,1,3.033.468h0a10.4,10.4,0,0,1,4.7,8.147v.347l3.328,1.922a6.846,6.846,0,0,1,3.1,5.365c0,1.975-1.387,2.776-3.1,1.788L88.666,141.121a6.846,6.846,0,0,1-3.1-5.365C85.569,133.781,86.956,132.98,88.666,133.967Z" transform="translate(-85.569 -125.49)"/><g transform="translate(28.18 7.858)"><path class="c" d="M132.781,140.478l4.327,2.5a5.3,5.3,0,0,1-.036-.573v-1.254c0-2.23,1.566-3.135,3.5-2.019a6.759,6.759,0,0,1,2.085,2c.316-2.805,2.517-3.85,5.19-2.307a11.567,11.567,0,0,1,5.234,9.064v1.875a4.939,4.939,0,0,1-.443,2.173l3.594,2.075a4.29,4.29,0,0,1,1.941,3.361c0,1.237-.869,1.739-1.941,1.12l-23.449-13.538a4.289,4.289,0,0,1-1.94-3.361C130.841,140.361,131.71,139.859,132.781,140.478Z" transform="translate(-130.841 -138.114)"/></g></g><g transform="translate(173.309 142.49)"><path class="c" d="M88.666,133.967l2.387.918v-5.259c0-4.168,3.325-5.168,6.935-3.084h0a14.45,14.45,0,0,1,6.537,11.322v.763a3.5,3.5,0,0,1,3.033.468h0a10.4,10.4,0,0,1,4.7,8.147v.347l3.328,1.922a6.846,6.846,0,0,1,3.1,5.365c0,1.975-1.387,2.776-3.1,1.788L88.666,141.121a6.846,6.846,0,0,1-3.1-5.365C85.569,133.781,86.956,132.98,88.666,133.967Z" transform="translate(-85.569 -125.49)"/><g transform="translate(28.18 7.858)"><path class="c" d="M132.781,140.478l4.327,2.5a5.3,5.3,0,0,1-.036-.573v-1.254c0-2.23,1.566-3.135,3.5-2.019a6.759,6.759,0,0,1,2.085,2c.316-2.805,2.517-3.85,5.19-2.307a11.567,11.567,0,0,1,5.234,9.064v1.875a4.939,4.939,0,0,1-.443,2.173l3.594,2.075a4.29,4.29,0,0,1,1.941,3.361c0,1.237-.869,1.739-1.941,1.12l-23.449-13.538a4.289,4.289,0,0,1-1.94-3.361C130.841,140.361,131.71,139.859,132.781,140.478Z" transform="translate(-130.841 -138.114)"/></g></g><g transform="translate(69.214 162.505)"><g transform="translate(0)"><path class="d" d="M236.825,216.061,206.48,207.3,175.035,180.77a2.849,2.849,0,0,0-3.044-.27L96.836,223.886a1.226,1.226,0,0,0-.19,2.138l31.446,26.533,30.345,8.758L191.3,289.052l33.626,11.092a4.754,4.754,0,0,0,3.391-.348l3.443-1.986,71.711-41.4c.893-.516.824-1.2-.156-1.519L269.692,243.8Z" transform="translate(-96.106 -180.18)"/><g transform="translate(31.985 27.123)"><path class="d" d="M225.88,223.754l-78.389,45.254,30.345,8.758,78.389-45.254Z" transform="translate(-147.491 -223.754)"/></g><g transform="translate(95.196 63.618)"><path class="d" d="M249.041,327.638l33.626,11.092a4.752,4.752,0,0,0,3.391-.349L361.212,295c.893-.516.824-1.2-.156-1.519L327.43,282.384Z" transform="translate(-249.041 -282.384)"/></g><g transform="translate(8.283 5.773)"><path class="e" d="M206.443,213.724l-28.763-24.269L109.413,228.87l28.763,24.27Z" transform="translate(-109.413 -189.455)"/><g transform="translate(28.763 24.269)"><path class="e" d="M254.234,237.2l-68.267,39.415-30.345-8.758,68.267-39.415Z" transform="translate(-155.621 -228.444)"/></g><g class="f" transform="translate(28.763 24.269)"><path class="e" d="M254.234,237.2l-68.267,39.415-30.345-8.758,68.267-39.415Z" transform="translate(-155.621 -228.444)"/></g><g transform="translate(59.108 33.027)"><path class="e" d="M305.5,270.251l-68.268,39.415-32.866-27.737,68.267-39.415Z" transform="translate(-204.371 -242.514)"/></g><g transform="translate(91.974 60.764)"><path class="e" d="M354.4,296.629l-68.269,39.415-28.964-9.554,68.268-39.415Z" transform="translate(-257.171 -287.074)"/></g><g class="f" transform="translate(91.974 60.764)"><path class="e" d="M354.4,296.629l-68.269,39.415-28.964-9.554,68.268-39.415Z" transform="translate(-257.171 -287.074)"/></g></g><g transform="translate(8.283 5.773)"><g transform="translate(0 33.027)"><path class="g" d="M126.064,262.951l9.584-5.839-15.171-14.6L109.413,248.9Z" transform="translate(-109.413 -242.513)"/></g><g transform="translate(13.592)"><g transform="translate(0 18.379)"><path class="g" d="M146.419,246.768l-15.171-14.6L154,218.981l15.171,14.648Z" transform="translate(-131.248 -218.981)"/></g><g transform="translate(25.285 5.29)"><path class="g" d="M171.869,209.633l15.171,14.6,7.585-4.379-2.529-21.9Z" transform="translate(-171.869 -197.954)"/></g><g transform="translate(48.041)"><path class="g" d="M210.955,215.183l-2.529-21.9,6.635-3.831,24.654,20.8Z" transform="translate(-208.427 -189.455)"/></g><g transform="translate(6.953 51.275)"><path class="g" d="M159.487,279.128l-7.586-7.3-9.483,5.475,8.219,6.935Z" transform="translate(-142.418 -271.829)"/></g><g transform="translate(18.964 36.681)"><path class="g" d="M161.714,261.517l7.586,7.3,22.732-13.124-7.569-7.308Z" transform="translate(-161.714 -248.384)"/></g><g transform="translate(44.249 28.648)"><path class="g" d="M209.92,249.347l-7.586-7.3,6.945-4.01,14.547-2.56v5.839Z" transform="translate(-202.334 -235.478)"/></g><g transform="translate(68.269 26.088)"><path class="g" d="M240.923,238.3v-4.824l12.018-2.115Z" transform="translate(-240.923 -231.366)"/></g></g></g><g transform="translate(37.046 30.042)"><g transform="translate(55.626 12.694)"><path class="b" d="M255.1,249.28c-2.794-.806-6.756-.479-8.851.73s-1.528,2.843,1.264,3.65,6.756.48,8.851-.73S257.895,250.086,255.1,249.28Z" transform="translate(-244.986 -248.838)"/></g><g transform="translate(36.662 10.219)"><path class="b" d="M235.384,246.2a8.452,8.452,0,0,0-1.569.691c-2.2,1.27-2.26,2.926-2.179,3.579a3.043,3.043,0,0,0,.355,1.1l-6.094,3.511-11.379-2.185,13.906-8.03Z" transform="translate(-214.519 -244.861)"/></g><g transform="translate(53.098)"><path class="b" d="M240.923,237.2l7.8,1.348,4,.553,13.486-7.74-10.112-2.918Z" transform="translate(-240.923 -228.444)"/></g><g transform="translate(68.314 4.866)"><path class="b" d="M295.664,240.151l-18.985,10.962-11.31-1.55a3.5,3.5,0,0,0,1.805-3.343,3.157,3.157,0,0,0-.349-1.089l15.356-8.87Z" transform="translate(-265.369 -236.261)"/></g><g transform="translate(53.058 19.239)"><path class="b" d="M265.141,261.15l-9.069,5.235-15.213-2.919,6.337-3.635.05-.031h.006a15.934,15.934,0,0,0,2.141.143,15.208,15.208,0,0,0,4.326-.591h.006Z" transform="translate(-240.859 -259.351)"/></g><g transform="translate(0 19.72)"><g transform="translate(11.379)"><path class="b" d="M196.633,260.125,173.9,273.249l11.378,2.19,22.74-13.129Z" transform="translate(-173.901 -260.125)"/></g><g transform="translate(30.334 3.638)"><path class="b" d="M242.291,268.887l-15.2-2.917L204.353,279.1l15.178,2.921Z" transform="translate(-204.353 -265.97)"/></g><g transform="translate(0 14.585)"><path class="b" d="M164.471,283.556l-8.85,5.11,10.113,2.919,10.113-5.839Z" transform="translate(-155.621 -283.556)"/><g transform="translate(16.855 3.649)"><path class="b" d="M208.827,292.34l-15.179-2.922-10.95,6.326,13.491,3.894Z" transform="translate(-182.698 -289.418)"/></g></g></g></g><g transform="translate(67.391 38.8)"><g transform="translate(53.095 11.679)"><path class="g" d="M289.668,267.115l8.449,15.559,21.893-12.64-20.228-8.759Z" transform="translate(-289.668 -261.276)"/></g><g transform="translate(0 32.118)"><path class="g" d="M217.01,294.112l2.529,4.377-.79,15.054-14.378-12.134Z" transform="translate(-204.371 -294.112)"/></g><g transform="translate(15.167 12.281)"><path class="g" d="M228.737,280.618l2.529,4.38,31.708-18.307-2.408-4.448Z" transform="translate(-228.737 -262.243)"/></g><g transform="translate(49.278)"><path class="g" d="M283.537,253.476l2.551,4.366,20.546-11.862-4.108-3.467Z" transform="translate(-283.537 -242.514)"/></g><g transform="translate(18.146 18.978)"><path class="g" d="M265.943,273l-31.608,18.249-.812,17.5,2.395,2.021,38.5-22.226Z" transform="translate(-233.523 -273.001)"/></g><g transform="translate(65.737 5.2)"><path class="g" d="M309.978,255.886l8.692-5.019L333.05,263l-2.844,1.642Z" transform="translate(-309.978 -250.868)"/></g><g transform="translate(24.649 54.013)"><path class="g" d="M243.97,335.491l10.746-6.2,5.057,8.759-7.586,4.38Z" transform="translate(-243.97 -329.287)"/></g><g transform="translate(37.924 46.714)"><rect class="g" width="11.679" height="10.114" transform="matrix(0.866, -0.5, 0.5, 0.866, 0, 5.839)"/></g><g transform="translate(50.566 38.966)"><path class="g" d="M285.607,311.4l10.891-6.288L301.338,314l-10.674,6.164Z" transform="translate(-285.607 -305.114)"/></g><g transform="translate(63.958 24.27)"><path class="g" d="M311.948,303.648l-4.828-8.891,22.007-12.706,11.061-.547,4.108,3.467Z" transform="translate(-307.12 -281.504)"/></g><g transform="translate(85.965 19.069)"><path class="g" d="M347.373,273.149l-4.9,2.828,7.888-.3Z" transform="translate(-342.475 -273.149)"/></g></g><g transform="translate(100.257 66.537)"><g transform="translate(38.085 23.005)"><path class="b" d="M328.469,324.474c-2.794-.806-6.756-.479-8.85.73s-1.529,2.843,1.264,3.65,6.756.48,8.851-.73S331.263,325.281,328.469,324.474Z" transform="translate(-318.354 -324.032)"/></g><g transform="translate(0 35.035)"><path class="b" d="M264.757,343.358l10.114,2.92-8.046,4.645-9.655-3.185Z" transform="translate(-257.171 -343.358)"/></g><g transform="translate(10.114 27.736)"><path class="b" d="M273.42,337.471l10.114,2.92,10.114-5.839-10.114-2.92Z" transform="translate(-273.42 -331.632)"/></g><g transform="translate(22.757 20.113)"><path class="b" d="M293.731,325.549l10.114,2.919,3.368-1.944s-1.6-3.574,3.137-5.068l-5.944-2.071Z" transform="translate(-293.731 -319.385)"/></g><g transform="translate(35.919 7.299)"><path class="b" d="M314.876,310.177l6.227,2.245a21.007,21.007,0,0,1,5.057,0l18.538-10.7-10.113-2.92Z" transform="translate(-314.876 -298.799)"/></g><g transform="translate(58.154)"><path class="b" d="M350.6,292.913l10.115,2.919,9.653-5.573-9.655-3.185Z" transform="translate(-350.597 -287.074)"/></g><g transform="translate(68.27 5.308)"><path class="b" d="M382.937,295.6l-16.09,9.29,12.643,4.38,16.32-9.423Z" transform="translate(-366.848 -295.602)"/></g><g transform="translate(51.993 16.058)"><path class="b" d="M354.446,312.871l-13.293,7.674a3.657,3.657,0,0,1-.456,4.538l8.692,2.386,17.7-10.219-12.337-4.2" transform="translate(-340.698 -312.871)"/></g><g transform="translate(25.286 29.85)"><path class="b" d="M330.663,337.294l-8.981-2.265s-4.329,1.694-7.971.373l-13.39,7.731-2.528,9.8,3.678,1.213Z" transform="translate(-297.793 -335.029)"/></g><g transform="translate(16.091 39.415)"><path class="b" d="M292.216,350.394l-2.119,7.643-7.076-2.334Z" transform="translate(-283.021 -350.394)"/></g></g><g transform="translate(58.227 34.708)"><path class="h" d="M245.808,283.846a.622.622,0,0,1-.317-1.158l13.312-7.851-12.355-22.562-11.626-1.833a.623.623,0,0,1-.228-1.147c1.721-1.048,2.59-2.046,2.515-2.884-.073-.8-1.073-1.65-2.676-2.266-2.4-.922-7.338-.619-9.471,1.037a2.371,2.371,0,0,0-.693,3.264.622.622,0,0,1-.2.876l-6.41,3.876a.619.619,0,0,1-.432.08l-13.471-2.416a.62.62,0,0,1-.332-.174L189.829,237a.622.622,0,1,1,.883-.877l13.458,13.549,13.047,2.34,5.712-3.453A3.574,3.574,0,0,1,224.2,244.2c2.471-1.918,7.938-2.271,10.681-1.215,1.226.472,3.307,1.529,3.468,3.316.1,1.055-.51,2.112-1.8,3.153l10.4,1.639a.624.624,0,0,1,.449.316l12.792,23.359a.623.623,0,0,1-.23.835l-13.832,8.157A.624.624,0,0,1,245.808,283.846Z" transform="translate(-189.649 -235.939)"/></g></g><g transform="translate(106.61 61.96)"><path class="i" d="M279.107,281.416l-2.131-1.224h0c-1.016-.68-2.429-.651-3.991.25-3.1,1.788-5.608,6.329-5.608,10.142v.868c0,3.813,5.126,7.956,5.126,7.956l2.1,1.185s-1.259-1.435-1.116-1.73c1.373-2.818,5.111-10.775,5.111-13.888v-.868a6.777,6.777,0,0,0-.24-1.862l.24.139Zm-6.122,8.741c-1.549.894-2.8.169-2.8-1.619.833-.131,2.93-3.71,2.8-4.858,1.549-.894,2.8-.169,2.8,1.619A6.2,6.2,0,0,1,272.985,290.157Z" transform="translate(-267.377 -279.72)"/><path class="i" d="M279.107,281.416l-2.131-1.224h0c-1.016-.68-2.429-.651-3.991.25-3.1,1.788-5.608,6.329-5.608,10.142v.868c0,3.813,5.126,7.956,5.126,7.956l2.1,1.185s-1.259-1.435-1.116-1.73c1.373-2.818,5.111-10.775,5.111-13.888v-.868a6.777,6.777,0,0,0-.24-1.862l.24.139Zm-6.122,8.741c-1.549.894-2.8.169-2.8-1.619.833-.131,2.93-3.71,2.8-4.858,1.549-.894,2.8-.169,2.8,1.619A6.2,6.2,0,0,1,272.985,290.157Z" transform="translate(-267.377 -279.72)"/><g class="j"><path class="k" d="M279.107,281.416l-2.131-1.224h0c-1.016-.68-2.429-.651-3.991.25-3.1,1.788-5.608,6.329-5.608,10.142v.868c0,3.813,5.126,7.956,5.126,7.956l2.1,1.185s-1.259-1.435-1.116-1.73c1.373-2.818,5.111-10.775,5.111-13.888v-.868a6.777,6.777,0,0,0-.24-1.862l.24.139Zm-6.122,8.741c-1.549.894-2.8.169-2.8-1.619.833-.131,2.93-3.71,2.8-4.858,1.549-.894,2.8-.169,2.8,1.619A6.2,6.2,0,0,1,272.985,290.157Z" transform="translate(-267.377 -279.72)"/></g><g transform="translate(2.243 1.295)"><path class="i" d="M282.2,286.189c0-3.813-2.511-5.454-5.609-3.666s-5.608,6.329-5.608,10.142v.868c0,2.936,3.326,6.343,4.855,7.754a.755.755,0,0,0,1.193-.222c1.321-2.7,5.17-10.85,5.17-14.009Zm-5.609,6.049c-1.549.894-2.8.169-2.8-1.619a6.2,6.2,0,0,1,2.8-4.858c1.549-.894,2.8-.169,2.8,1.619A6.2,6.2,0,0,1,276.589,292.238Z" transform="translate(-270.981 -281.8)"/></g></g><g transform="translate(50.588 14.03)"><path class="i" d="M189.107,204.416l-2.131-1.224h0c-1.017-.68-2.429-.651-3.991.25-3.1,1.788-5.608,6.329-5.608,10.142v.868c0,3.813,5.126,7.956,5.126,7.956l2.1,1.185s-1.259-1.435-1.116-1.73c1.373-2.818,5.111-10.775,5.111-13.888v-.868a6.777,6.777,0,0,0-.24-1.862l.24.139Zm-6.122,8.741c-1.549.894-2.8.169-2.8-1.619.833-.131,2.93-3.71,2.8-4.858,1.549-.894,2.8-.169,2.8,1.619A6.2,6.2,0,0,1,182.985,213.157Z" transform="translate(-177.377 -202.72)"/><path class="i" d="M189.107,204.416l-2.131-1.224h0c-1.017-.68-2.429-.651-3.991.25-3.1,1.788-5.608,6.329-5.608,10.142v.868c0,3.813,5.126,7.956,5.126,7.956l2.1,1.185s-1.259-1.435-1.116-1.73c1.373-2.818,5.111-10.775,5.111-13.888v-.868a6.777,6.777,0,0,0-.24-1.862l.24.139Zm-6.122,8.741c-1.549.894-2.8.169-2.8-1.619.833-.131,2.93-3.71,2.8-4.858,1.549-.894,2.8-.169,2.8,1.619A6.2,6.2,0,0,1,182.985,213.157Z" transform="translate(-177.377 -202.72)"/><g class="j"><path class="k" d="M189.107,204.416l-2.131-1.224h0c-1.017-.68-2.429-.651-3.991.25-3.1,1.788-5.608,6.329-5.608,10.142v.868c0,3.813,5.126,7.956,5.126,7.956l2.1,1.185s-1.259-1.435-1.116-1.73c1.373-2.818,5.111-10.775,5.111-13.888v-.868a6.777,6.777,0,0,0-.24-1.862l.24.139Zm-6.122,8.741c-1.549.894-2.8.169-2.8-1.619.833-.131,2.93-3.71,2.8-4.858,1.549-.894,2.8-.169,2.8,1.619A6.2,6.2,0,0,1,182.985,213.157Z" transform="translate(-177.377 -202.72)"/></g><g transform="translate(2.243 1.295)"><path class="i" d="M192.2,209.189c0-3.813-2.511-5.454-5.609-3.666s-5.608,6.329-5.608,10.142v.868c0,2.936,3.326,6.343,4.855,7.754a.755.755,0,0,0,1.193-.222c1.322-2.7,5.17-10.85,5.17-14.009Zm-5.609,6.049c-1.549.894-2.8.169-2.8-1.619a6.2,6.2,0,0,1,2.8-4.858c1.549-.894,2.8-.169,2.8,1.62A6.2,6.2,0,0,1,186.589,215.238Z" transform="translate(-180.981 -204.8)"/></g></g></g></g></svg>