<svg xmlns="http://www.w3.org/2000/svg" width="18.786" height="18.785" viewBox="0 0 18.786 18.785"><defs><style>.a{fill:#fff;}</style></defs><path class="a" d="M666.337,35.637h-.784a.392.392,0,0,0-.391.392v2.739H655.77V23.113h9.393v2.74a.391.391,0,0,0,.391.391h.784a.391.391,0,0,0,.391-.391v-2.74a1.565,1.565,0,0,0-1.565-1.565H655.77a1.566,1.566,0,0,0-1.566,1.565V38.767a1.566,1.566,0,0,0,1.566,1.566h9.393a1.565,1.565,0,0,0,1.565-1.566V36.028A.392.392,0,0,0,666.337,35.637Z" transform="translate(-654.204 -21.548)"/><path class="a" d="M672.542,30.331l-4.7-4.305a.391.391,0,0,0-.656.289V27.1a.391.391,0,0,0,.13.291l2.721,2.449H658.971a.391.391,0,0,0-.391.391v.782a.391.391,0,0,0,.391.392H670.04l-2.721,2.449a.39.39,0,0,0-.13.291v.782a.392.392,0,0,0,.656.289l4.7-4.305a.392.392,0,0,0,0-.577Z" transform="translate(-653.883 -21.227)"/></svg>