<svg xmlns="http://www.w3.org/2000/svg" width="19.856" height="21.275" viewBox="0 0 19.856 21.275">
  <g id="Group_39" data-name="Group 39" transform="translate(0)">
    <path id="Path_38" data-name="Path 38" d="M573.761,30.384a2.247,2.247,0,0,0-2.078-2.3c-.7-.054-1.4-.042-2.088-.03l-.546.008a.627.627,0,0,0-.554.924.7.7,0,0,0,.658.348h2.183a1.035,1.035,0,0,1,1.156,1.158v6.463a1.046,1.046,0,0,1-1.176,1.183l-15.043,0a1.326,1.326,0,0,1-.257-.018,1.018,1.018,0,0,1-.83-1.026q0-2.979,0-5.958v-.662a1.033,1.033,0,0,1,1.131-1.136h.858c.457,0,.914,0,1.373,0a.718.718,0,0,0,.531-.2.611.611,0,0,0,.171-.449.632.632,0,0,0-.691-.629l-.453,0c-.631,0-1.263-.008-1.9.005a2.25,2.25,0,0,0-2.19,1.634,3.711,3.711,0,0,0-.105.983q-.011,3.141,0,6.283a2.907,2.907,0,0,0,.052.615,2.27,2.27,0,0,0,2.308,1.828q1.623,0,3.247,0H571.36a2.279,2.279,0,0,0,2.4-2.4q0-1.148,0-2.3V32.928C573.767,32.08,573.768,31.232,573.761,30.384Z" transform="translate(-553.91 -18.132)" fill="#fff"/>
    <path id="Path_39" data-name="Path 39" d="M558.2,25.434a11.359,11.359,0,0,0,1.164,3.452,20.258,20.258,0,0,0,2.687,4.218,1.961,1.961,0,0,0,1.477.722h0a2.008,2.008,0,0,0,1.5-.736,16.863,16.863,0,0,0,1.775-2.575,15.386,15.386,0,0,0,1.955-4.586,6.717,6.717,0,0,0,.042-3.111,5.454,5.454,0,0,0-10.709,1.7l.02.2C558.139,24.912,558.165,25.174,558.2,25.434Zm1.386-2.647a4.221,4.221,0,0,1,3.981-2.718c.087,0,.173,0,.26.008a4.18,4.18,0,0,1,3.783,3.217,4.954,4.954,0,0,1,.079.618c.009.1.016.2.028.292a8.614,8.614,0,0,1-.648,2.954,20.066,20.066,0,0,1-2.964,5.053.822.822,0,0,1-.577.354h0a.777.777,0,0,1-.552-.341,16.829,16.829,0,0,1-3.434-6.553A4.851,4.851,0,0,1,559.59,22.787Z" transform="translate(-553.603 -18.809)" fill="#fff"/>
    <path id="Path_40" data-name="Path 40" d="M563.319,26.348a2.4,2.4,0,1,0-1.668-4.116,2.4,2.4,0,0,0,1.654,4.116Zm.008-3.526h0a1.124,1.124,0,0,1-.005,2.248h-.008a1.124,1.124,0,1,1,.009-2.248Z" transform="translate(-553.395 -18.608)" fill="#fff"/>
  </g>
</svg>
