<svg xmlns="http://www.w3.org/2000/svg" width="19.015" height="19.015" viewBox="0 0 19.015 19.015"><defs><style>.a{fill:#fff;}</style></defs><path class="a" d="M1299.976,229.022a10.815,10.815,0,0,0-13.372,0,7.4,7.4,0,0,0-2.822,5.7,7.492,7.492,0,0,0,2.984,5.834V244.4c0,.98.541,1.328,1,1.328a1.442,1.442,0,0,0,1-.5l2.644-2.643a11.361,11.361,0,0,0,1.875.156,10.423,10.423,0,0,0,6.686-2.313,7.172,7.172,0,0,0,0-11.4Zm-6.686,12.6a10.14,10.14,0,0,1-1.956-.189.556.556,0,0,0-.5.154l-2.85,2.849a.949.949,0,0,1-.1.089c0-.036-.005-.079-.005-.132v-4.113a.558.558,0,0,0-.224-.447,6.441,6.441,0,0,1-2.76-5.112c0-3.806,3.765-6.9,8.393-6.9s8.394,3.1,8.394,6.9S1297.919,241.625,1293.291,241.625Z" transform="translate(-1283.783 -226.708)"/><path class="a" d="M1289.609,233.684c-.37-.157-.6-.262-.6-.445,0-.254.318-.292.507-.292a1.029,1.029,0,0,1,.536.135.623.623,0,0,0,.289.091c.311,0,.477-.336.477-.579,0-.614-1.083-.645-1.3-.645-.746,0-1.616.357-1.616,1.361,0,.9.676,1.2,1.219,1.438.431.191.7.323.7.6,0,.318-.35.352-.5.352a.9.9,0,0,1-.629-.266.611.611,0,0,0-.385-.193c-.3,0-.507.352-.507.585,0,.483.721.907,1.546.907a1.417,1.417,0,0,0,1.586-1.462C1290.927,234.243,1290.165,233.92,1289.609,233.684Z" transform="translate(-1283.489 -226.324)"/><path class="a" d="M1292.762,231.977a1.41,1.41,0,0,0-1.564,1.534v1.665a1.567,1.567,0,0,0,3.133,0v-1.665A1.413,1.413,0,0,0,1292.762,231.977Zm.459,3.2c0,.36-.142.519-.459.519-.224,0-.454-.061-.454-.519v-1.665c0-.457.23-.52.454-.52.318,0,.459.161.459.52Z" transform="translate(-1283.239 -226.322)"/><path class="a" d="M1296.383,233.684c-.37-.157-.6-.262-.6-.445,0-.254.318-.292.507-.292a1.029,1.029,0,0,1,.536.135.623.623,0,0,0,.288.091c.312,0,.478-.336.478-.579,0-.614-1.084-.645-1.3-.645-.746,0-1.618.357-1.618,1.361,0,.9.677,1.2,1.22,1.438.432.191.7.323.7.6,0,.318-.351.352-.5.352a.9.9,0,0,1-.629-.266.612.612,0,0,0-.385-.193c-.3,0-.508.352-.508.585,0,.483.722.907,1.546.907a1.418,1.418,0,0,0,1.588-1.462C1297.7,234.243,1296.939,233.92,1296.383,233.684Z" transform="translate(-1282.992 -226.324)"/></svg>