<svg xmlns="http://www.w3.org/2000/svg" viewBox="0 0 30 30"><defs><style>.cls-1{fill:#5acaf8;}.cls-2{fill:#fff;}</style></defs><title>message_blue</title><g id="Layer_2" data-name="Layer 2"><g id="specctr"><circle class="cls-1" cx="15" cy="15" r="15"/><path class="cls-2" d="M21,8.92H9a2,2,0,0,0-2,2v8.24a2,2,0,0,0,2,2H21a2,2,0,0,0,1.95-2V10.88A2,2,0,0,0,21,8.92Zm1.07,10.2A1.06,1.06,0,0,1,21,20.18H9a1.05,1.05,0,0,1-1.06-1.06V10.88A1.06,1.06,0,0,1,9,9.82H21a1.06,1.06,0,0,1,1.06,1.06v8.24Z"/><path class="cls-2" d="M17.09,14.9,21,11.4a.45.45,0,0,0-.6-.67L15,15.56l-1-.93h0l-.07-.07L9.6,10.73a.44.44,0,0,0-.63,0,.46.46,0,0,0,0,.64l4,3.53L9,18.61a.45.45,0,0,0,0,.63.43.43,0,0,0,.32.14.51.51,0,0,0,.31-.11l4-3.74,1.08,1a.5.5,0,0,0,.3.11.42.42,0,0,0,.3-.12l1.11-1,4,3.77a.47.47,0,0,0,.31.12.43.43,0,0,0,.32-.14.44.44,0,0,0,0-.63Z"/></g></g></svg>