<svg xmlns="http://www.w3.org/2000/svg" viewBox="0 0 73.32 51.99"><defs><style>.cls-1{fill:#fbb544;}</style></defs><title>on road</title><g id="Layer_2" data-name="Layer 2"><g id="specctr"><path class="cls-1" d="M26.44,23.89a.85.85,0,0,1-.4-.1l-5.11-2.55a.89.89,0,0,1-.49-.8V12.77a.9.9,0,0,1,1.79,0v7.11l4.61,2.31a.9.9,0,0,1-.4,1.7Z"/><path class="cls-1" d="M57.09,28.1V17.88a2.56,2.56,0,0,1,2.56-2.55H67l-.87-2a5.11,5.11,0,0,0-4.69-3.09H44.32V46h7.79a6.52,6.52,0,0,1,.23-3.39,6.29,6.29,0,0,1,4.44-4.08,6.4,6.4,0,0,1,8,6.19A6.69,6.69,0,0,1,64.63,46h7.79V28.1Z"/><path class="cls-1" d="M58.37,52a7.29,7.29,0,1,1,7.28-7.29A7.3,7.3,0,0,1,58.37,52Zm0-12.78a5.49,5.49,0,1,0,5.49,5.49A5.5,5.5,0,0,0,58.37,39.21Z"/><path class="cls-1" d="M17.5,52a7.29,7.29,0,1,1,7.28-7.29A7.29,7.29,0,0,1,17.5,52Zm0-12.78A5.49,5.49,0,1,0,23,44.7,5.5,5.5,0,0,0,17.5,39.21Z"/><path class="cls-1" d="M72.42,44.32H69.87a.9.9,0,1,1,0-1.79h2.55a.9.9,0,1,1,0,1.79Z"/><path class="cls-1" d="M6,44.32H.9a.9.9,0,1,1,0-1.79H6a.9.9,0,1,1,0,1.79Z"/><path class="cls-1" d="M39.21,0H6A5.1,5.1,0,0,0,.9,5.11V46H11.24a6.62,6.62,0,0,1,.22-3.39,6.32,6.32,0,0,1,4.45-4.08,6.4,6.4,0,0,1,8,6.19A6.69,6.69,0,0,1,23.76,46H44.32V5.11A5.11,5.11,0,0,0,39.21,0ZM21.33,33.21A12.78,12.78,0,1,1,34.1,20.44,12.77,12.77,0,0,1,21.33,33.21Z"/></g></g></svg>