
<svg id="Group_18" data-name="Group 18" xmlns="http://www.w3.org/2000/svg" width="13.841" height="17.952" viewBox="0 0 13.841 17.952">
  <g id="Group_17" data-name="Group 17">
    <g id="Group_16" data-name="Group 16">
      <g id="Group_15" data-name="Group 15">
        <path id="Path_2" data-name="Path 2" d="M1180.648,234.392c-.673-.79-1.362-1.528-1.967-2.329a2.552,2.552,0,1,1,4.51-1.418,2.284,2.284,0,0,1-.375,1.033,10.075,10.075,0,0,1-.648.9C1181.683,233.172,1181.183,233.756,1180.648,234.392Zm.032-5.166a1.253,1.253,0,0,0-1.27,1.233,1.254,1.254,0,0,0,2.508.044A1.243,1.243,0,0,0,1180.681,229.227Z" transform="translate(-1178.112 -227.887)" fill="#499e43"/>
        <path id="Path_3" data-name="Path 3" d="M1188.76,245c-.675-.792-1.37-1.527-1.969-2.333a2.554,2.554,0,1,1,4.512-1.877,2.292,2.292,0,0,1-.35,1.449,7.374,7.374,0,0,1-.6.847C1189.847,243.718,1189.321,244.334,1188.76,245Zm-1.233-3.914a1.254,1.254,0,0,0,1.262,1.256,1.269,1.269,0,0,0,1.247-1.259,1.255,1.255,0,0,0-2.51,0Z" transform="translate(-1177.518 -227.109)" fill="#499e43"/>
        <path id="Path_4" data-name="Path 4" d="M1186.85,233.812a.342.342,0,0,1,.394-.355c.26.028.518.064.776.106a.351.351,0,0,1,.312.4.36.36,0,0,1-.438.289q-.352-.052-.705-.1A.347.347,0,0,1,1186.85,233.812Z" transform="translate(-1177.471 -227.479)" fill="#499e43"/>
        <path id="Path_5" data-name="Path 5" d="M1180.669,242.347c0,.332-.293.521-.512.361a5.354,5.354,0,0,1-.7-.647.315.315,0,0,1,.049-.449.34.34,0,0,1,.469,0c.2.178.4.355.587.543A.678.678,0,0,1,1180.669,242.347Z" transform="translate(-1178.019 -226.888)" fill="#499e43"/>
        <path id="Path_6" data-name="Path 6" d="M1185.515,233.311c.235.015.437.026.638.043a.35.35,0,1,1-.039.7q-.4-.014-.8-.054a.345.345,0,1,1,.038-.688C1185.418,233.31,1185.484,233.311,1185.515,233.311Z" transform="translate(-1177.608 -227.489)" fill="#499e43"/>
        <path id="Path_7" data-name="Path 7" d="M1184.007,238.773c-.245,0-.386-.116-.417-.29a.337.337,0,0,1,.245-.384c.282-.069.568-.129.854-.177a.338.338,0,0,1,.371.266.322.322,0,0,1-.213.4C1184.552,238.668,1184.247,238.722,1184.007,238.773Z" transform="translate(-1177.711 -227.152)" fill="#499e43"/>
        <path id="Path_8" data-name="Path 8" d="M1181.776,238.82a.3.3,0,0,1,.231-.3c.268-.076.538-.149.81-.206a.344.344,0,0,1,.423.262.349.349,0,0,1-.272.415c-.258.071-.516.138-.776.2A.347.347,0,0,1,1181.776,238.82Z" transform="translate(-1177.843 -227.123)" fill="#499e43"/>
        <path id="Path_9" data-name="Path 9" d="M1181.45,239.177a.33.33,0,0,1-.214.319c-.239.105-.477.214-.717.317a.348.348,0,0,1-.456-.157.324.324,0,0,1,.126-.45,7.32,7.32,0,0,1,.829-.366A.333.333,0,0,1,1181.45,239.177Z" transform="translate(-1177.972 -227.085)" fill="#499e43"/>
        <path id="Path_10" data-name="Path 10" d="M1185.5,244.473c-.222-.042-.51-.087-.793-.151a.338.338,0,0,1-.249-.382.333.333,0,0,1,.366-.291c.294.038.587.09.877.153a.334.334,0,0,1,.238.387C1185.912,244.366,1185.763,244.479,1185.5,244.473Z" transform="translate(-1177.647 -226.732)" fill="#499e43"/>
        <path id="Path_11" data-name="Path 11" d="M1188.682,234.2c0-.273.186-.458.394-.4a7.531,7.531,0,0,1,.859.289.334.334,0,0,1,.17.451.352.352,0,0,1-.448.184l-.708-.237C1188.785,234.424,1188.686,234.321,1188.682,234.2Z" transform="translate(-1177.337 -227.455)" fill="#499e43"/>
        <path id="Path_12" data-name="Path 12" d="M1190.416,236.618a1.155,1.155,0,0,1-.209.288,7.1,7.1,0,0,1-.716.43.337.337,0,0,1-.469-.152.351.351,0,0,1,.158-.471,7.442,7.442,0,0,1,.643-.377.49.49,0,0,1,.364-.01C1190.281,236.368,1190.332,236.505,1190.416,236.618Z" transform="translate(-1177.315 -227.271)" fill="#499e43"/>
        <path id="Path_13" data-name="Path 13" d="M1181.959,243.583a.481.481,0,0,1-.109-.024c-.248-.1-.5-.2-.738-.31a.345.345,0,0,1-.175-.478.352.352,0,0,1,.472-.152c.236.1.472.193.706.294a.346.346,0,0,1,.215.387A.353.353,0,0,1,1181.959,243.583Z" transform="translate(-1177.908 -226.809)" fill="#499e43"/>
        <path id="Path_14" data-name="Path 14" d="M1187.592,238.01a.387.387,0,0,1-.353-.3.328.328,0,0,1,.207-.389c.281-.094.566-.177.853-.251a.334.334,0,0,1,.373.21.33.33,0,0,1-.137.42C1188.226,237.819,1187.906,237.908,1187.592,238.01Z" transform="translate(-1177.443 -227.214)" fill="#499e43"/>
        <path id="Path_15" data-name="Path 15" d="M1185.827,238.4a.364.364,0,0,1-.407-.289.33.33,0,0,1,.24-.386c.275-.07.554-.132.834-.179a.328.328,0,0,1,.388.257.335.335,0,0,1-.26.42C1186.342,238.3,1186.058,238.353,1185.827,238.4Z" transform="translate(-1177.577 -227.179)" fill="#499e43"/>
        <path id="Path_16" data-name="Path 16" d="M1183.693,244.115c-.238-.069-.555-.146-.862-.251a.322.322,0,0,1-.172-.392.318.318,0,0,1,.345-.25,8.391,8.391,0,0,1,.926.242.318.318,0,0,1,.18.385C1184.077,244,1183.937,244.111,1183.693,244.115Z" transform="translate(-1177.78 -226.763)" fill="#499e43"/>
        <path id="Path_17" data-name="Path 17" d="M1191.063,235.4c-.04.2-.059.364-.1.516a.334.334,0,0,1-.409.23.323.323,0,0,1-.259-.37,1.311,1.311,0,0,0-.029-.682.311.311,0,0,1,.219-.379.323.323,0,0,1,.423.163A4.5,4.5,0,0,1,1191.063,235.4Z" transform="translate(-1177.222 -227.388)" fill="#499e43"/>
        <path id="Path_18" data-name="Path 18" d="M1178.976,240.791a1.471,1.471,0,0,1,.242-.774.351.351,0,0,1,.5-.144.368.368,0,0,1,.1.5,1.578,1.578,0,0,0-.147.451c-.041.3-.158.453-.381.435S1178.964,241.077,1178.976,240.791Z" transform="translate(-1178.049 -227.012)" fill="#499e43"/>
        <path id="Path_19" data-name="Path 19" d="M1183.872,233.955c-.136,0-.274.005-.41,0a.335.335,0,1,1,0-.671c.274-.006.548-.008.822,0a.325.325,0,0,1,.336.34.331.331,0,0,1-.339.338c-.136,0-.274,0-.411,0Z" transform="translate(-1177.744 -227.492)" fill="#499e43"/>
        <path id="Path_20" data-name="Path 20" d="M1186.913,244.661c-.066-.007-.186-.018-.3-.036a.349.349,0,0,1,.079-.692c.113.006.225.02.337.035.261.036.391.173.375.386S1187.227,244.678,1186.913,244.661Z" transform="translate(-1177.51 -226.711)" fill="#499e43"/>
        <path id="Path_21" data-name="Path 21" d="M1182.192,233.98a1.766,1.766,0,0,1-.283-.017.345.345,0,0,1,.039-.677,3.932,3.932,0,0,1,.464-.011.344.344,0,0,1,.013.686c-.076.006-.155,0-.232,0Z" transform="translate(-1177.853 -227.492)" fill="#499e43"/>
      </g>
    </g>
  </g>
</svg>
