<svg xmlns="http://www.w3.org/2000/svg" viewBox="0 0 16.99 22.64"><defs><style>.cls-1{fill:#303c42;}.cls-2{fill:#e57373;}.cls-3{fill:#fff;}.cls-4{opacity:0.1;isolation:isolate;}</style></defs><title>pickup</title><g id="Layer_2" data-name="Layer 2"><g id="specctr"><path class="cls-1" d="M9,0A8,8,0,0,0,1,8c0,5.9,7.38,12.91,7.69,13.2a.47.47,0,0,0,.31.12.42.42,0,0,0,.3-.12C9.62,20.91,17,13.9,17,8A8,8,0,0,0,9,0Z"/><path class="cls-2" d="M9,20.26C7.6,18.86,1.89,12.86,1.89,8A7.11,7.11,0,1,1,16.1,8C16.1,12.86,10.39,18.86,9,20.26Z"/><circle class="cls-1" cx="9" cy="8" r="4.44"/><circle class="cls-3" cx="9" cy="8" r="3.55"/><path class="cls-4" d="M6.78,9.77a3.55,3.55,0,0,1,3.55-3.55,3.48,3.48,0,0,1,2,.63A3.55,3.55,0,1,0,7,10.92,3.6,3.6,0,0,1,6.78,9.77Z"/><path class="cls-1" d="M3.81,22.14a1,1,0,0,1-1-1V16.06l-.65.58a1,1,0,0,1-.66.25,1,1,0,0,1-.66-1.75l3-2.65,2.81,2.67a1,1,0,0,1,.31.7,1,1,0,0,1-.28.72,1,1,0,0,1-.72.31H6a1,1,0,0,1-.69-.28l-.45-.43v5A1,1,0,0,1,3.81,22.14Z"/><path class="cls-3" d="M3.82,13.17,6.3,15.52a.5.5,0,0,1,0,.71.48.48,0,0,1-.36.16.49.49,0,0,1-.34-.14L4.3,15v6.13a.5.5,0,0,1-.5.5.5.5,0,0,1-.5-.5V15a.3.3,0,0,1,0-.1l-1.5,1.32a.46.46,0,0,1-.33.13.48.48,0,0,1-.37-.17.5.5,0,0,1,0-.71l2.65-2.34m0,1.37h0m0-2.73-.69.61L.51,14.76a1.55,1.55,0,0,0-.51,1,1.48,1.48,0,0,0,.38,1.08,1.49,1.49,0,0,0,1.12.51,1.54,1.54,0,0,0,.81-.24v4a1.5,1.5,0,0,0,3,0v-3.9a1.43,1.43,0,0,0,.64.15A1.5,1.5,0,0,0,7,14.8L4.51,12.44l-.66-.63Z"/></g></g></svg>