<svg height="43.523" viewBox="0 0 33.485 43.523" width="33.485" xmlns="http://www.w3.org/2000/svg"><path d="m640.719 153.139a16.7 16.7 0 1 0 -27.9 18.266c1.937 2.6 4 5.1 6.019 7.637 2.418 3.044 4.844 6.081 7.335 9.207a4.607 4.607 0 0 0 .363-.347c4.374-5.508 8.814-10.966 13.1-16.545a16.389 16.389 0 0 0 1.083-18.218z" fill="#e0541a" transform="translate(-609.489 -144.725)"/><g fill="#fff"><path d="m625.956 148.59a12.695 12.695 0 0 0 -5.468 24.155l.4-7.683s-.748-.245-.912-.325c-1.586-.7-2.738-2.756-2.738-5.426 0-2.914 2.259-5.424 4.444-5.445h.009c2.185.021 4.445 2.531 4.445 5.445 0 2.669-1.154 4.726-2.736 5.426l-.92.335.444 8.543a12.46 12.46 0 0 0 7.074-.287l.394-7.612a4.086 4.086 0 0 1 -2.478-1.716c-.686-1.028.529-10.133.529-10.133h.791v8.545h.785v-8.544h.859v8.545h.781v-8.545h.891v8.545h.785v-8.545h.606s1.215 9.105.528 10.133a4.094 4.094 0 0 1 -2.449 1.712l-.035.013.342 6.548a12.7 12.7 0 0 0 -6.37-23.683z" transform="translate(-609.213 -144.442)"/><path d="m618.766 157.414a3.434 3.434 0 0 1 .109-.364.167.167 0 0 0 -.092-.186.153.153 0 0 0 -.2.043s-.087.138-.213.343a3.682 3.682 0 0 0 -.358.807 6.745 6.745 0 0 0 -.245 1.172 5.617 5.617 0 0 0 -.017.679 3.136 3.136 0 0 0 .13.72 4.648 4.648 0 0 0 1.136 2.074 3.888 3.888 0 0 0 .606.492l.058.041c.034.024.069.044.1.063a1.147 1.147 0 0 0 .245.1.145.145 0 0 0 .167-.07.148.148 0 0 0 -.049-.176 1.531 1.531 0 0 1 -.18-.2 3.568 3.568 0 0 1 -.233-.319c-.062-.09-.135-.192-.2-.292a10.245 10.245 0 0 1 -.8-1.973 2.631 2.631 0 0 1 -.112-.543 5.579 5.579 0 0 1 -.032-.581 7.759 7.759 0 0 1 .048-1.078 4.177 4.177 0 0 1 .132-.752z" transform="translate(-608.883 -143.837)"/></g></svg>