<svg xmlns="http://www.w3.org/2000/svg" viewBox="0 0 30 30"><defs><style>.cls-1{fill:#5acaf8;}.cls-2{fill:#fff;}</style></defs><title>route_blue</title><g id="Layer_2" data-name="Layer 2"><g id="specctr"><circle class="cls-1" cx="15" cy="15" r="15"/><path class="cls-2" d="M12.31,14.69a3.35,3.35,0,0,0-5.12,0,4.4,4.4,0,0,0,0,5.67l2.56,2.89,2.56-2.89A4.4,4.4,0,0,0,12.31,14.69ZM11.86,20,9.75,22.35,7.64,20a3.77,3.77,0,0,1,0-4.87,2.78,2.78,0,0,1,2.11-1,2.82,2.82,0,0,1,2.11,1A3.77,3.77,0,0,1,11.86,20Z"/><path class="cls-2" d="M20.62,13.35l1.94-2.18a3.29,3.29,0,0,0,0-4.27A2.56,2.56,0,0,0,20.62,6a2.6,2.6,0,0,0-1.94.9,3.31,3.31,0,0,0,0,4.27Zm-1.49-6a1.94,1.94,0,0,1,3,0,2.68,2.68,0,0,1,0,3.47l-1.49,1.68-1.49-1.68A2.68,2.68,0,0,1,19.13,7.3Z"/><path class="cls-2" d="M21.78,22.36a.3.3,0,0,0-.36.22,1,1,0,0,1-.2.42.3.3,0,0,0,.05.42.33.33,0,0,0,.19.06.29.29,0,0,0,.24-.11,1.74,1.74,0,0,0,.31-.66A.3.3,0,0,0,21.78,22.36Z"/><path class="cls-2" d="M15.6,15.3a1,1,0,0,1-.38-.07.29.29,0,0,0-.38.17.29.29,0,0,0,.17.39,1.67,1.67,0,0,0,.59.11h.1a.3.3,0,0,0,0-.6Z"/><path class="cls-2" d="M14.89,13.4a.26.26,0,0,0,.15,0,.89.89,0,0,1,.44-.15.31.31,0,0,0,.27-.33.3.3,0,0,0-.33-.27,1.67,1.67,0,0,0-.69.24.3.3,0,0,0-.1.41A.31.31,0,0,0,14.89,13.4Z"/><path class="cls-2" d="M11.42,23.4h-.6a.3.3,0,0,0,0,.6h.6a.29.29,0,0,0,.3-.3A.3.3,0,0,0,11.42,23.4Z"/><path class="cls-2" d="M16.8,18h-.08a.32.32,0,0,0-.29.31.3.3,0,0,0,.3.29h.6a.3.3,0,0,0,0-.6Z"/><path class="cls-2" d="M16.65,13.2h.6a.3.3,0,0,0,0-.6h-.6a.3.3,0,0,0,0,.6Z"/><path class="cls-2" d="M20.33,18a.3.3,0,0,0,0,.6h.6a.3.3,0,0,0,0-.6Z"/><path class="cls-2" d="M21.41,15.6a.3.3,0,0,0-.3-.3h-.6a.3.3,0,1,0,0,.6h.6A.3.3,0,0,0,21.41,15.6Z"/><path class="cls-2" d="M18.53,18.6h.6a.3.3,0,0,0,0-.6h-.6a.3.3,0,0,0,0,.6Z"/><path class="cls-2" d="M19.05,13.2a.3.3,0,0,0,0-.6h-.6a.3.3,0,1,0,0,.6Z"/><path class="cls-2" d="M16.91,15.3a.3.3,0,1,0,0,.6h.6a.3.3,0,1,0,0-.6Z"/><path class="cls-2" d="M19.61,15.6a.3.3,0,0,0-.3-.3h-.6a.3.3,0,0,0,0,.6h.6A.3.3,0,0,0,19.61,15.6Z"/><path class="cls-2" d="M23.83,16.69a.31.31,0,0,0-.35-.25.29.29,0,0,0-.24.34c0,.06,0,.11,0,.17a1.54,1.54,0,0,1,0,.3.29.29,0,0,0,.2.37h.08a.3.3,0,0,0,.29-.21,1.53,1.53,0,0,0,.07-.47A2.46,2.46,0,0,0,23.83,16.69Z"/><path class="cls-2" d="M18.62,23.4H18a.3.3,0,0,0,0,.6h.6a.29.29,0,0,0,.3-.3A.3.3,0,0,0,18.62,23.4Z"/><path class="cls-2" d="M16.82,23.4h-.6a.3.3,0,0,0,0,.6h.6a.29.29,0,0,0,.3-.3A.3.3,0,0,0,16.82,23.4Z"/><path class="cls-2" d="M20.12,21a.29.29,0,0,0-.3-.3h-.6a.3.3,0,0,0,0,.6h.6A.29.29,0,0,0,20.12,21Z"/><path class="cls-2" d="M18.32,21a.29.29,0,0,0-.3-.3h-.6a.3.3,0,0,0,0,.6H18A.29.29,0,0,0,18.32,21Z"/><path class="cls-2" d="M20.4,23.4h-.58a.3.3,0,0,0,0,.6h.59v0a.29.29,0,0,0,.29-.3A.31.31,0,0,0,20.4,23.4Z"/><path class="cls-2" d="M21.46,21.82a.31.31,0,0,0,.18-.07.29.29,0,0,0,.05-.42,1.67,1.67,0,0,0-.56-.46.3.3,0,0,0-.4.14.3.3,0,0,0,.13.4,1,1,0,0,1,.36.29A.3.3,0,0,0,21.46,21.82Z"/><path class="cls-2" d="M22.6,17.92a1.1,1.1,0,0,1-.4.08h-.07a.3.3,0,0,0,0,.6h.07a1.59,1.59,0,0,0,.64-.13.3.3,0,0,0,.16-.39A.31.31,0,0,0,22.6,17.92Z"/><path class="cls-2" d="M14.41,15a.3.3,0,0,0,.19-.38,1.26,1.26,0,0,1,0-.33.57.57,0,0,1,0-.13A.3.3,0,1,0,14,14a1.48,1.48,0,0,0,0,.21,1.82,1.82,0,0,0,.08.52.3.3,0,0,0,.28.2Z"/><path class="cls-2" d="M13.22,23.4h-.6a.3.3,0,0,0,0,.6h.6a.29.29,0,0,0,.3-.3A.3.3,0,0,0,13.22,23.4Z"/><path class="cls-2" d="M16.24,21.18a.3.3,0,0,0,.27-.18.29.29,0,0,0-.15-.39,1.16,1.16,0,0,1-.37-.29.3.3,0,0,0-.46.39,1.66,1.66,0,0,0,.58.44A.28.28,0,0,0,16.24,21.18Z"/><path class="cls-2" d="M23,15.52a1.65,1.65,0,0,0-.69-.22.3.3,0,0,0-.32.28.29.29,0,0,0,.27.32,1.08,1.08,0,0,1,.44.14.3.3,0,0,0,.41-.11A.29.29,0,0,0,23,15.52Z"/><path class="cls-2" d="M15,23.4h-.6a.3.3,0,0,0,0,.6H15a.29.29,0,0,0,.3-.3A.3.3,0,0,0,15,23.4Z"/><path class="cls-2" d="M15.77,19.45A1.12,1.12,0,0,1,16,19a.3.3,0,1,0-.48-.36,1.54,1.54,0,0,0-.29.67.3.3,0,0,0,.24.35h.05A.31.31,0,0,0,15.77,19.45Z"/><path class="cls-2" d="M20.7,10.5a1.65,1.65,0,1,0-1.65-1.65A1.65,1.65,0,0,0,20.7,10.5Zm0-2.7a1,1,0,1,1-1.05,1A1,1,0,0,1,20.7,7.8Z"/><path class="cls-2" d="M9.75,15.3a1.8,1.8,0,1,0,1.8,1.8A1.81,1.81,0,0,0,9.75,15.3Zm0,3A1.2,1.2,0,1,1,11,17.1,1.2,1.2,0,0,1,9.75,18.3Z"/></g></g></svg>