<svg xmlns="http://www.w3.org/2000/svg" viewBox="0 0 31 31"><defs><style>.cls-1{fill:none;stroke:#5acaf8;stroke-miterlimit:10;}.cls-2{fill:#5acaf8;}</style></defs><title>statistics1</title><g id="Layer_2" data-name="Layer 2"><g id="specctr"><circle class="cls-1" cx="15.5" cy="15.5" r="15"/><path class="cls-2" d="M22.79,22.26h-14v-14a.53.53,0,0,0-1,0V22.79a.52.52,0,0,0,.52.52H22.79a.52.52,0,0,0,.52-.52A.53.53,0,0,0,22.79,22.26Z"/><path class="cls-2" d="M9.78,20.66a.51.51,0,0,0,.37-.15l4.37-4.37.33.82a.52.52,0,0,0,.38.31.57.57,0,0,0,.48-.14l4.76-4.77-.09.68a.5.5,0,0,0,.44.59h.07a.53.53,0,0,0,.52-.45l.33-2.28v0l0-.16-.12-.21-.14-.11-.26-.06-2.29.33a.54.54,0,0,0-.45.6.53.53,0,0,0,.6.44l.67-.1-4.2,4.21L15.19,15a.5.5,0,0,0-.38-.31.49.49,0,0,0-.47.14L9.41,19.77a.52.52,0,0,0,.37.89Z"/></g></g></svg>