<svg xmlns="http://www.w3.org/2000/svg" width="26.877" height="34.393" viewBox="0 0 26.877 34.393">
  <g id="today-afternoon" transform="translate(1176.651 -3425.497)">
    <path id="Path_45" data-name="Path 45" d="M843.779,645.495a12.733,12.733,0,1,0-21.268,13.923c1.477,1.98,3.052,3.886,4.588,5.821,1.843,2.321,3.693,4.636,5.591,7.018a3.51,3.51,0,0,0,.276-.263c3.335-4.2,6.72-8.36,9.985-12.612a12.494,12.494,0,0,0,.828-13.887Z" transform="translate(-1995.993 2786.917)" fill="#a66bd9" stroke="#fff" stroke-width="1"/>
    <circle id="Ellipse_184" data-name="Ellipse 184" cx="6" cy="6" r="6" transform="translate(-1169 3433)" fill="#1272c7"/>
    <path id="Path_46" data-name="Path 46" d="M836.893,660.966a2.528,2.528,0,0,1,2.272-1.311,1.372,1.372,0,0,0,1.525-1.528A2.523,2.523,0,0,1,842,655.86a1.369,1.369,0,0,0,.558-2.081,2.527,2.527,0,0,1,0-2.621A1.364,1.364,0,0,0,842,649.08a2.533,2.533,0,0,1-1.308-2.275,1.37,1.37,0,0,0-1.525-1.522,2.532,2.532,0,0,1-2.272-1.312,1.366,1.366,0,0,0-2.079-.557,2.528,2.528,0,0,1-2.622,0,1.367,1.367,0,0,0-2.08.557,2.527,2.527,0,0,1-2.271,1.312,1.369,1.369,0,0,0-1.523,1.522,2.543,2.543,0,0,1-1.311,2.275,1.363,1.363,0,0,0-.557,2.077,2.521,2.521,0,0,1,0,2.621,1.366,1.366,0,0,0,.557,2.081,2.527,2.527,0,0,1,1.311,2.267,1.371,1.371,0,0,0,1.523,1.528,2.528,2.528,0,0,1,2.272,1.311,1.364,1.364,0,0,0,2.079.556,2.55,2.55,0,0,1,2.622,0,1.365,1.365,0,0,0,2.077-.555Zm-3.387-3.013a5.485,5.485,0,1,1,5.483-5.486,5.485,5.485,0,0,1-5.483,5.486Z" transform="translate(-1996.758 2786.178)" fill="#fff"/>
  </g>
</svg>
