<svg xmlns="http://www.w3.org/2000/svg" viewBox="0 0 17.7 18"><defs><style>.cls-1{fill:#d1d1d1;}</style></defs><title>Asset 26</title><g id="Layer_2" data-name="Layer 2"><g id="specctr"><path class="cls-1" d="M6.15,8.69A3.39,3.39,0,0,0,3.6,7.5,3.39,3.39,0,0,0,1,8.69a4.38,4.38,0,0,0,0,5.67L3.6,17.25l2.55-2.89A4.38,4.38,0,0,0,6.15,8.69ZM5.7,14,3.6,16.35,1.49,14a3.77,3.77,0,0,1,0-4.87,2.78,2.78,0,0,1,2.11-1,2.78,2.78,0,0,1,2.1,1A3.77,3.77,0,0,1,5.7,14Z"/><path class="cls-1" d="M14.47,7.35l1.94-2.18a3.31,3.31,0,0,0,0-4.27A2.56,2.56,0,0,0,14.47,0a2.6,2.6,0,0,0-1.94.9,3.31,3.31,0,0,0,0,4.27ZM13,1.3a1.94,1.94,0,0,1,3,0,2.68,2.68,0,0,1,0,3.47L14.47,6.45,13,4.77A2.68,2.68,0,0,1,13,1.3Z"/><path class="cls-1" d="M15.63,16.36a.3.3,0,0,0-.36.22,1,1,0,0,1-.2.42.3.3,0,0,0,0,.42.33.33,0,0,0,.19.06.27.27,0,0,0,.23-.11,1.76,1.76,0,0,0,.32-.66A.3.3,0,0,0,15.63,16.36Z"/><path class="cls-1" d="M9.45,9.3a1,1,0,0,1-.38-.07.31.31,0,0,0-.39.17.3.3,0,0,0,.18.39,1.63,1.63,0,0,0,.59.11h.1a.3.3,0,0,0,0-.6Z"/><path class="cls-1" d="M8.73,7.4a.29.29,0,0,0,.16,0,.89.89,0,0,1,.44-.15.3.3,0,0,0,.26-.33.29.29,0,0,0-.33-.27,1.73,1.73,0,0,0-.69.24.29.29,0,0,0-.09.41A.3.3,0,0,0,8.73,7.4Z"/><path class="cls-1" d="M5.27,17.4h-.6a.3.3,0,0,0,0,.6h.6a.3.3,0,0,0,0-.6Z"/><path class="cls-1" d="M10.65,12h-.08a.31.31,0,0,0-.29.31.3.3,0,0,0,.3.29h.6a.3.3,0,0,0,0-.6Z"/><path class="cls-1" d="M10.5,7.2h.6a.3.3,0,1,0,0-.6h-.6a.3.3,0,1,0,0,.6Z"/><path class="cls-1" d="M14.18,12a.3.3,0,0,0,0,.6h.6a.3.3,0,0,0,0-.6Z"/><path class="cls-1" d="M15.25,9.6a.29.29,0,0,0-.3-.3h-.6a.3.3,0,0,0,0,.6H15A.29.29,0,0,0,15.25,9.6Z"/><path class="cls-1" d="M12.38,12.6H13a.3.3,0,1,0,0-.6h-.6a.3.3,0,1,0,0,.6Z"/><path class="cls-1" d="M12.9,7.2a.3.3,0,1,0,0-.6h-.6a.3.3,0,1,0,0,.6Z"/><path class="cls-1" d="M10.75,9.3a.3.3,0,1,0,0,.6h.6a.3.3,0,0,0,0-.6Z"/><path class="cls-1" d="M13.45,9.6a.29.29,0,0,0-.3-.3h-.6a.3.3,0,1,0,0,.6h.6A.29.29,0,0,0,13.45,9.6Z"/><path class="cls-1" d="M17.68,10.69a.3.3,0,0,0-.6.09,1,1,0,0,1,0,.17,1,1,0,0,1-.05.3.31.31,0,0,0,.21.37h.08a.3.3,0,0,0,.29-.21A1.91,1.91,0,0,0,17.7,11,2.46,2.46,0,0,0,17.68,10.69Z"/><path class="cls-1" d="M12.47,17.4h-.6a.3.3,0,0,0,0,.6h.6a.3.3,0,1,0,0-.6Z"/><path class="cls-1" d="M10.67,17.4h-.6a.3.3,0,0,0,0,.6h.6a.3.3,0,0,0,0-.6Z"/><path class="cls-1" d="M14,15a.3.3,0,0,0-.3-.3h-.6a.3.3,0,0,0,0,.6h.6A.3.3,0,0,0,14,15Z"/><path class="cls-1" d="M12.17,15a.3.3,0,0,0-.3-.3h-.6a.3.3,0,0,0,0,.6h.6A.3.3,0,0,0,12.17,15Z"/><path class="cls-1" d="M14.25,17.4h-.58a.3.3,0,0,0,0,.6h.59v0a.29.29,0,0,0,.29-.3A.31.31,0,0,0,14.25,17.4Z"/><path class="cls-1" d="M15.31,15.82a.31.31,0,0,0,.18-.07.3.3,0,0,0,0-.42,1.67,1.67,0,0,0-.56-.46.3.3,0,0,0-.4.14.29.29,0,0,0,.13.4,1.12,1.12,0,0,1,.36.29A.3.3,0,0,0,15.31,15.82Z"/><path class="cls-1" d="M16.45,11.92a1.1,1.1,0,0,1-.4.08H16a.3.3,0,1,0,0,.6h.07a1.51,1.51,0,0,0,.63-.13.29.29,0,0,0,.16-.39A.29.29,0,0,0,16.45,11.92Z"/><path class="cls-1" d="M8.26,9a.31.31,0,0,0,.19-.38,1,1,0,0,1,0-.33V8.12A.3.3,0,1,0,7.81,8a1.48,1.48,0,0,0,0,.21,1.53,1.53,0,0,0,.08.52.3.3,0,0,0,.28.2Z"/><path class="cls-1" d="M7.07,17.4h-.6a.3.3,0,0,0,0,.6h.6a.3.3,0,1,0,0-.6Z"/><path class="cls-1" d="M10.08,15.18a.31.31,0,0,0,.28-.18.29.29,0,0,0-.15-.39,1.16,1.16,0,0,1-.37-.29.3.3,0,0,0-.46.39,1.66,1.66,0,0,0,.58.44Z"/><path class="cls-1" d="M16.87,9.52a1.69,1.69,0,0,0-.69-.22.31.31,0,0,0-.33.28.3.3,0,0,0,.28.32,1.14,1.14,0,0,1,.44.14.28.28,0,0,0,.15,0A.29.29,0,0,0,17,9.93.3.3,0,0,0,16.87,9.52Z"/><path class="cls-1" d="M8.87,17.4h-.6a.3.3,0,0,0,0,.6h.6a.3.3,0,0,0,0-.6Z"/><path class="cls-1" d="M9.61,13.45A1.14,1.14,0,0,1,9.8,13a.3.3,0,0,0-.48-.36,1.69,1.69,0,0,0-.3.67.3.3,0,0,0,.24.35h.06A.29.29,0,0,0,9.61,13.45Z"/><path class="cls-1" d="M14.55,4.5A1.65,1.65,0,1,0,12.9,2.85,1.65,1.65,0,0,0,14.55,4.5Zm0-2.7A1,1,0,1,1,13.5,2.85,1.06,1.06,0,0,1,14.55,1.8Z"/><path class="cls-1" d="M3.6,9.3a1.8,1.8,0,1,0,1.8,1.8A1.8,1.8,0,0,0,3.6,9.3Zm0,3a1.2,1.2,0,1,1,1.2-1.2A1.2,1.2,0,0,1,3.6,12.3Z"/></g></g></svg>