<svg xmlns="http://www.w3.org/2000/svg" width="17.704" height="11.765" viewBox="0 0 17.704 11.765">
  <g id="volskwagen-van" transform="translate(0.25 -88.117)">
    <path id="Path_463" data-name="Path 463" d="M15.62,92.146h-.747l-.957-2.233a2.726,2.726,0,0,0-2.345-1.546H1.854A1.856,1.856,0,0,0,0,90.221v5.939A1.856,1.856,0,0,0,1.679,98a2.123,2.123,0,0,0,4.127.008H11.4A2.123,2.123,0,0,0,15.525,98,1.856,1.856,0,0,0,17.2,96.159V94A1.737,1.737,0,0,0,15.62,92.146ZM12.989,90.31l.787,1.836H11.805V89.4A1.754,1.754,0,0,1,12.989,90.31ZM1.008,96.159V90.221a.847.847,0,0,1,.846-.846H8.1V97H5.806a2.123,2.123,0,0,0-4.121-.017.847.847,0,0,1-.676-.829Zm2.735,2.465A1.117,1.117,0,0,1,2.628,97.51h0a1.116,1.116,0,1,1,1.116,1.117Zm9.718,0a1.116,1.116,0,1,1,1.115-1.116,1.117,1.117,0,0,1-1.115,1.116Zm2.059-1.637A2.123,2.123,0,0,0,11.4,97H9.106v-7.63H10.8V92.65a.5.5,0,0,0,.5.5H15.62c.307,0,.576.4.576.846v.306H15.89a.5.5,0,1,0,0,1.008H16.2v.846a.847.847,0,0,1-.676.829Z" fill="#fff" stroke="#fff" stroke-width="0.5"/>
    <path id="Path_464" data-name="Path 464" d="M161.174,217.908h.54a.5.5,0,1,0,0-1.008h-.54a.5.5,0,1,0,0,1.008Z" transform="translate(-155.271 -124.214)" fill="#fff" stroke="#fff" stroke-width="1"/>
  </g>
</svg>
