<svg xmlns="http://www.w3.org/2000/svg" viewBox="0 0 13.52 9.79"><defs><style>.cls-1{fill:#4c4c4c;}</style></defs><title>wifi</title><g id="Layer_2" data-name="Layer 2"><g id="specctr"><g id="Wi-Fi"><path class="cls-1" d="M6.76,9.79a1.1,1.1,0,1,1,1.1-1.1A1.09,1.09,0,0,1,6.76,9.79ZM9.18,7.12A.48.48,0,0,1,8.83,7,2.69,2.69,0,0,0,6.76,6,2.65,2.65,0,0,0,4.7,7,.48.48,0,0,1,4,7a.47.47,0,0,1-.16-.31A.48.48,0,0,1,4,6.36a3.61,3.61,0,0,1,5.55,0,.48.48,0,0,1,.11.34A.44.44,0,0,1,9.48,7,.4.4,0,0,1,9.18,7.12ZM11.12,5.5a.46.46,0,0,1-.35-.17,5.22,5.22,0,0,0-8,0,.46.46,0,0,1-.36.17.48.48,0,0,1-.3-.11.47.47,0,0,1-.16-.32.48.48,0,0,1,.11-.34,6.15,6.15,0,0,1,9.43,0,.49.49,0,0,1-.06.66A.46.46,0,0,1,11.12,5.5Zm1.94-1.63a.48.48,0,0,1-.36-.16,7.74,7.74,0,0,0-11.88,0,.48.48,0,0,1-.36.16.44.44,0,0,1-.29-.11A.44.44,0,0,1,0,3.45a.45.45,0,0,1,.11-.34,8.68,8.68,0,0,1,13.31,0,.45.45,0,0,1,.1.34.47.47,0,0,1-.16.31A.48.48,0,0,1,13.06,3.87Z"/></g></g></g></svg>