<svg xmlns="http://www.w3.org/2000/svg" width="24" height="24" viewBox="0 0 24 24">
  <g id="Group_595" data-name="Group 595" transform="translate(-2050.568 -8014.832)">
    <rect id="Rectangle_345" data-name="Rectangle 345" width="24" height="24" transform="translate(2050.568 8014.832)" fill="none"/>
    <g id="Group_594" data-name="Group 594" transform="translate(2051.241 8017.78)">
      <path id="Path_435" data-name="Path 435" d="M-1451.232,839.935c-.193,0-.418,0-.644,0q-.923-.018-.629-.9c.053-.159.107-.317.162-.475a1.252,1.252,0,0,1,1.324-.953c.677,0,.671-.005.9-.639.468-1.292.949-2.58,1.414-3.874a2.35,2.35,0,0,1,1.21-1.307,7.347,7.347,0,0,1,3.122-.82c1.473-.059,2.947-.109,4.421-.1a12.153,12.153,0,0,1,4.2.582,7.182,7.182,0,0,1,1.2.607,1.58,1.58,0,0,1,.645.849c.545,1.481,1.1,2.959,1.633,4.443.072.2.164.281.378.268a3.852,3.852,0,0,1,.714.018,1.147,1.147,0,0,1,.956.74,6.947,6.947,0,0,1,.269.774.547.547,0,0,1-.542.782c-.262.02-.527,0-.835,0a6.8,6.8,0,0,1,.217.711,4.065,4.065,0,0,1,.063.737q.007,3.327,0,6.654a.825.825,0,0,1-.944.936h-2.677a.838.838,0,0,1-.948-.92c-.01-.336-.018-.673,0-1.007.016-.261-.079-.325-.331-.324-2.819.008-5.638.005-8.457.005-.725,0-1.449.009-2.174-.005-.239,0-.306.078-.3.305.016.335.01.671,0,1.007a.842.842,0,0,1-.956.939q-1.366,0-2.731,0a.808.808,0,0,1-.884-.89c0-2.253-.011-4.507.01-6.76A9.923,9.923,0,0,1-1451.232,839.935Zm17.284-1.987c-.016-.081-.019-.115-.03-.146-.446-1.363-.884-2.729-1.351-4.086a1.094,1.094,0,0,0-.416-.476,1.957,1.957,0,0,0-.587-.23,12.829,12.829,0,0,0-3.27-.414c-1.411-.026-2.825-.015-4.235.056a16.792,16.792,0,0,0-2.449.369,1.109,1.109,0,0,0-.929.7c-.434,1.311-.859,2.626-1.3,3.935-.081.24,0,.321.216.355,1.2.195,2.391.471,3.6.566,1.537.122,3.084.121,4.628.13a25.418,25.418,0,0,0,4.63-.432C-1434.945,838.187-1434.454,838.06-1433.948,837.948Zm-.856,5.4v-.031a9.867,9.867,0,0,0,1.006-.007,6.331,6.331,0,0,0,1.083-.208.619.619,0,0,0,.48-.674c-.013-.317,0-.636-.019-.953a.539.539,0,0,0-.525-.56,2.618,2.618,0,0,0-.938.08c-.842.31-1.663.676-2.49,1.024a1.3,1.3,0,0,0-.245.156.606.606,0,0,0-.268.668.554.554,0,0,0,.542.43C-1435.72,843.308-1435.261,843.324-1434.8,843.347Zm-13.02.011c.6-.035,1.076-.052,1.55-.1a.525.525,0,0,0,.489-.42.573.573,0,0,0-.21-.616,1.821,1.821,0,0,0-.375-.245c-.643-.289-1.285-.58-1.938-.844a2.743,2.743,0,0,0-1.34-.238.589.589,0,0,0-.6.6c-.016.326-.008.653-.014.979a.57.57,0,0,0,.336.555,1.45,1.45,0,0,0,.468.171C-1448.878,843.273-1448.29,843.316-1447.823,843.358Z" transform="translate(1452.576 -830.865)" fill="#fff"/>
    </g>
  </g>
</svg>
