<svg xmlns="http://www.w3.org/2000/svg" width="22.3" height="28.538" viewBox="0 0 22.3 28.538"><defs><style>.a{fill:none;stroke-width:1.7px;}.a,.b{stroke:#fff;}.b{fill:#fff;stroke-width:0.5px;}</style></defs><g transform="translate(1286.245 -3588.824)"><g transform="translate(-1285.306 3589.699)"><path class="a" d="M838.922,644.186a10.135,10.135,0,1,0-16.929,11.083c1.176,1.576,2.429,3.094,3.652,4.634,1.467,1.848,2.939,3.69,4.451,5.587a2.789,2.789,0,0,0,.22-.21c2.654-3.343,5.349-6.655,7.948-10.039A9.945,9.945,0,0,0,838.922,644.186Z" transform="translate(-819.973 -639.08)"/></g><g transform="translate(-1281.251 3593.75)"><path class="b" d="M10.908,3.208a.508.508,0,0,0-.236.678,5.028,5.028,0,0,1,.5,2.209A5.079,5.079,0,1,1,6.1,1.016a5.018,5.018,0,0,1,3.153,1.1.508.508,0,1,0,.632-.8A6.1,6.1,0,1,0,12.191,6.1a6.033,6.033,0,0,0-.6-2.652.507.507,0,0,0-.678-.236Zm0,0" transform="translate(0 0)"/><path class="b" d="M176.508,64a.508.508,0,0,0-.508.508v3.556a.508.508,0,0,0,.508.508h2.54a.508.508,0,1,0,0-1.016h-2.032V64.508A.508.508,0,0,0,176.508,64Zm0,0" transform="translate(-170.413 -61.968)"/></g></g></svg>