<svg xmlns="http://www.w3.org/2000/svg" width="17.922" height="20.138" viewBox="0 0 17.922 20.138"><defs><style>.a{opacity:0.8;}.b{fill:#515151;stroke:#515151;stroke-width:0.5px;}</style></defs><g class="a" transform="translate(0.25 0.25)"><g transform="translate(0 0)"><g transform="translate(0 0)"><path class="b" d="M74.264,114.908H61.525a.5.5,0,0,0-.378.126.428.428,0,0,0-.126.378l1.309,11.4a2.492,2.492,0,0,0,2.492,2.19h6.344a2.492,2.492,0,0,0,2.518-2.266l1.083-11.38a.428.428,0,0,0-.126-.327A.5.5,0,0,0,74.264,114.908Zm-1.586,11.783A1.46,1.46,0,0,1,71.167,128H64.823a1.435,1.435,0,0,1-1.485-1.284l-1.259-10.8H73.71Z" transform="translate(-59.183 -109.369)"/><path class="b" d="M39.912,2.266H34.725V1.46A1.41,1.41,0,0,0,33.367,0H30.118a1.41,1.41,0,0,0-1.436,1.384q0,.038,0,.077v.806H23.5a.5.5,0,1,0,0,1.007H39.912a.5.5,0,1,0,0-1.007ZM33.718,1.46v.806H29.69V1.46a.4.4,0,0,1,.428-.453H33.29a.4.4,0,0,1,.43.373A.4.4,0,0,1,33.718,1.46Z" transform="translate(-22.993 0)"/></g></g></g></svg>