<svg xmlns="http://www.w3.org/2000/svg" width="27.636" height="27.643" viewBox="0 0 27.636 27.643"><defs><style>.a{fill:#515151;opacity:0.5;}</style></defs><path class="a" d="M2808.756-4154.508l-2.681-.449.284-1.7,2.668.446a3.464,3.464,0,0,1,1.882-1.808l-1.763-14.114a3.439,3.439,0,0,1-2.554-1.727l-9.956,2.625v.012a3.448,3.448,0,0,1-3.045,3.415l-.841,6.345a3.456,3.456,0,0,1,2.131,2.889l2.964.5-.29,1.7-2.948-.493a3.454,3.454,0,0,1-3.14,2.042,3.453,3.453,0,0,1-3.467-3.44,3.448,3.448,0,0,1,3.04-3.415l.841-6.344a3.448,3.448,0,0,1-1.72-1.516,3.445,3.445,0,0,1,1.33-4.688,3.446,3.446,0,0,1,4.689,1.329l9.955-2.625v-.012a3.454,3.454,0,0,1,2.185-3.215,3.452,3.452,0,0,1,4.482,1.941,3.454,3.454,0,0,1-1.942,4.482l1.765,14.111a3.447,3.447,0,0,1,3,3.124,3.447,3.447,0,0,1-3.138,3.729q-.149.012-.3.013A3.447,3.447,0,0,1,2808.756-4154.508Zm1.7-.308a1.728,1.728,0,0,0,1.728,1.728,1.727,1.727,0,0,0,1.727-1.728,1.728,1.728,0,0,0-1.727-1.728A1.728,1.728,0,0,0,2810.453-4154.815Zm-20.726-3.454a1.727,1.727,0,0,0,1.728,1.727,1.727,1.727,0,0,0,1.728-1.727,1.729,1.729,0,0,0-1.728-1.729A1.728,1.728,0,0,0,2789.727-4158.27Zm1.728-12.955a1.728,1.728,0,0,0,1.728,1.729,1.728,1.728,0,0,0,1.727-1.729,1.727,1.727,0,0,0-1.727-1.726A1.727,1.727,0,0,0,2791.455-4171.225Zm16.408-4.317a1.727,1.727,0,0,0,1.727,1.728,1.727,1.727,0,0,0,1.728-1.728,1.727,1.727,0,0,0-1.728-1.727A1.727,1.727,0,0,0,2807.863-4175.542Zm-5.191,20.016.285-1.7,1.7.284-.284,1.7Zm-3.411-.568.284-1.7,1.7.284-.284,1.7Z" transform="translate(-2788 4179)"/></svg>