<svg xmlns="http://www.w3.org/2000/svg" width="11.56" height="18.496" viewBox="0 0 11.56 18.496"><defs><style>.a{fill:#fff;}</style></defs><path class="a" d="M6.53,18.5A.578.578,0,0,1,6,18.142L3.835,13.018,1.265,15.29a.726.726,0,0,1-.5.19A.766.766,0,0,1,0,14.713V.767A.766.766,0,0,1,.763,0a.786.786,0,0,1,.5.181L11.341,10.4a.83.83,0,0,1,.218.541.767.767,0,0,1-.764.767H7.372l2.084,4.942a.578.578,0,0,1-.3.755l-2.393,1.04a.582.582,0,0,1-.23.048ZM4.056,11.474a.564.564,0,0,1,.129.015.577.577,0,0,1,.4.339l2.248,5.327,1.333-.58-2.2-5.218a.578.578,0,0,1,.533-.8H9.873L1.156,1.716V13.846l2.517-2.226a.579.579,0,0,1,.383-.145ZM.516,14.411a.445.445,0,0,0-.045.039Zm9.96-3.244h0Zm0,0" transform="translate(0 0)"/></svg>