<svg xmlns="http://www.w3.org/2000/svg" width="19.89" height="19.89" viewBox="0 0 19.89 19.89"><defs><style>.a{fill:#fff;}</style></defs><g transform="translate(0 0)"><path class="a" d="M19.722,5.115,14.778.17a.583.583,0,0,0-.824,0L11.4,2.72a.583.583,0,0,0,0,.824l.252.252L4.987,7.131a.583.583,0,0,0-.28.3L.046,19.085l0,.005c-.006.015-.011.03-.016.045a.6.6,0,0,0-.022.108.579.579,0,0,0,.121.423l.01.013a.582.582,0,0,0,.558.2l.044-.011.009,0a.581.581,0,0,0,.058-.02l11.649-4.66a.583.583,0,0,0,.3-.28L16.1,8.236l.252.252a.583.583,0,0,0,.824,0l2.55-2.55A.583.583,0,0,0,19.722,5.115Zm-7.9,9.072L3,17.711,7.99,12.726a1.749,1.749,0,1,0-.824-.824L2.181,16.887,5.706,8.075l6.819-3.409,2.7,2.7ZM8.161,11.149a.583.583,0,1,1,.583.583A.583.583,0,0,1,8.161,11.149Zm8.6-3.9-.42-.42h0L13.06,3.553h0l-.419-.419,1.726-1.726,4.12,4.12Z" transform="translate(-0.003 0)"/></g></svg>