<svg xmlns="http://www.w3.org/2000/svg" width="25.98" height="25.971" viewBox="0 0 25.98 25.971"><defs><style>.a{fill:#fff;}</style></defs><g transform="translate(0.75 0.742)"><path class="a" d="M42.262,32.106a10.08,10.08,0,1,0,10.08,10.08A10.08,10.08,0,0,0,42.262,32.106Zm0,.96A9.111,9.111,0,0,1,49.71,36.94l-1.2,1.2a1.894,1.894,0,0,0-.968-.274,1.92,1.92,0,0,0-1.92,1.92,1.894,1.894,0,0,0,.272.969L42.752,43.9a1.862,1.862,0,0,0-1.938,0L38.63,41.716a1.894,1.894,0,0,0,.272-.969,1.916,1.916,0,0,0-3.772-.48H33.349A9.133,9.133,0,0,1,42.262,33.066Zm6.24,6.72a.96.96,0,1,1-.96-.96A.96.96,0,0,1,48.5,39.786Zm-5.76,5.76a.96.96,0,1,1-.96-.96A.96.96,0,0,1,42.742,45.547Zm-4.8-4.8a.96.96,0,1,1-.96-.96A.96.96,0,0,1,37.942,40.746Zm8.752,9.415a9.119,9.119,0,0,1-13.5-8.935H35.13a1.92,1.92,0,0,0,1.852,1.44,1.894,1.894,0,0,0,.969-.272l2.183,2.183a1.894,1.894,0,0,0-.272.969,1.92,1.92,0,0,0,3.84,0,1.894,1.894,0,0,0-.272-.969l3.143-3.143a1.9,1.9,0,0,0,.969.272,1.92,1.92,0,0,0,1.92-1.92,1.894,1.894,0,0,0-.272-.969l1.046-1.046A9.112,9.112,0,0,1,46.694,50.161Z" transform="translate(-32.182 -32.106)"/></g><g transform="translate(0 0)"><g transform="translate(0 0)"><path class="a" d="M21.652,4.41a1.731,1.731,0,0,0,1.67-1.3H25.98V2.246H23.322a1.728,1.728,0,0,0-3.4.433,1.708,1.708,0,0,0,.245.874l-.76.76a10.821,10.821,0,1,0-2.7,15.671l1.306,1.306.612.612,3.484,3.484a2.269,2.269,0,0,0,3.209-3.209l-3.484-3.484-.612-.612-1.306-1.306a10.785,10.785,0,0,0,0-11.745l.866-.866A1.709,1.709,0,0,0,21.652,4.41Zm0-2.6a.866.866,0,1,1-.866.866A.866.866,0,0,1,21.652,1.813ZM24.7,22.79A1.4,1.4,0,0,1,22.741,24.8l-.023-.023-3.484-3.484,1.985-1.985Zm-4.1-4.1-1.985,1.985-1.2-1.2c.061-.047.118-.1.178-.146s.13-.106.194-.16c.095-.08.188-.16.28-.243l.139-.13q.266-.249.516-.516c.043-.046.087-.091.13-.139.083-.092.163-.185.243-.28q.081-.1.16-.194c.048-.06.1-.117.146-.178Zm-1.679-2.011c-.136.19-.277.377-.425.557-.043.052-.09.1-.134.155q-.2.231-.41.448-.092.1-.187.187-.216.212-.448.41c-.052.043-.1.09-.155.134-.18.148-.366.289-.557.425a9.971,9.971,0,1,1,2.317-2.317Z" transform="translate(0 -0.08)"/></g></g></svg>