<svg xmlns="http://www.w3.org/2000/svg" width="22.51" height="24.5" viewBox="0 0 22.51 24.5"><defs><style>.a{fill:#fff;stroke:#fff;stroke-width:0.5px;}</style></defs><g transform="translate(0.25 0.25)"><path class="a" d="M18.5,24a.5.5,0,0,1-.354-.146l-4-4A.5.5,0,0,1,14.5,19H16V15H14.5a.5.5,0,0,1-.354-.854l4-4a.5.5,0,0,1,.707,0l4,4A.5.5,0,0,1,22.5,15H21v4h1.5a.5.5,0,0,1,.354.854l-4,4A.5.5,0,0,1,18.5,24Zm-2.793-4L18.5,22.792,21.293,20H20.5a.5.5,0,0,1-.354-.146A.5.5,0,0,1,20,19.5v-5a.5.5,0,0,1,.5-.5h.793L18.5,11.207,15.707,14H16.5a.5.5,0,0,1,.5.5v5a.5.5,0,0,1-.146.354A.5.5,0,0,1,16.5,20Z" transform="translate(-1)"/><path class="a" d="M9.5,6C5.276,6,1,4.97,1,3S5.276,0,9.5,0,18,1.03,18,3,13.724,6,9.5,6Zm0-5C4.922,1,2,2.185,2,3S4.922,5,9.5,5,17,3.815,17,3,14.078,1,9.5,1Z" transform="translate(-1)"/><path class="a" d="M17.5,7.5A.5.5,0,0,1,17,7V3a.5.5,0,0,1,1,0V7A.5.5,0,0,1,17.5,7.5Z" transform="translate(-1)"/><path class="a" d="M9.5,22C5.276,22,1,20.97,1,19V3A.5.5,0,0,1,2,3V19c0,.815,2.922,2,7.5,2a24.137,24.137,0,0,0,2.6-.137.513.513,0,0,1,.551.443.5.5,0,0,1-.443.551A25.112,25.112,0,0,1,9.5,22Z" transform="translate(-1)"/><path class="a" d="M9.5,18C5.276,18,1,16.97,1,15a.5.5,0,0,1,1,0c0,.815,2.922,2,7.5,2a22.084,22.084,0,0,0,2.875-.176.5.5,0,1,1,.131.991A23.026,23.026,0,0,1,9.5,18Z" transform="translate(-1)"/><path class="a" d="M9.5,14C5.276,14,1,12.97,1,11a.5.5,0,0,1,1,0c0,.815,2.922,2,7.5,2a21.441,21.441,0,0,0,2.16-.1.507.507,0,0,1,.547.448.5.5,0,0,1-.447.547A22.552,22.552,0,0,1,9.5,14Z" transform="translate(-1)"/><path class="a" d="M9.5,10C5.276,10,1,8.97,1,7A.5.5,0,0,1,2,7c0,.815,2.922,2,7.5,2S17,7.815,17,7a.5.5,0,0,1,1,0C18,8.97,13.724,10,9.5,10Z" transform="translate(-1)"/></g></svg>