<svg xmlns="http://www.w3.org/2000/svg" width="23.942" height="23.942" viewBox="0 0 23.942 23.942"><defs><style>.a{opacity:0.6;}.b{fill:#515151;}</style></defs><g class="a"><circle class="b" cx="0.774" cy="0.774" r="0.774" transform="translate(18.16 8.877)"/><path class="b" d="M20.2,1.87H18.986V.935a.935.935,0,1,0-1.87,0V1.87H12.86V.935a.935.935,0,1,0-1.87,0V1.87H6.781V.935a.935.935,0,0,0-1.87,0V1.87H3.741A3.745,3.745,0,0,0,0,5.611V20.2a3.745,3.745,0,0,0,3.741,3.741H10.9a.935.935,0,1,0,0-1.87H3.741A1.873,1.873,0,0,1,1.87,20.2V5.611a1.873,1.873,0,0,1,1.87-1.87H4.91v.935a.935.935,0,0,0,1.87,0V3.741h4.209v.935a.935.935,0,1,0,1.87,0V3.741h4.255v.935a.935.935,0,1,0,1.87,0V3.741H20.2a1.873,1.873,0,0,1,1.87,1.87v5.331a.935.935,0,0,0,1.87,0V5.611A3.745,3.745,0,0,0,20.2,1.87Z"/><path class="b" d="M275.658,270a5.658,5.658,0,1,0,5.658,5.658A5.665,5.665,0,0,0,275.658,270Zm0,9.446a3.788,3.788,0,1,1,3.788-3.788A3.792,3.792,0,0,1,275.658,279.446Z" transform="translate(-257.374 -257.374)"/><path class="b" d="M373.291,331.917h-.421v-.982a.935.935,0,1,0-1.87,0v1.917a.935.935,0,0,0,.935.935h1.356a.935.935,0,0,0,0-1.871Z" transform="translate(-353.651 -314.568)"/><circle class="b" cx="0.774" cy="0.774" r="0.774" transform="translate(13.518 8.877)"/><circle class="b" cx="0.774" cy="0.774" r="0.774" transform="translate(8.877 13.518)"/><circle class="b" cx="0.774" cy="0.774" r="0.774" transform="translate(4.235 8.877)"/><circle class="b" cx="0.774" cy="0.774" r="0.774" transform="translate(4.235 13.518)"/><circle class="b" cx="0.774" cy="0.774" r="0.774" transform="translate(4.235 18.16)"/><circle class="b" cx="0.774" cy="0.774" r="0.774" transform="translate(8.877 18.16)"/><circle class="b" cx="0.774" cy="0.774" r="0.774" transform="translate(8.877 8.877)"/></g></svg>