<svg xmlns="http://www.w3.org/2000/svg" width="11.468" height="12.439" viewBox="0 0 11.468 12.439"><defs><style>.a{fill:#b5b5b5;}</style></defs><g transform="translate(-20)"><g transform="translate(20)"><path class="a" d="M384.822,14.368l1.319,1.1a.486.486,0,1,0,.622-.746l-1.319-1.1a.486.486,0,1,0-.622.746Z" transform="translate(-375.788 -13.181)"/><path class="a" d="M33.531,15.582a.484.484,0,0,0,.311-.113l1.319-1.1a.486.486,0,1,0-.622-.746l-1.319,1.1a.486.486,0,0,0,.311.859Z" transform="translate(-32.728 -13.182)"/><path class="a" d="M29.788,2.651A5.691,5.691,0,0,0,26.22.992V.486a.486.486,0,0,0-.972,0V.992a5.734,5.734,0,0,0-3.568,9.768,5.734,5.734,0,0,0,7.452.564.486.486,0,0,0-.577-.782A4.755,4.755,0,1,1,29.909,9a.486.486,0,1,0,.851.469,5.737,5.737,0,0,0-.972-6.815Z" transform="translate(-20)"/><path class="a" d="M219.339,151.256a.486.486,0,0,0-.683.072l-1.532,1.893a.973.973,0,1,0,.755.612l1.532-1.893A.486.486,0,0,0,219.339,151.256Z" transform="translate(-211.238 -147.475)"/></g></g></svg>