<svg xmlns="http://www.w3.org/2000/svg" width="27.636" height="27.643" viewBox="0 0 27.636 27.643"><defs><style>.a{fill:#fff;}</style></defs><g transform="translate(0 0)"><g transform="translate(0 0)"><path class="a" d="M.06,20.731a3.454,3.454,0,0,0,6.607,1.4l2.949.493.288-1.7-2.964-.495A3.454,3.454,0,0,0,4.81,17.535l.841-6.345A3.447,3.447,0,0,0,8.7,7.777V7.764l9.956-2.625a3.438,3.438,0,0,0,2.554,1.727L22.97,20.979a3.463,3.463,0,0,0-1.882,1.807l-2.669-.446-.284,1.7,2.682.448a3.446,3.446,0,1,0,3.868-3.713L22.92,6.668A3.454,3.454,0,1,0,18.2,3.459v.013L8.239,6.1a3.446,3.446,0,1,0-4.3,4.875L3.1,17.317A3.447,3.447,0,0,0,.06,20.731Zm24.18,1.727a1.727,1.727,0,1,1-1.727,1.727A1.727,1.727,0,0,1,24.24,22.458ZM21.65,1.732a1.727,1.727,0,1,1-1.727,1.727A1.727,1.727,0,0,1,21.65,1.732ZM3.515,7.777A1.727,1.727,0,1,1,5.242,9.5,1.727,1.727,0,0,1,3.515,7.777ZM5.242,20.731A1.727,1.727,0,1,1,3.515,19,1.727,1.727,0,0,1,5.242,20.731Z" transform="translate(-0.06 0)"/><rect class="a" width="1.727" height="1.727" transform="translate(12.963 23.19) rotate(-170.526)"/><rect class="a" width="1.727" height="1.727" transform="translate(16.375 23.759) rotate(-170.514)"/></g></g></svg>