<svg xmlns="http://www.w3.org/2000/svg" width="34.965" height="44.505" viewBox="0 0 34.965 44.505"><defs><style>.a{opacity:0.6;}.b{fill:#4d4f5c;}.c,.e{fill:none;}.c{stroke:#4d4f5c;stroke-width:2px;}.d{stroke:none;}</style></defs><g class="a"><g transform="translate(0 0)"><path class="b" d="M77.552,5.831H73.526V4.03c0-.583-.636-.848-1.218-.848H69.182A4.739,4.739,0,0,0,64.467,0a4.821,4.821,0,0,0-4.715,3.179H56.679c-.583,0-1.166.265-1.166.848v1.8H51.487a4.5,4.5,0,0,0-4.45,4.291V40.479a4.262,4.262,0,0,0,4.45,4.026H77.552A4.262,4.262,0,0,0,82,40.479V10.122A4.5,4.5,0,0,0,77.552,5.831ZM57.633,5.3h2.914a1.166,1.166,0,0,0,1.007-.954,3.073,3.073,0,0,1,2.914-2.384,3.02,3.02,0,0,1,2.861,2.384,1.166,1.166,0,0,0,1.06.954h3.02V9.54H57.633ZM79.883,40.479a2.149,2.149,0,0,1-2.331,1.907H51.487a2.149,2.149,0,0,1-2.331-1.907V10.122A2.384,2.384,0,0,1,51.487,7.95h4.026v2.7a1.113,1.113,0,0,0,1.166,1.007H72.307a1.165,1.165,0,0,0,1.218-1.007V7.95h4.026a2.384,2.384,0,0,1,2.331,2.172V40.479Z" transform="translate(-47.037 0)"/><path class="b" d="M211.792,256.034H199.608a1.06,1.06,0,1,0,0,2.119h12.185a1.06,1.06,0,0,0,0-2.119Z" transform="translate(-183.184 -230.071)"/><path class="b" d="M211.792,172.442H199.608a1.06,1.06,0,1,0,0,2.119h12.185a1.06,1.06,0,0,0,0-2.119Z" transform="translate(-183.184 -154.956)"/><path class="b" d="M211.792,339.626H199.608a1.06,1.06,0,1,0,0,2.119h12.185a1.06,1.06,0,0,0,0-2.119Z" transform="translate(-183.184 -305.187)"/><g class="c" transform="translate(5.454 15.79)"><circle class="d" cx="2.913" cy="2.913" r="2.913"/><circle class="e" cx="2.913" cy="2.913" r="1.913"/></g><g class="c" transform="translate(5.454 23.946)"><circle class="d" cx="2.913" cy="2.913" r="2.913"/><circle class="e" cx="2.913" cy="2.913" r="1.913"/></g><g class="c" transform="translate(5.454 32.101)"><circle class="d" cx="2.913" cy="2.913" r="2.913"/><circle class="e" cx="2.913" cy="2.913" r="1.913"/></g></g></g></svg>