<svg xmlns="http://www.w3.org/2000/svg" width="39.646" height="39.646" viewBox="0 0 39.646 39.646"><defs><style>.a{fill:#5fc95d;}</style></defs><g transform="translate(9.537 12.805)"><path class="a" d="M143.344,165.865a1.607,1.607,0,0,0-2.272-.06l-10.261,9.731-4.894-5.025a1.607,1.607,0,0,0-2.3,2.243l6,6.161a1.608,1.608,0,0,0,2.258.045l11.412-10.822A1.607,1.607,0,0,0,143.344,165.865Z" transform="translate(-123.158 -165.364)"/></g><path class="a" d="M19.823,0A19.823,19.823,0,1,0,39.646,19.823,19.845,19.845,0,0,0,19.823,0Zm0,36.431A16.608,16.608,0,1,1,36.431,19.823,16.627,16.627,0,0,1,19.823,36.431Z"/></svg>