<svg xmlns="http://www.w3.org/2000/svg" width="18.224" height="18.224" viewBox="0 0 18.224 18.224"><defs><style>.a{opacity:0.8;}.b{fill:#515151;}</style></defs><g class="a"><g transform="translate(5.054 5.054)"><path class="b" d="M145.88,142h-1.032A2.851,2.851,0,0,0,142,144.848v1.068a.712.712,0,1,0,1.424,0v-1.068a1.425,1.425,0,0,1,1.424-1.424h1.032a.712.712,0,0,0,0-1.424Z" transform="translate(-142 -142)"/></g><path class="b" d="M15.377,5.054H13.17V2.848A2.851,2.851,0,0,0,10.322,0H2.848A2.851,2.851,0,0,0,0,2.848v7.475A2.851,2.851,0,0,0,2.848,13.17H5.054v2.207A2.851,2.851,0,0,0,7.9,18.224h7.475a2.851,2.851,0,0,0,2.848-2.848V7.9A2.851,2.851,0,0,0,15.377,5.054ZM16.8,15.377A1.425,1.425,0,0,1,15.377,16.8H7.9a1.425,1.425,0,0,1-1.424-1.424V12.458a.712.712,0,0,0-.712-.712H2.848a1.425,1.425,0,0,1-1.424-1.424V2.848A1.425,1.425,0,0,1,2.848,1.424h7.475a1.425,1.425,0,0,1,1.424,1.424V5.766a.712.712,0,0,0,.712.712h2.919A1.425,1.425,0,0,1,16.8,7.9Z"/><g transform="translate(8.578 8.507)"><path class="b" d="M244.88,239a.712.712,0,0,0-.712.712v1.1a1.425,1.425,0,0,1-1.424,1.424h-1.032a.712.712,0,0,0,0,1.424h1.032a2.851,2.851,0,0,0,2.848-2.848v-1.1A.712.712,0,0,0,244.88,239Z" transform="translate(-241 -239)"/></g></g></svg>