<svg xmlns="http://www.w3.org/2000/svg" width="26.953" height="14.745" viewBox="0 0 26.953 14.745"><defs><style>.a{fill:#3da3f2;}</style></defs><path class="a" d="M65.263,114.086a3.908,3.908,0,0,0-2.917-1.224H59.572v-1.5a.664.664,0,0,0-.662-.662H45.7a.664.664,0,0,0-.662.662v2.3H42.462a.662.662,0,1,0,0,1.323H45.7a.664.664,0,0,0,.662-.662v-2.3H58.254V122.4H52.023a.417.417,0,0,0-.083.006,2.219,2.219,0,0,0-4.125.011.636.636,0,0,0-.143-.017H46.366v-2.31a.664.664,0,0,0-.662-.662H42.462a.662.662,0,0,0,0,1.323h2.575v2.3a.664.664,0,0,0,.662.662h2.013a2.222,2.222,0,0,0,4.334,0h7.929a2.222,2.222,0,0,0,4.334,0h1.478a.664.664,0,0,0,.662-.662v-5.5A5.016,5.016,0,0,0,65.263,114.086ZM49.878,124.127a.9.9,0,1,1,.9-.9A.9.9,0,0,1,49.878,124.127Zm12.264,0a.9.9,0,1,1,.9-.9A.9.9,0,0,1,62.142,124.127Zm2.983-1.731H64.2a2.217,2.217,0,0,0-4.114,0h-.507v-8.211h2.774c1.737,0,2.774,1.263,2.774,3.375Z" transform="translate(-39.495 -110.7)"/><path class="a" d="M11.365,190.327a.662.662,0,0,0,.469,1.13.674.674,0,0,0,.469-.193l1.7-1.7.006-.006c.011-.017.028-.028.039-.044s.011-.017.017-.028a.1.1,0,0,1,.022-.028l.017-.033c.006-.011.011-.017.017-.028l.017-.033c.006-.011.011-.017.011-.028s.006-.022.011-.033.006-.022.011-.028a.07.07,0,0,0,.006-.033c0-.011.006-.022.006-.033s.006-.022.006-.039.006-.017.006-.028a.532.532,0,0,0,0-.132.05.05,0,0,0-.006-.028c0-.011-.006-.022-.006-.039s-.006-.022-.006-.033-.006-.022-.006-.033-.006-.022-.011-.028-.006-.022-.011-.033-.011-.017-.011-.028l-.017-.033c-.006-.011-.011-.017-.017-.028l-.017-.033a.1.1,0,0,0-.022-.028c-.006-.011-.011-.017-.017-.028s-.028-.028-.039-.044l-.006-.006-1.621-1.621a.663.663,0,1,0-.937.937l.491.491H.662a.662.662,0,0,0,0,1.323H11.933Z" transform="translate(0 -182.58)"/></svg>