<svg xmlns="http://www.w3.org/2000/svg" width="42.619" height="45.678" viewBox="0 0 42.619 45.678">
  <g id="box" transform="translate(0.25 0.289)">
    <g id="Group_732" data-name="Group 732" transform="translate(0)">
      <g id="Group_731" data-name="Group 731">
        <path id="Path_431" data-name="Path 431" d="M56.166,27.711V11.27L36.646,0,17.126,11.27v22.54l19.52,11.27,5.193-3a10.147,10.147,0,1,0,14.327-14.37ZM36.646,3.058l15.547,8.976-6.449,3.724L30.2,6.782Zm-1.324,38.2L19.774,32.28V14.328L35.322,23.3ZM21.1,12.034l6.449-3.724L43.1,17.287l-6.45,3.724ZM37.97,41.257V23.3l15.547-8.976V25.851a10.149,10.149,0,0,0-13.279,14.1Zm11.123,1.234a7.5,7.5,0,1,1,7.5-7.5A7.512,7.512,0,0,1,49.093,42.491Z" transform="translate(-17.126)" fill="#e8553e" stroke="#fff" stroke-width="0.5"/>
      </g>
    </g>
    <g id="Group_977" data-name="Group 977" transform="translate(0 -2)">
      <path id="Path_477" data-name="Path 477" d="M35.765,32.3,30,38.066" transform="translate(-1 2)" fill="none" stroke="#e8553e" stroke-width="2"/>
      <path id="Path_478" data-name="Path 478" d="M35.765,32.3,30,38.066" transform="translate(67.066 4.3) rotate(90)" fill="none" stroke="#e8553e" stroke-width="2"/>
    </g>
  </g>
</svg>
