<svg xmlns="http://www.w3.org/2000/svg" width="24" height="24" viewBox="0 0 24 24">
  <g id="Group_602" data-name="Group 602" transform="translate(212 -16)">
    <g id="Group_587" data-name="Group 587" transform="translate(-212 16)">
      <g id="Group_586" data-name="Group 586">
        <path id="Path_466" data-name="Path 466" d="M-188.137,20.4l-4.266-4.265a.469.469,0,0,0-.331-.137h-13.922a1.408,1.408,0,0,0-1.406,1.406V18.3A6.2,6.2,0,0,0-212,24.067a.469.469,0,0,0,.469.469h5.723a.469.469,0,0,0,.469-.469V18.344a.469.469,0,0,0-.469-.469,6.189,6.189,0,0,0-1.317.141v-.61a.469.469,0,0,1,.469-.469H-193.2V19.8A1.408,1.408,0,0,0-191.8,21.2h2.859V38.594a.469.469,0,0,1-.469.469h-17.25a.469.469,0,0,1-.469-.469V34.578a.469.469,0,0,0-.469-.469.469.469,0,0,0-.469.469v4.016A1.408,1.408,0,0,0-206.656,40h17.25A1.408,1.408,0,0,0-188,38.594V20.734A.469.469,0,0,0-188.137,20.4Zm-18.14-1.569V23.6h-4.765A5.263,5.263,0,0,1-206.277,18.833Zm14.48,1.432a.469.469,0,0,1-.469-.469V17.6l2.666,2.665Z" transform="translate(212 -16)" fill="#fff"/>
      </g>
    </g>
    <g id="Group_589" data-name="Group 589" transform="translate(-208.063 32.406)">
      <g id="Group_588" data-name="Group 588">
        <path id="Path_467" data-name="Path 467" d="M-127.2,366.137a.472.472,0,0,0-.331-.137.472.472,0,0,0-.331.137.472.472,0,0,0-.137.331.472.472,0,0,0,.137.331.472.472,0,0,0,.331.137.472.472,0,0,0,.331-.137.472.472,0,0,0,.137-.331A.472.472,0,0,0-127.2,366.137Z" transform="translate(128 -366)" fill="#fff"/>
      </g>
    </g>
    <g id="Group_591" data-name="Group 591" transform="translate(-210.321 19.554)">
      <g id="Group_590" data-name="Group 590">
        <path id="Path_468" data-name="Path 468" d="M-169.989,91.819a.469.469,0,0,0-.469.469v5.254h-5.254a.469.469,0,0,0-.469.469,6.2,6.2,0,0,0,6.192,6.192,6.2,6.2,0,0,0,6.192-6.192A6.2,6.2,0,0,0-169.989,91.819Zm.469.958a5.231,5.231,0,0,1,2.9,1.2l-2.9,2.9Zm-.469,10.488a5.261,5.261,0,0,1-5.233-4.786h5.233a.467.467,0,0,0,.331-.137h0l3.7-3.7a5.231,5.231,0,0,1,1.224,3.367A5.26,5.26,0,0,1-169.989,103.265Z" transform="translate(176.181 -91.819)" fill="#fff"/>
      </g>
    </g>
    <g id="Group_593" data-name="Group 593" transform="translate(-204.786 30.794)">
      <g id="Group_592" data-name="Group 592">
        <path id="Path_469" data-name="Path 469" d="M-44.775,331.6a1.408,1.408,0,0,0-1.406,1.406,1.4,1.4,0,0,0,.111.548l-2.7,2.7a1.4,1.4,0,0,0-.614-.141,1.4,1.4,0,0,0-.6.135l-1.793-1.793a1.4,1.4,0,0,0,.1-.512,1.408,1.408,0,0,0-1.406-1.406,1.408,1.408,0,0,0-1.406,1.406,1.4,1.4,0,0,0,.13.589l-1.72,1.72a1.4,1.4,0,0,0-.6-.137,1.408,1.408,0,0,0-1.406,1.406,1.408,1.408,0,0,0,1.406,1.406,1.408,1.408,0,0,0,1.406-1.406,1.4,1.4,0,0,0-.138-.607l1.71-1.71a1.4,1.4,0,0,0,.623.146,1.4,1.4,0,0,0,.694-.184l1.743,1.743a1.4,1.4,0,0,0-.14.611,1.408,1.408,0,0,0,1.406,1.406,1.408,1.408,0,0,0,1.406-1.406,1.4,1.4,0,0,0-.134-.6l2.675-2.675a1.4,1.4,0,0,0,.662.166,1.408,1.408,0,0,0,1.406-1.406A1.408,1.408,0,0,0-44.775,331.6ZM-56.689,338a.469.469,0,0,1-.469-.469.469.469,0,0,1,.469-.469.467.467,0,0,1,.324.131l.005.006.007.006a.467.467,0,0,1,.132.325A.469.469,0,0,1-56.689,338Zm3.6-3.578a.469.469,0,0,1-.469-.469.469.469,0,0,1,.469-.469.469.469,0,0,1,.469.469A.469.469,0,0,1-53.087,334.417Zm3.7,3.576a.469.469,0,0,1-.469-.469.469.469,0,0,1,.469-.469.469.469,0,0,1,.469.469A.469.469,0,0,1-49.384,337.994Zm4.609-4.514a.469.469,0,0,1-.469-.469.469.469,0,0,1,.469-.469.469.469,0,0,1,.469.469A.469.469,0,0,1-44.775,333.48Z" transform="translate(58.095 -331.605)" fill="#fff"/>
      </g>
    </g>
    <g id="Group_595" data-name="Group 595" transform="translate(-196.751 27.016)">
      <g id="Group_594" data-name="Group 594">
        <path id="Path_470" data-name="Path 470" d="M116.254,251H113.78a.469.469,0,0,0,0,.938h2.474a.469.469,0,1,0,0-.937Z" transform="translate(-113.311 -251)" fill="#fff"/>
      </g>
    </g>
    <g id="Group_597" data-name="Group 597" transform="translate(-192.143 27.016)">
      <g id="Group_596" data-name="Group 596">
        <path id="Path_471" data-name="Path 471" d="M212.42,251.137a.468.468,0,1,0,.137.331A.472.472,0,0,0,212.42,251.137Z" transform="translate(-211.62 -251)" fill="#fff"/>
      </g>
    </g>
    <g id="Group_599" data-name="Group 599" transform="translate(-196.751 22.516)">
      <g id="Group_598" data-name="Group 598">
        <path id="Path_472" data-name="Path 472" d="M119.506,155H113.78a.469.469,0,1,0,0,.938h5.726a.469.469,0,1,0,0-.937Z" transform="translate(-113.311 -155)" fill="#fff"/>
      </g>
    </g>
    <g id="Group_601" data-name="Group 601" transform="translate(-196.751 24.766)">
      <g id="Group_600" data-name="Group 600">
        <path id="Path_473" data-name="Path 473" d="M119.506,203H113.78a.469.469,0,0,0,0,.938h5.726a.469.469,0,1,0,0-.937Z" transform="translate(-113.311 -203)" fill="#fff"/>
      </g>
    </g>
  </g>
</svg>
