<svg xmlns="http://www.w3.org/2000/svg" width="42.619" height="45.678" viewBox="0 0 42.619 45.678"><defs><style>.a{fill:#6c5be2;stroke:#fff;stroke-width:0.5px;}</style></defs><g transform="translate(0.25 0.289)"><g transform="translate(0)"><path class="a" d="M56.166,27.711V11.27L36.646,0,17.126,11.27v22.54l19.52,11.27,5.193-3a10.147,10.147,0,1,0,14.327-14.37ZM36.646,3.058l15.547,8.976-6.449,3.724L30.2,6.782Zm-1.324,38.2L19.774,32.28V14.328L35.322,23.3ZM21.1,12.034l6.449-3.724L43.1,17.287l-6.45,3.724ZM37.97,41.257V23.3l15.547-8.976V25.851a10.149,10.149,0,0,0-13.279,14.1Zm11.123,1.234a7.5,7.5,0,1,1,7.5-7.5A7.512,7.512,0,0,1,49.093,42.491Z" transform="translate(-17.126)"/></g><g transform="translate(26.961 31.14)"><g transform="translate(0)"><path class="a" d="M331.082,353.212l-4.336,4.36-1.942-1.923-1.863,1.882,3.82,3.782,6.2-6.234Z" transform="translate(-322.94 -353.212)"/></g></g></g></svg>