<svg xmlns="http://www.w3.org/2000/svg" width="27.53" height="35.299" viewBox="0 0 27.53 35.299"><defs><style>.a{fill:none;stroke:#fff;}.b{fill:#fff;}</style></defs><g transform="translate(0.609 0.531)"><path class="a" d="M633.907,151.3a13.061,13.061,0,1,0-21.815,14.282c1.515,2.031,3.13,3.986,4.706,5.971,1.891,2.38,3.787,4.755,5.735,7.2a3.6,3.6,0,0,0,.284-.271c3.42-4.307,6.892-8.574,10.241-12.937A12.814,12.814,0,0,0,633.907,151.3Z" transform="translate(-609.489 -144.725)"/><g transform="translate(3.159 3.243)"><path class="b" d="M623.185,148.59a9.926,9.926,0,0,0-4.275,18.887l.311-6.007s-.585-.191-.713-.254c-1.24-.546-2.141-2.155-2.141-4.242,0-2.278,1.767-4.241,3.474-4.257h.007c1.709.017,3.475,1.979,3.475,4.257,0,2.087-.9,3.7-2.139,4.242l-.719.262.347,6.679a9.742,9.742,0,0,0,5.531-.224l.308-5.952a3.2,3.2,0,0,1-1.936-1.343c-.536-.8.414-7.923.414-7.923h.619V159.4h.613v-6.68h.671V159.4h.611v-6.681h.7V159.4h.613v-6.681h.474s.95,7.119.413,7.923a3.2,3.2,0,0,1-1.915,1.339l-.028.01.268,5.12a9.927,9.927,0,0,0-4.981-18.517Z" transform="translate(-613.253 -148.59)"/><path class="b" d="M618.543,157.29a2.7,2.7,0,0,1,.086-.285.131.131,0,0,0-.072-.145.119.119,0,0,0-.156.034s-.068.108-.166.269a2.879,2.879,0,0,0-.28.631,5.274,5.274,0,0,0-.191.916,4.4,4.4,0,0,0-.013.531,2.451,2.451,0,0,0,.1.563,3.634,3.634,0,0,0,.888,1.621,3.039,3.039,0,0,0,.474.384l.045.032c.027.018.054.034.079.049a.9.9,0,0,0,.191.079.114.114,0,0,0,.131-.055.116.116,0,0,0-.039-.138,1.2,1.2,0,0,1-.141-.154,2.8,2.8,0,0,1-.182-.249c-.049-.07-.106-.15-.159-.228a8.008,8.008,0,0,1-.628-1.542,2.054,2.054,0,0,1-.087-.425,4.349,4.349,0,0,1-.025-.454,6.067,6.067,0,0,1,.038-.843A3.27,3.27,0,0,1,618.543,157.29Z" transform="translate(-613.976 -149.917)"/></g></g></svg>