<svg xmlns="http://www.w3.org/2000/svg" width="16.612" height="18.661" viewBox="0 0 16.612 18.661"><defs><style>.a{fill:#fff;stroke:#fff;stroke-width:0.5px;}</style></defs><g transform="translate(0.25 0.25)"><g transform="translate(0 0)"><g transform="translate(0 0)"><path class="a" d="M73.268,114.908H61.486a.466.466,0,0,0-.349.116.4.4,0,0,0-.116.349l1.211,10.547a2.305,2.305,0,0,0,2.3,2.026H70.4a2.3,2.3,0,0,0,2.328-2.1l1-10.524a.4.4,0,0,0-.116-.3A.466.466,0,0,0,73.268,114.908ZM71.8,125.8a1.35,1.35,0,0,1-1.4,1.211H64.537a1.327,1.327,0,0,1-1.374-1.187L62,115.839H72.755Z" transform="translate(-59.321 -109.786)"/><path class="a" d="M38.639,2.1h-4.8V1.351A1.3,1.3,0,0,0,32.587,0h-3a1.3,1.3,0,0,0-1.328,1.28q0,.035,0,.071V2.1h-4.8a.466.466,0,0,0,0,.931h15.18a.466.466,0,1,0,0-.931Zm-5.728-.745V2.1H29.186V1.351a.372.372,0,0,1,.4-.419h2.934a.373.373,0,0,1,.4.345A.368.368,0,0,1,32.912,1.351Z" transform="translate(-22.993 0)"/></g></g></g></svg>