<svg xmlns="http://www.w3.org/2000/svg" width="21.333" height="20" viewBox="0 0 21.333 20"><defs><style>.a{fill:#3da3f2;}</style></defs><g transform="translate(3.75 3.75)"><g transform="translate(0 0)"><path class="a" d="M90.625,106a.625.625,0,1,0,.625.625A.625.625,0,0,0,90.625,106Z" transform="translate(-90 -106)"/></g></g><g transform="translate(0 0)"><path class="a" d="M189,183.98Z" transform="translate(-181.125 -176.98)"/><path class="a" d="M189.016,183.763l.006-.009-.007.009Z" transform="translate(-181.14 -176.764)"/><path class="a" d="M189.184,183.732h0Z" transform="translate(-181.301 -176.743)"/><path class="a" d="M7.875,23l.007-.009A4.375,4.375,0,1,0,0,20.375,4.339,4.339,0,0,0,.873,23h0l2.987,3.987a.6.6,0,0,0,.512.263.633.633,0,0,0,.5-.25l3-4h0Zm-3.5-.749A1.875,1.875,0,1,1,6.25,20.375,1.877,1.877,0,0,1,4.375,22.25Z" transform="translate(0 -16)"/></g><g transform="translate(5 8.75)"><path class="a" d="M134.458,233.5a1.872,1.872,0,0,0-1.76,1.25h-5.313a1.864,1.864,0,0,0-3.52,0H122.5a1.25,1.25,0,1,1,0-2.5h6.292a2.5,2.5,0,0,0,0-5h-1.407a1.864,1.864,0,0,0-3.52,0h-1.678l-.938,1.25h2.615a1.864,1.864,0,0,0,3.52,0h1.407a1.25,1.25,0,0,1,0,2.5H122.5a2.5,2.5,0,1,0,0,5h1.365a1.864,1.864,0,0,0,3.52,0H132.7a1.872,1.872,0,1,0,1.76-2.5Z" transform="translate(-120 -226)"/></g></svg>