<svg xmlns="http://www.w3.org/2000/svg" width="43.224" height="32.468" viewBox="0 0 43.224 32.468"><defs><style>.a{fill:#df7913;stroke:#df7913;stroke-width:0.2px;}</style></defs><g transform="translate(0.1 0.1)"><path class="a" d="M110.251,116.527a.9.9,0,0,0,.634-1.53l-2.426-2.426v-5.007a.9.9,0,1,0-1.793,0v5.378a.9.9,0,0,0,.263.634l2.689,2.689A.894.894,0,0,0,110.251,116.527Z" transform="translate(-97.703 -103.082)"/><path class="a" d="M42.762,80.4l-7.171-7.171a.9.9,0,0,0-.634-.263H28.683V70.274a.9.9,0,0,0-.9-.9H18.631A9.854,9.854,0,1,0,7.171,83.337V89.1a3.59,3.59,0,0,0,3.585,3.585h.091a4.482,4.482,0,0,0,8.782,0H30.566a4.482,4.482,0,0,0,8.782,0h2.78a.9.9,0,0,0,.9-.9V81.03A.9.9,0,0,0,42.762,80.4ZM1.793,73.86A8.067,8.067,0,1,1,9.86,81.927,8.076,8.076,0,0,1,1.793,73.86ZM15.238,94.476a2.689,2.689,0,1,1,2.689-2.689A2.692,2.692,0,0,1,15.238,94.476ZM26.89,90.89H19.629a4.482,4.482,0,0,0-8.782,0h-.091A1.794,1.794,0,0,1,8.963,89.1V83.674c.3.027.594.045.9.045a9.834,9.834,0,0,0,9.477-12.549H26.89Zm8.067,3.585a2.689,2.689,0,1,1,2.689-2.689A2.692,2.692,0,0,1,34.957,94.476Zm6.274-3.585H39.348a4.482,4.482,0,0,0-8.782,0H28.683V74.756h5.9L41.232,81.4V90.89Z" transform="translate(0 -64)"/><path class="a" d="M364.459,214.229a.9.9,0,0,0-1.793,0v5.378a.9.9,0,0,0,.9.9h7.171a.9.9,0,1,0,0-1.793h-6.274Z" transform="translate(-332.191 -200.784)"/></g></svg>