<svg xmlns="http://www.w3.org/2000/svg" width="35.239" height="44.853" viewBox="0 0 35.239 44.853"><defs><style>.a{fill:#3b9844;}</style></defs><g transform="translate(0 0)"><path class="a" d="M77.791,5.877H73.733V4.061c0-.587-.641-.854-1.228-.854h-3.15A4.776,4.776,0,0,0,64.6,0a4.859,4.859,0,0,0-4.752,3.2h-3.1c-.587,0-1.175.267-1.175.854V5.877H51.522A4.538,4.538,0,0,0,47.037,10.2V40.8a4.3,4.3,0,0,0,4.485,4.058H77.791A4.3,4.3,0,0,0,82.276,40.8V10.2A4.538,4.538,0,0,0,77.791,5.877ZM57.715,5.343h2.937a1.175,1.175,0,0,0,1.015-.961,3.1,3.1,0,0,1,2.937-2.4,3.043,3.043,0,0,1,2.883,2.4,1.175,1.175,0,0,0,1.068.961H71.6V9.614H57.715ZM80.14,40.8a2.166,2.166,0,0,1-2.349,1.922H51.522A2.166,2.166,0,0,1,49.173,40.8V10.2a2.4,2.4,0,0,1,2.349-2.189H55.58v2.723a1.121,1.121,0,0,0,1.175,1.015H72.505a1.174,1.174,0,0,0,1.228-1.015V8.012h4.058A2.4,2.4,0,0,1,80.14,10.2V40.8Z" transform="translate(-47.037 0)"/><path class="a" d="M107.54,230.644a1.068,1.068,0,0,0-1.5-.053l-3.417,3.257-1.442-1.495a1.068,1.068,0,0,0-1.5-.053,1.121,1.121,0,0,0,0,1.548l2.189,2.242a.961.961,0,0,0,.747.32,1.068,1.068,0,0,0,.747-.32l4.165-3.951a1.014,1.014,0,0,0,.062-1.433Q107.572,230.674,107.54,230.644Z" transform="translate(-94.031 -206.774)"/><path class="a" d="M211.9,256.034h-12.28a1.068,1.068,0,1,0,0,2.136H211.9a1.068,1.068,0,1,0,0-2.136Z" transform="translate(-183.064 -229.868)"/><path class="a" d="M107.54,147.052a1.068,1.068,0,0,0-1.5-.053l-3.417,3.257-1.442-1.5a1.068,1.068,0,0,0-1.5-.053,1.121,1.121,0,0,0,0,1.548l2.189,2.242a.961.961,0,0,0,.747.32,1.068,1.068,0,0,0,.747-.32l4.165-3.951a1.014,1.014,0,0,0,.062-1.433Q107.572,147.082,107.54,147.052Z" transform="translate(-94.031 -131.725)"/><path class="a" d="M211.9,172.442h-12.28a1.068,1.068,0,1,0,0,2.136H211.9a1.068,1.068,0,1,0,0-2.136Z" transform="translate(-183.064 -154.819)"/><path class="a" d="M107.54,314.236a1.068,1.068,0,0,0-1.5-.053l-3.417,3.257-1.442-1.5a1.068,1.068,0,0,0-1.5-.053,1.121,1.121,0,0,0,0,1.548l2.189,2.242a.961.961,0,0,0,.747.32,1.068,1.068,0,0,0,.747-.32l4.165-3.951a1.014,1.014,0,0,0,.062-1.433Q107.572,314.265,107.54,314.236Z" transform="translate(-94.031 -281.823)"/><path class="a" d="M211.9,339.626h-12.28a1.068,1.068,0,1,0,0,2.136H211.9a1.068,1.068,0,1,0,0-2.136Z" transform="translate(-183.064 -304.917)"/></g></svg>