<svg xmlns="http://www.w3.org/2000/svg" width="27.563" height="35.342" viewBox="0 0 27.563 35.342"><defs><style>.a{fill:none;stroke:#fff;}.b{fill:#fff;}</style></defs><g transform="translate(0.609 0.531)"><path class="a" d="M844.422,645.668a13.077,13.077,0,1,0-21.842,14.3c1.517,2.034,3.134,3.991,4.712,5.979,1.893,2.384,3.792,4.761,5.743,7.208a3.579,3.579,0,0,0,.283-.271c3.425-4.313,6.9-8.586,10.255-12.953A12.832,12.832,0,0,0,844.422,645.668Z" transform="translate(-819.973 -639.08)"/><g transform="translate(3.537 3.417)"><path class="b" d="M837.236,661.447a2.6,2.6,0,0,1,2.334-1.346,1.41,1.41,0,0,0,1.566-1.569,2.591,2.591,0,0,1,1.344-2.328,1.406,1.406,0,0,0,.573-2.138,2.6,2.6,0,0,1,0-2.692,1.4,1.4,0,0,0-.573-2.133,2.6,2.6,0,0,1-1.344-2.337,1.407,1.407,0,0,0-1.566-1.563,2.6,2.6,0,0,1-2.334-1.347,1.4,1.4,0,0,0-2.135-.572,2.6,2.6,0,0,1-2.692,0,1.4,1.4,0,0,0-2.136.572,2.6,2.6,0,0,1-2.333,1.347,1.406,1.406,0,0,0-1.564,1.563,2.612,2.612,0,0,1-1.346,2.337,1.4,1.4,0,0,0-.572,2.133,2.589,2.589,0,0,1,0,2.692,1.4,1.4,0,0,0,.572,2.138,2.594,2.594,0,0,1,1.346,2.328,1.409,1.409,0,0,0,1.564,1.569,2.6,2.6,0,0,1,2.333,1.346,1.4,1.4,0,0,0,2.135.571,2.619,2.619,0,0,1,2.692,0A1.4,1.4,0,0,0,837.236,661.447Zm-3.479-3.094a5.633,5.633,0,1,1,5.631-5.634A5.633,5.633,0,0,1,833.757,658.353Z" transform="translate(-824.182 -643.147)"/><path class="b" d="M836.027,652.6l-1.179-2.387-1.18,2.387-2.639.386,1.907,1.86-.45,2.63,2.361-1.24,2.362,1.24-.45-2.63,1.907-1.86Z" transform="translate(-825.276 -644.276)"/></g></g></svg>