<svg xmlns="http://www.w3.org/2000/svg" width="25.636" height="25.642" viewBox="0 0 25.636 25.642"><defs><style>.a{fill:#fff;}</style></defs><path class="a" d="M19.255,22.72,16.766,22.3l.264-1.58,2.477.413a3.21,3.21,0,0,1,1.745-1.677L19.616,6.368a3.186,3.186,0,0,1-2.37-1.6L8.011,7.2v.012a3.2,3.2,0,0,1-2.825,3.167l-.78,5.886a3.2,3.2,0,0,1,1.977,2.678l2.75.459-.267,1.58-2.736-.457a3.2,3.2,0,1,1-3.308-4.464l.78-5.885A3.2,3.2,0,1,1,7.587,5.656L16.823,3.22V3.209A3.2,3.2,0,1,1,21.2,6.185l1.638,13.091a3.2,3.2,0,0,1-.13,6.355c-.094.008-.186.012-.279.012A3.2,3.2,0,0,1,19.255,22.72Zm1.573-.285a1.6,1.6,0,1,0,1.6-1.6A1.6,1.6,0,0,0,20.828,22.434ZM1.6,19.23a1.6,1.6,0,1,0,1.6-1.6A1.6,1.6,0,0,0,1.6,19.23ZM3.2,7.214a1.6,1.6,0,1,0,1.6-1.6A1.6,1.6,0,0,0,3.2,7.214Zm15.221-4a1.6,1.6,0,1,0,1.6-1.6A1.6,1.6,0,0,0,18.425,3.209ZM13.61,21.776l.265-1.58,1.58.264-.264,1.58Zm-3.165-.528.264-1.58,1.58.264-.264,1.58Zm5.236-4.61-.8-1.9H10.641l-.8,1.9H8.361l3.708-8.4h1.452l3.672,8.4Zm-4.512-3.156h3.168L12.753,9.751Z" transform="translate(0 0)"/></svg>