<svg xmlns="http://www.w3.org/2000/svg" width="29.14" height="29.13" viewBox="0 0 29.14 29.13"><defs><style>.a{opacity:0.5;}.b{fill:#515151;}</style></defs><g class="a"><g transform="translate(0.842 0.832)"><path class="b" d="M43.488,32.106A11.306,11.306,0,1,0,54.795,43.412,11.306,11.306,0,0,0,43.488,32.106Zm0,1.077a10.219,10.219,0,0,1,8.354,4.345L50.5,38.874a2.125,2.125,0,0,0-1.085-.307,2.154,2.154,0,0,0-2.154,2.154,2.125,2.125,0,0,0,.305,1.087l-3.525,3.525a2.088,2.088,0,0,0-2.174,0l-2.449-2.449A2.125,2.125,0,0,0,39.72,41.8a2.149,2.149,0,0,0-4.231-.538h-2A10.244,10.244,0,0,1,43.488,33.183Zm7,7.538a1.077,1.077,0,1,1-1.077-1.077A1.077,1.077,0,0,1,50.488,40.72Zm-6.461,6.461A1.077,1.077,0,1,1,42.95,46.1,1.077,1.077,0,0,1,44.027,47.181ZM38.643,41.8a1.077,1.077,0,1,1-1.077-1.077A1.077,1.077,0,0,1,38.643,41.8Zm9.816,10.56A10.228,10.228,0,0,1,33.316,42.336h2.172a2.154,2.154,0,0,0,2.077,1.615,2.125,2.125,0,0,0,1.087-.305L41.1,46.094a2.125,2.125,0,0,0-.305,1.087,2.154,2.154,0,1,0,4.307,0,2.125,2.125,0,0,0-.305-1.087l3.525-3.525a2.125,2.125,0,0,0,1.087.305,2.154,2.154,0,0,0,2.154-2.154,2.125,2.125,0,0,0-.305-1.087l1.174-1.173A10.22,10.22,0,0,1,48.459,52.357Z" transform="translate(-32.182 -32.106)"/></g><g transform="translate(0 0)"><g transform="translate(0 0)"><path class="b" d="M24.285,4.937A1.942,1.942,0,0,0,26.158,3.48H29.14V2.509H26.158a1.938,1.938,0,0,0-3.815.485,1.916,1.916,0,0,0,.275.98l-.853.853a12.137,12.137,0,1,0-3.03,17.577L20.2,23.87l.686.686L24.8,28.465a2.545,2.545,0,1,0,3.6-3.6l-3.908-3.908-.686-.686-1.465-1.465a12.1,12.1,0,0,0,0-13.174l.971-.971A1.917,1.917,0,0,0,24.285,4.937Zm0-2.913a.971.971,0,1,1-.971.971A.971.971,0,0,1,24.285,2.024Zm3.423,23.528a1.574,1.574,0,0,1-2.2,2.252l-.025-.025L21.573,23.87,23.8,21.644Zm-4.595-4.595-2.226,2.226L19.543,21.84c.068-.052.133-.11.2-.164s.146-.118.218-.179c.106-.089.211-.18.314-.272.053-.049.1-.1.155-.146q.3-.28.578-.578c.049-.052.1-.1.146-.155.093-.1.183-.208.272-.314q.091-.108.179-.218c.053-.067.111-.131.164-.2ZM21.231,18.7c-.153.214-.311.423-.477.624-.049.059-.1.116-.15.173q-.223.259-.46.5-.1.107-.21.21-.243.237-.5.46c-.058.049-.115.1-.173.15-.2.167-.411.324-.624.477a11.183,11.183,0,1,1,2.6-2.6Z" transform="translate(0 -0.08)"/></g></g></g></svg>