<svg xmlns="http://www.w3.org/2000/svg" width="10.583" height="13.214" viewBox="0 0 10.583 13.214"><defs><style>.a{fill:#7e7e7e;stroke:#7e7e7e;stroke-width:0.5px;}</style></defs><g transform="translate(-52.769 0.25)"><g transform="translate(53.02)"><g transform="translate(0)"><path class="a" d="M63.094,10.484,62.527,3.33a.894.894,0,0,0-.887-.822H60.518v-.05a2.458,2.458,0,0,0-4.915,0v.05H54.481a.894.894,0,0,0-.887.821l-.568,7.156a2.07,2.07,0,0,0,2.064,2.228h5.94a2.07,2.07,0,0,0,2.064-2.229ZM56.347,2.458a1.713,1.713,0,0,1,3.426,0v.05H56.347ZM62,11.544a1.312,1.312,0,0,1-.972.425H55.09a1.325,1.325,0,0,1-1.322-1.426l.568-7.156a.146.146,0,0,1,.145-.134H55.6V4.17a.372.372,0,1,0,.745,0V3.253h3.426V4.17a.372.372,0,1,0,.745,0V3.253h1.121a.146.146,0,0,1,.145.135l.568,7.154A1.312,1.312,0,0,1,62,11.544Z" transform="translate(-53.02)"/></g></g><g transform="translate(56.274 6.205)"><g transform="translate(0)"><path class="a" d="M187.516,250a.372.372,0,0,0-.527,0l-1.663,1.663-.639-.639a.372.372,0,1,0-.527.527l.9.9a.372.372,0,0,0,.527,0l1.926-1.926A.372.372,0,0,0,187.516,250Z" transform="translate(-184.052 -249.893)"/></g></g></g></svg>