<svg xmlns="http://www.w3.org/2000/svg" width="19.512" height="19.418" viewBox="0 0 19.512 19.418"><defs><style>.a{opacity:0.5;}.b{fill:#9a9a9a;stroke:#9a9a9a;stroke-width:0.5px;}</style></defs><g class="a" transform="translate(0.25 0.133)"><path class="b" d="M17.416,49.126a.47.47,0,0,0-.47.47v4.173a1.411,1.411,0,0,1-1.41,1.41H2.35a1.411,1.411,0,0,1-1.41-1.41V41.522a1.412,1.412,0,0,1,1.41-1.41H6.522a.47.47,0,0,0,0-.94H2.35A2.352,2.352,0,0,0,0,41.522V53.769a2.352,2.352,0,0,0,2.35,2.35H15.536a2.352,2.352,0,0,0,2.35-2.35V49.6a.47.47,0,0,0-.47-.47Zm0,0" transform="translate(0 -37.083)"/><path class="b" d="M120.806.88a2.115,2.115,0,0,0-2.991,0L109.43,9.264a.47.47,0,0,0-.121.207l-1.1,3.98a.47.47,0,0,0,.578.578l3.98-1.1a.47.47,0,0,0,.207-.121l8.384-8.384a2.117,2.117,0,0,0,0-2.991ZM110.454,9.57l6.862-6.862,2.213,2.213-6.862,6.862Zm-.442.887,1.768,1.768-2.446.678Zm10.68-6.7-.5.5-2.213-2.213.5-.5a1.175,1.175,0,0,1,1.661,0l.552.551A1.177,1.177,0,0,1,120.693,3.758Zm0,0" transform="translate(-103.106)"/></g></svg>