<svg xmlns="http://www.w3.org/2000/svg" width="20.374" height="22.1" viewBox="0 0 20.374 22.1"><defs><style>.a{opacity:0.7;}.b{fill:#515151;}</style></defs><g class="a" transform="translate(-20)"><g transform="translate(20)"><path class="b" d="M384.958,15.036,387.3,16.99a.863.863,0,1,0,1.106-1.326l-2.344-1.955a.863.863,0,1,0-1.106,1.326Z" transform="translate(-368.908 -12.926)"/><path class="b" d="M33.909,17.191a.86.86,0,0,0,.552-.2l2.344-1.955A.863.863,0,1,0,35.7,13.71l-2.344,1.955a.863.863,0,0,0,.553,1.526Z" transform="translate(-32.482 -12.927)"/><path class="b" d="M37.39,4.71a10.11,10.11,0,0,0-6.34-2.947v-.9a.863.863,0,1,0-1.727,0v.9a10.187,10.187,0,0,0-6.34,17.353,10.188,10.188,0,0,0,13.24,1,.863.863,0,0,0-1.024-1.39,8.449,8.449,0,1,1,2.4-2.743.863.863,0,1,0,1.513.833A10.192,10.192,0,0,0,37.39,4.71Z" transform="translate(-20)"/><path class="b" d="M221.932,151.34a.863.863,0,0,0-1.214.128L218,154.831a1.728,1.728,0,1,0,1.342,1.087l2.722-3.364A.863.863,0,0,0,221.932,151.34Z" transform="translate(-207.54 -144.623)"/></g></g></svg>