<svg xmlns="http://www.w3.org/2000/svg" width="26.089" height="26.089" viewBox="0 0 26.089 26.089"><defs><style>.a{fill:#fff;}</style></defs><g transform="translate(0 0)"><path class="a" d="M285.823,71.743a2.293,2.293,0,1,0-2.293,2.295A2.3,2.3,0,0,0,285.823,71.743Zm-2.293.766a.766.766,0,1,1,.764-.766A.766.766,0,0,1,283.53,72.508Z" transform="translate(-266.907 -65.909)"/><path class="a" d="M23.21,18.006H9.038a1.3,1.3,0,0,1,0-2.606h7.585a.79.79,0,0,0,.659-.366L21.3,9.505a5.9,5.9,0,1,0-9.382-.034l3.264,4.4H9.038a2.832,2.832,0,0,0,0,5.663H23.21a1.352,1.352,0,0,1,0,2.7H6.07a3.085,3.085,0,1,0,0,1.529H23.21a2.881,2.881,0,0,0,0-5.762ZM13.142,8.553a4.375,4.375,0,1,1,6.937.033l-3.422,4.707ZM3.083,24.56A1.557,1.557,0,1,1,4.637,23,1.557,1.557,0,0,1,3.083,24.56Z" transform="translate(0 0)"/></g></svg>