<svg xmlns="http://www.w3.org/2000/svg" xmlns:xlink="http://www.w3.org/1999/xlink" width="40" height="40" viewBox="0 0 40 40">
  <defs>
    <filter id="Ellipse_53" x="0" y="0" width="40" height="40" filterUnits="userSpaceOnUse">
      <feOffset dy="3" input="SourceAlpha"/>
      <feGaussianBlur stdDeviation="2.5" result="blur"/>
      <feFlood flood-opacity="0.161"/>
      <feComposite operator="in" in2="blur"/>
      <feComposite in="SourceGraphic"/>
    </filter>
  </defs>
  <g id="Component_223_22" data-name="Component 223 – 22" transform="translate(7.5 4.5)">
    <g transform="matrix(1, 0, 0, 1, -7.5, -4.5)" filter="url(#Ellipse_53)">
      <g id="Ellipse_53-2" data-name="Ellipse 53" transform="translate(7.5 4.5)" fill="#7d7d7d" stroke="#fff" stroke-width="1.5">
        <circle cx="12.5" cy="12.5" r="12.5" stroke="none"/>
        <circle cx="12.5" cy="12.5" r="11.75" fill="none"/>
      </g>
    </g>
    <g id="Group_587" data-name="Group 587" transform="translate(5.043 5.818)">
      <path id="Path_435" data-name="Path 435" d="M-1451.683,836.89c-.128,0-.278,0-.428,0q-.613-.012-.418-.6c.035-.106.071-.211.108-.316a.832.832,0,0,1,.88-.633c.45,0,.446,0,.6-.424.311-.859.631-1.714.939-2.574a1.561,1.561,0,0,1,.8-.868,4.88,4.88,0,0,1,2.074-.545c.978-.039,1.958-.072,2.937-.069a8.072,8.072,0,0,1,2.789.387,4.768,4.768,0,0,1,.795.4,1.05,1.05,0,0,1,.428.564c.362.984.728,1.966,1.085,2.951.048.132.109.187.251.178a2.564,2.564,0,0,1,.474.012.762.762,0,0,1,.635.491,4.608,4.608,0,0,1,.178.514.363.363,0,0,1-.36.519c-.174.013-.35,0-.555,0a4.486,4.486,0,0,1,.144.473,2.691,2.691,0,0,1,.042.489q0,2.21,0,4.42a.548.548,0,0,1-.627.622h-1.779a.556.556,0,0,1-.629-.611c-.007-.223-.012-.447,0-.669.01-.173-.053-.216-.22-.216-1.872.005-3.745,0-5.618,0-.481,0-.963.006-1.444,0-.159,0-.2.052-.2.2.011.223.007.446,0,.669a.56.56,0,0,1-.635.624q-.907,0-1.814,0a.537.537,0,0,1-.587-.591c0-1.5-.008-2.994.006-4.491A6.6,6.6,0,0,1-1451.683,836.89Zm11.482-1.32c-.011-.054-.013-.076-.02-.1-.3-.906-.587-1.813-.9-2.714a.727.727,0,0,0-.276-.316,1.3,1.3,0,0,0-.39-.153,8.519,8.519,0,0,0-2.172-.275c-.937-.018-1.877-.01-2.813.037a11.157,11.157,0,0,0-1.627.245.737.737,0,0,0-.617.466c-.288.871-.57,1.744-.863,2.614-.054.159,0,.213.143.236.8.129,1.588.313,2.39.376,1.021.081,2.049.081,3.074.086a16.885,16.885,0,0,0,3.075-.287C-1440.864,835.729-1440.537,835.645-1440.2,835.57Zm-.569,3.587v-.021a6.553,6.553,0,0,0,.668,0,4.212,4.212,0,0,0,.72-.138.411.411,0,0,0,.319-.448c-.008-.211,0-.423-.013-.633a.358.358,0,0,0-.349-.372,1.737,1.737,0,0,0-.623.053c-.559.206-1.1.449-1.654.68a.867.867,0,0,0-.163.1.4.4,0,0,0-.178.444.368.368,0,0,0,.36.285C-1441.378,839.131-1441.074,839.141-1440.77,839.157Zm-8.649.007c.4-.023.715-.034,1.03-.064a.349.349,0,0,0,.325-.279.381.381,0,0,0-.14-.409,1.212,1.212,0,0,0-.249-.163c-.427-.192-.854-.385-1.287-.561a1.822,1.822,0,0,0-.89-.158.391.391,0,0,0-.4.4c-.011.216-.005.434-.009.651a.379.379,0,0,0,.223.368.96.96,0,0,0,.311.114C-1450.119,839.108-1449.729,839.137-1449.419,839.164Z" transform="translate(1452.576 -830.865)" fill="#fff"/>
    </g>
  </g>
</svg>
